<svg width="415" height="394" viewBox="0 0 415 394" fill="none" xmlns="http://www.w3.org/2000/svg">
<circle cx="125" cy="125" r="125" fill="#FF0000" fill-opacity="0.5"/>
<path d="M60.6658 119.351C59.9378 119.351 59.2748 119.217 58.6768 118.948C58.0875 118.671 57.6152 118.255 57.2598 117.7C56.9045 117.137 56.7268 116.43 56.7268 115.581V103.062H59.4958V115.49C59.4958 116.591 60.0202 117.141 61.0688 117.141C61.3895 117.141 61.7058 117.106 62.0178 117.037C62.3298 116.968 62.6808 116.859 63.0708 116.712L63.4738 118.675C63.0058 118.866 62.5422 119.026 62.0828 119.156C61.6322 119.286 61.1598 119.351 60.6658 119.351ZM54.8938 108.301V106.442H63.0708V108.301H54.8938ZM75.3597 119V111.642C75.3597 110.637 75.117 109.878 74.6317 109.367C74.155 108.847 73.518 108.587 72.7207 108.587C72.0707 108.587 71.4987 108.765 71.0047 109.12C70.5107 109.475 70.125 110.004 69.8477 110.706C69.5704 111.408 69.4317 112.27 69.4317 113.293H68.4827C68.4827 111.707 68.682 110.381 69.0807 109.315C69.488 108.249 70.06 107.447 70.7967 106.91C71.542 106.364 72.4217 106.091 73.4357 106.091C74.4584 106.091 75.3164 106.321 76.0097 106.78C76.7117 107.239 77.2404 107.885 77.5957 108.717C77.9597 109.549 78.1417 110.524 78.1417 111.642V119H75.3597ZM66.6497 119V101.19H69.4317V119H66.6497ZM82.6966 119V106.39H85.4786V119H82.6966ZM84.7636 113.436C84.7636 111.807 84.9412 110.459 85.2966 109.393C85.6519 108.318 86.1372 107.521 86.7526 107.001C87.3679 106.472 88.0699 106.208 88.8586 106.208C89.0926 106.208 89.3049 106.225 89.4956 106.26C89.6949 106.286 89.8942 106.329 90.0936 106.39L90.0156 109.159C89.7816 109.098 89.5302 109.051 89.2616 109.016C89.0016 108.973 88.7632 108.951 88.5466 108.951C87.8619 108.951 87.2899 109.129 86.8306 109.484C86.3799 109.831 86.0419 110.338 85.8166 111.005C85.5912 111.672 85.4786 112.483 85.4786 113.436H84.7636ZM97.2771 119.351C96.2024 119.351 95.2231 119.074 94.3391 118.519C93.4637 117.964 92.7617 117.189 92.2331 116.192C91.7131 115.195 91.4531 114.038 91.4531 112.721C91.4531 111.334 91.7131 110.147 92.2331 109.159C92.7531 108.171 93.4507 107.413 94.3261 106.884C95.2101 106.355 96.1937 106.091 97.2771 106.091C98.2737 106.091 99.1274 106.29 99.8381 106.689C100.549 107.088 101.121 107.625 101.554 108.301C101.996 108.977 102.295 109.744 102.451 110.602C102.607 111.451 102.624 112.331 102.503 113.241H93.6761V111.694H100.566L99.9681 112.084C99.9941 111.642 99.9724 111.2 99.9031 110.758C99.8337 110.316 99.6994 109.913 99.5001 109.549C99.3094 109.176 99.0364 108.877 98.6811 108.652C98.3257 108.427 97.8751 108.314 97.3291 108.314C96.6531 108.314 96.0811 108.483 95.6131 108.821C95.1537 109.159 94.8071 109.614 94.5731 110.186C94.3391 110.758 94.2221 111.395 94.2221 112.097V113.215C94.2221 113.969 94.3347 114.636 94.5601 115.217C94.7854 115.798 95.1234 116.257 95.5741 116.595C96.0247 116.933 96.5924 117.102 97.2771 117.102C97.9357 117.102 98.4817 116.95 98.9151 116.647C99.3571 116.335 99.6344 115.871 99.7471 115.256H102.568C102.438 116.071 102.135 116.786 101.658 117.401C101.181 118.016 100.57 118.497 99.8251 118.844C99.0797 119.182 98.2304 119.351 97.2771 119.351ZM114.278 119L113.927 116.023V110.888C113.927 109.935 113.732 109.237 113.342 108.795C112.952 108.353 112.315 108.132 111.431 108.132C110.92 108.132 110.474 108.206 110.092 108.353C109.711 108.5 109.412 108.721 109.195 109.016C108.987 109.302 108.883 109.657 108.883 110.082H105.828C105.828 109.137 106.054 108.375 106.504 107.794C106.964 107.205 107.609 106.776 108.441 106.507C109.282 106.23 110.279 106.091 111.431 106.091C112.48 106.091 113.399 106.264 114.187 106.611C114.985 106.949 115.604 107.478 116.046 108.197C116.488 108.916 116.709 109.844 116.709 110.979V119H114.278ZM110.118 119.351C109.052 119.351 108.164 119.165 107.453 118.792C106.751 118.419 106.223 117.93 105.867 117.323C105.512 116.716 105.334 116.062 105.334 115.36C105.334 114.554 105.542 113.882 105.958 113.345C106.383 112.808 106.972 112.409 107.726 112.149C108.489 111.88 109.377 111.746 110.391 111.746C111.067 111.746 111.713 111.802 112.328 111.915C112.952 112.019 113.572 112.166 114.187 112.357V114.008C113.693 113.835 113.152 113.7 112.562 113.605C111.982 113.51 111.436 113.462 110.924 113.462C110.17 113.462 109.542 113.609 109.039 113.904C108.545 114.19 108.298 114.675 108.298 115.36C108.298 115.871 108.498 116.309 108.896 116.673C109.295 117.037 109.928 117.219 110.794 117.219C111.436 117.219 111.99 117.076 112.458 116.79C112.926 116.495 113.286 116.131 113.537 115.698C113.797 115.265 113.927 114.836 113.927 114.411H114.59C114.59 115.295 114.417 116.114 114.07 116.868C113.732 117.613 113.23 118.216 112.562 118.675C111.904 119.126 111.089 119.351 110.118 119.351ZM125.437 119.351C124.709 119.351 124.046 119.217 123.448 118.948C122.859 118.671 122.387 118.255 122.031 117.7C121.676 117.137 121.498 116.43 121.498 115.581V103.062H124.267V115.49C124.267 116.591 124.792 117.141 125.84 117.141C126.161 117.141 126.477 117.106 126.789 117.037C127.101 116.968 127.452 116.859 127.842 116.712L128.245 118.675C127.777 118.866 127.314 119.026 126.854 119.156C126.404 119.286 125.931 119.351 125.437 119.351ZM119.665 108.301V106.442H127.842V108.301H119.665Z" fill="white"/>
<circle cx="290" cy="130" r="125" fill="#00FF3C" fill-opacity="0.67"/>
<path d="M298.829 119L298.478 116.023V110.888C298.478 109.935 298.283 109.237 297.893 108.795C297.503 108.353 296.866 108.132 295.982 108.132C295.471 108.132 295.024 108.206 294.643 108.353C294.262 108.5 293.963 108.721 293.746 109.016C293.538 109.302 293.434 109.657 293.434 110.082H290.379C290.379 109.137 290.604 108.375 291.055 107.794C291.514 107.205 292.16 106.776 292.992 106.507C293.833 106.23 294.829 106.091 295.982 106.091C297.031 106.091 297.949 106.264 298.738 106.611C299.535 106.949 300.155 107.478 300.597 108.197C301.039 108.916 301.26 109.844 301.26 110.979V119H298.829ZM294.669 119.351C293.603 119.351 292.715 119.165 292.004 118.792C291.302 118.419 290.773 117.93 290.418 117.323C290.063 116.716 289.885 116.062 289.885 115.36C289.885 114.554 290.093 113.882 290.509 113.345C290.934 112.808 291.523 112.409 292.277 112.149C293.04 111.88 293.928 111.746 294.942 111.746C295.618 111.746 296.264 111.802 296.879 111.915C297.503 112.019 298.123 112.166 298.738 112.357V114.008C298.244 113.835 297.702 113.7 297.113 113.605C296.532 113.51 295.986 113.462 295.475 113.462C294.721 113.462 294.093 113.609 293.59 113.904C293.096 114.19 292.849 114.675 292.849 115.36C292.849 115.871 293.048 116.309 293.447 116.673C293.846 117.037 294.478 117.219 295.345 117.219C295.986 117.219 296.541 117.076 297.009 116.79C297.477 116.495 297.837 116.131 298.088 115.698C298.348 115.265 298.478 114.836 298.478 114.411H299.141C299.141 115.295 298.968 116.114 298.621 116.868C298.283 117.613 297.78 118.216 297.113 118.675C296.454 119.126 295.64 119.351 294.669 119.351ZM310.482 119.351C309.277 119.351 308.246 119.182 307.388 118.844C306.539 118.506 305.884 118.029 305.425 117.414C304.974 116.79 304.745 116.049 304.736 115.191H307.323C307.358 115.858 307.626 116.352 308.129 116.673C308.632 116.985 309.312 117.141 310.17 117.141C310.638 117.141 311.058 117.072 311.431 116.933C311.804 116.786 312.094 116.591 312.302 116.348C312.519 116.097 312.627 115.819 312.627 115.516C312.627 115.126 312.484 114.818 312.198 114.593C311.921 114.368 311.47 114.164 310.846 113.982L308.181 113.059C307.176 112.712 306.404 112.249 305.867 111.668C305.33 111.087 305.061 110.394 305.061 109.588C305.061 108.539 305.533 107.694 306.478 107.053C307.423 106.412 308.679 106.091 310.248 106.091C311.843 106.091 313.073 106.433 313.94 107.118C314.807 107.803 315.253 108.665 315.279 109.705H312.64C312.588 109.254 312.367 108.903 311.977 108.652C311.587 108.392 311.011 108.262 310.248 108.262C309.546 108.262 308.996 108.414 308.597 108.717C308.207 109.012 308.012 109.35 308.012 109.731C308.012 110.398 308.584 110.897 309.728 111.226L312.575 112.266C313.572 112.595 314.343 113.02 314.889 113.54C315.435 114.06 315.708 114.719 315.708 115.516C315.708 116.175 315.487 116.799 315.045 117.388C314.612 117.969 314.005 118.441 313.225 118.805C312.445 119.169 311.531 119.351 310.482 119.351ZM324.193 119.351C322.988 119.351 321.957 119.182 321.099 118.844C320.25 118.506 319.595 118.029 319.136 117.414C318.685 116.79 318.456 116.049 318.447 115.191H321.034C321.069 115.858 321.337 116.352 321.84 116.673C322.343 116.985 323.023 117.141 323.881 117.141C324.349 117.141 324.769 117.072 325.142 116.933C325.515 116.786 325.805 116.591 326.013 116.348C326.23 116.097 326.338 115.819 326.338 115.516C326.338 115.126 326.195 114.818 325.909 114.593C325.632 114.368 325.181 114.164 324.557 113.982L321.892 113.059C320.887 112.712 320.115 112.249 319.578 111.668C319.041 111.087 318.772 110.394 318.772 109.588C318.772 108.539 319.244 107.694 320.189 107.053C321.134 106.412 322.39 106.091 323.959 106.091C325.554 106.091 326.784 106.433 327.651 107.118C328.518 107.803 328.964 108.665 328.99 109.705H326.351C326.299 109.254 326.078 108.903 325.688 108.652C325.298 108.392 324.722 108.262 323.959 108.262C323.257 108.262 322.707 108.414 322.308 108.717C321.918 109.012 321.723 109.35 321.723 109.731C321.723 110.398 322.295 110.897 323.439 111.226L326.286 112.266C327.283 112.595 328.054 113.02 328.6 113.54C329.146 114.06 329.419 114.719 329.419 115.516C329.419 116.175 329.198 116.799 328.756 117.388C328.323 117.969 327.716 118.441 326.936 118.805C326.156 119.169 325.242 119.351 324.193 119.351ZM337.865 119.351C336.79 119.351 335.811 119.074 334.927 118.519C334.052 117.964 333.35 117.189 332.821 116.192C332.301 115.195 332.041 114.038 332.041 112.721C332.041 111.334 332.301 110.147 332.821 109.159C333.341 108.171 334.039 107.413 334.914 106.884C335.798 106.355 336.782 106.091 337.865 106.091C338.862 106.091 339.715 106.29 340.426 106.689C341.137 107.088 341.709 107.625 342.142 108.301C342.584 108.977 342.883 109.744 343.039 110.602C343.195 111.451 343.212 112.331 343.091 113.241H334.264V111.694H341.154L340.556 112.084C340.582 111.642 340.56 111.2 340.491 110.758C340.422 110.316 340.287 109.913 340.088 109.549C339.897 109.176 339.624 108.877 339.269 108.652C338.914 108.427 338.463 108.314 337.917 108.314C337.241 108.314 336.669 108.483 336.201 108.821C335.742 109.159 335.395 109.614 335.161 110.186C334.927 110.758 334.81 111.395 334.81 112.097V113.215C334.81 113.969 334.923 114.636 335.148 115.217C335.373 115.798 335.711 116.257 336.162 116.595C336.613 116.933 337.18 117.102 337.865 117.102C338.524 117.102 339.07 116.95 339.503 116.647C339.945 116.335 340.222 115.871 340.335 115.256H343.156C343.026 116.071 342.723 116.786 342.246 117.401C341.769 118.016 341.158 118.497 340.413 118.844C339.668 119.182 338.818 119.351 337.865 119.351ZM351.07 119.351C350.342 119.351 349.679 119.217 349.081 118.948C348.492 118.671 348.019 118.255 347.664 117.7C347.309 117.137 347.131 116.43 347.131 115.581V103.062H349.9V115.49C349.9 116.591 350.424 117.141 351.473 117.141C351.794 117.141 352.11 117.106 352.422 117.037C352.734 116.968 353.085 116.859 353.475 116.712L353.878 118.675C353.41 118.866 352.946 119.026 352.487 119.156C352.036 119.286 351.564 119.351 351.07 119.351ZM345.298 108.301V106.442H353.475V108.301H345.298Z" fill="white"/>
<circle cx="203" cy="269" r="125" fill="#0084FF" fill-opacity="0.56"/>
<path d="M125.833 286.442H129.031L132.294 296.621H132.047L135.31 286.442H138.508L133.724 299H130.617L125.833 286.442ZM149.757 286.39H152.526V299H149.757V286.39ZM141.047 286.39H143.829V294.138C143.829 295.022 144.046 295.689 144.479 296.14C144.913 296.582 145.519 296.803 146.299 296.803C146.949 296.803 147.534 296.634 148.054 296.296C148.583 295.949 148.999 295.451 149.302 294.801C149.606 294.151 149.757 293.362 149.757 292.435H150.563C150.563 293.934 150.364 295.191 149.965 296.205C149.567 297.21 149.012 297.969 148.301 298.48C147.591 298.983 146.763 299.234 145.818 299.234C144.917 299.234 144.102 299.069 143.374 298.74C142.655 298.411 142.087 297.895 141.671 297.193C141.255 296.482 141.047 295.555 141.047 294.411V286.39ZM157.482 299V281.19H160.264V299H157.482ZM173.936 299V291.642C173.936 290.637 173.693 289.878 173.208 289.367C172.731 288.847 172.094 288.587 171.297 288.587C170.647 288.587 170.075 288.765 169.581 289.12C169.087 289.475 168.701 290.004 168.424 290.706C168.147 291.408 168.008 292.27 168.008 293.293H167.059C167.059 291.707 167.258 290.381 167.657 289.315C168.064 288.249 168.636 287.447 169.373 286.91C170.118 286.364 170.998 286.091 172.012 286.091C173.035 286.091 173.893 286.321 174.586 286.78C175.288 287.239 175.817 287.885 176.172 288.717C176.536 289.549 176.718 290.524 176.718 291.642V299H173.936ZM165.226 299V286.442H167.657L168.008 289.042V299H165.226ZM185.875 299.351C184.8 299.351 183.821 299.074 182.937 298.519C182.061 297.964 181.359 297.189 180.831 296.192C180.311 295.195 180.051 294.038 180.051 292.721C180.051 291.334 180.311 290.147 180.831 289.159C181.351 288.171 182.048 287.413 182.924 286.884C183.808 286.355 184.791 286.091 185.875 286.091C186.871 286.091 187.725 286.29 188.436 286.689C189.146 287.088 189.718 287.625 190.152 288.301C190.594 288.977 190.893 289.744 191.049 290.602C191.205 291.451 191.222 292.331 191.101 293.241H182.274V291.694H189.164L188.566 292.084C188.592 291.642 188.57 291.2 188.501 290.758C188.431 290.316 188.297 289.913 188.098 289.549C187.907 289.176 187.634 288.877 187.279 288.652C186.923 288.427 186.473 288.314 185.927 288.314C185.251 288.314 184.679 288.483 184.211 288.821C183.751 289.159 183.405 289.614 183.171 290.186C182.937 290.758 182.82 291.395 182.82 292.097V293.215C182.82 293.969 182.932 294.636 183.158 295.217C183.383 295.798 183.721 296.257 184.172 296.595C184.622 296.933 185.19 297.102 185.875 297.102C186.533 297.102 187.079 296.95 187.513 296.647C187.955 296.335 188.232 295.871 188.345 295.256H191.166C191.036 296.071 190.732 296.786 190.256 297.401C189.779 298.016 189.168 298.497 188.423 298.844C187.677 299.182 186.828 299.351 185.875 299.351ZM194.933 299V286.39H197.715V299H194.933ZM197 293.436C197 291.807 197.178 290.459 197.533 289.393C197.888 288.318 198.374 287.521 198.989 287.001C199.604 286.472 200.306 286.208 201.095 286.208C201.329 286.208 201.541 286.225 201.732 286.26C201.931 286.286 202.131 286.329 202.33 286.39L202.252 289.159C202.018 289.098 201.767 289.051 201.498 289.016C201.238 288.973 201 288.951 200.783 288.951C200.098 288.951 199.526 289.129 199.067 289.484C198.616 289.831 198.278 290.338 198.053 291.005C197.828 291.672 197.715 292.483 197.715 293.436H197ZM212.854 299L212.503 296.023V290.888C212.503 289.935 212.308 289.237 211.918 288.795C211.528 288.353 210.891 288.132 210.007 288.132C209.496 288.132 209.05 288.206 208.668 288.353C208.287 288.5 207.988 288.721 207.771 289.016C207.563 289.302 207.459 289.657 207.459 290.082H204.404C204.404 289.137 204.63 288.375 205.08 287.794C205.54 287.205 206.185 286.776 207.017 286.507C207.858 286.23 208.855 286.091 210.007 286.091C211.056 286.091 211.975 286.264 212.763 286.611C213.561 286.949 214.18 287.478 214.622 288.197C215.064 288.916 215.285 289.844 215.285 290.979V299H212.854ZM208.694 299.351C207.628 299.351 206.74 299.165 206.029 298.792C205.327 298.419 204.799 297.93 204.443 297.323C204.088 296.716 203.91 296.062 203.91 295.36C203.91 294.554 204.118 293.882 204.534 293.345C204.959 292.808 205.548 292.409 206.302 292.149C207.065 291.88 207.953 291.746 208.967 291.746C209.643 291.746 210.289 291.802 210.904 291.915C211.528 292.019 212.148 292.166 212.763 292.357V294.008C212.269 293.835 211.728 293.7 211.138 293.605C210.558 293.51 210.012 293.462 209.5 293.462C208.746 293.462 208.118 293.609 207.615 293.904C207.121 294.19 206.874 294.675 206.874 295.36C206.874 295.871 207.074 296.309 207.472 296.673C207.871 297.037 208.504 297.219 209.37 297.219C210.012 297.219 210.566 297.076 211.034 296.79C211.502 296.495 211.862 296.131 212.113 295.698C212.373 295.265 212.503 294.836 212.503 294.411H213.166C213.166 295.295 212.993 296.114 212.646 296.868C212.308 297.613 211.806 298.216 211.138 298.675C210.48 299.126 209.665 299.351 208.694 299.351ZM226.106 299.351C225.309 299.351 224.581 299.134 223.922 298.701C223.264 298.259 222.739 297.605 222.349 296.738C221.959 295.863 221.764 294.779 221.764 293.488H222.648C222.648 294.173 222.8 294.766 223.103 295.269C223.407 295.763 223.792 296.149 224.26 296.426C224.728 296.695 225.218 296.829 225.729 296.829C226.353 296.829 226.908 296.66 227.393 296.322C227.887 295.975 228.277 295.49 228.563 294.866C228.858 294.242 229.005 293.505 229.005 292.656C229.005 291.833 228.862 291.118 228.576 290.511C228.29 289.896 227.9 289.423 227.406 289.094C226.912 288.756 226.345 288.587 225.703 288.587C225.175 288.587 224.676 288.717 224.208 288.977C223.74 289.228 223.363 289.601 223.077 290.095C222.791 290.589 222.648 291.187 222.648 291.889H221.764C221.764 290.641 221.951 289.588 222.323 288.73C222.696 287.863 223.22 287.209 223.896 286.767C224.581 286.316 225.387 286.091 226.314 286.091C227.328 286.091 228.251 286.36 229.083 286.897C229.915 287.434 230.578 288.197 231.072 289.185C231.566 290.164 231.813 291.321 231.813 292.656C231.813 294.008 231.558 295.187 231.046 296.192C230.535 297.189 229.846 297.964 228.979 298.519C228.121 299.074 227.164 299.351 226.106 299.351ZM219.866 299V281.19H222.648V295.932L221.712 299H219.866ZM237.31 283.959C236.764 283.959 236.335 283.812 236.023 283.517C235.711 283.214 235.555 282.806 235.555 282.295C235.555 281.792 235.711 281.394 236.023 281.099C236.335 280.804 236.764 280.657 237.31 280.657C237.847 280.657 238.272 280.804 238.584 281.099C238.896 281.394 239.052 281.792 239.052 282.295C239.052 282.806 238.896 283.214 238.584 283.517C238.272 283.812 237.847 283.959 237.31 283.959ZM235.919 299V286.39H238.701V299H235.919ZM243.988 299V281.19H246.77V299H243.988ZM253.357 283.959C252.811 283.959 252.382 283.812 252.07 283.517C251.758 283.214 251.602 282.806 251.602 282.295C251.602 281.792 251.758 281.394 252.07 281.099C252.382 280.804 252.811 280.657 253.357 280.657C253.894 280.657 254.319 280.804 254.631 281.099C254.943 281.394 255.099 281.792 255.099 282.295C255.099 282.806 254.943 283.214 254.631 283.517C254.319 283.812 253.894 283.959 253.357 283.959ZM251.966 299V286.39H254.748V299H251.966ZM264.181 299.351C263.453 299.351 262.79 299.217 262.192 298.948C261.603 298.671 261.131 298.255 260.775 297.7C260.42 297.137 260.242 296.43 260.242 295.581V283.062H263.011V295.49C263.011 296.591 263.536 297.141 264.584 297.141C264.905 297.141 265.221 297.106 265.533 297.037C265.845 296.968 266.196 296.859 266.586 296.712L266.989 298.675C266.521 298.866 266.058 299.026 265.598 299.156C265.148 299.286 264.675 299.351 264.181 299.351ZM258.409 288.301V286.442H266.586V288.301H258.409ZM268.215 286.442H271.361L274.91 296.569H274.377L277.341 286.442H280.175L275.378 301.34C274.91 302.77 274.325 303.819 273.623 304.486C272.921 305.153 272.055 305.487 271.023 305.487C270.443 305.487 269.875 305.418 269.32 305.279C268.774 305.14 268.22 304.928 267.656 304.642V302.159C268.124 302.48 268.579 302.709 269.021 302.848C269.463 302.995 269.914 303.069 270.373 303.069C270.807 303.069 271.184 302.943 271.504 302.692C271.825 302.441 272.098 302.098 272.323 301.665C272.557 301.24 272.752 300.764 272.908 300.235L273.285 299L268.215 286.442Z" fill="white"/>
<path d="M185.882 175V162.39H188.664V175H185.882ZM187.949 169.436C187.949 167.807 188.127 166.459 188.482 165.393C188.837 164.318 189.323 163.521 189.938 163.001C190.553 162.472 191.255 162.208 192.044 162.208C192.278 162.208 192.49 162.225 192.681 162.26C192.88 162.286 193.08 162.329 193.279 162.39L193.201 165.159C192.967 165.098 192.716 165.051 192.447 165.016C192.187 164.973 191.949 164.951 191.732 164.951C191.047 164.951 190.475 165.129 190.016 165.484C189.565 165.831 189.227 166.338 189.002 167.005C188.777 167.672 188.664 168.483 188.664 169.436H187.949ZM197.486 159.959C196.94 159.959 196.511 159.812 196.199 159.517C195.887 159.214 195.731 158.806 195.731 158.295C195.731 157.792 195.887 157.394 196.199 157.099C196.511 156.804 196.94 156.657 197.486 156.657C198.023 156.657 198.448 156.804 198.76 157.099C199.072 157.394 199.228 157.792 199.228 158.295C199.228 158.806 199.072 159.214 198.76 159.517C198.448 159.812 198.023 159.959 197.486 159.959ZM196.095 175V162.39H198.877V175H196.095ZM208.804 175.351C207.6 175.351 206.568 175.182 205.71 174.844C204.861 174.506 204.207 174.029 203.747 173.414C203.297 172.79 203.067 172.049 203.058 171.191H205.645C205.68 171.858 205.949 172.352 206.451 172.673C206.954 172.985 207.634 173.141 208.492 173.141C208.96 173.141 209.381 173.072 209.753 172.933C210.126 172.786 210.416 172.591 210.624 172.348C210.841 172.097 210.949 171.819 210.949 171.516C210.949 171.126 210.806 170.818 210.52 170.593C210.243 170.368 209.792 170.164 209.168 169.982L206.503 169.059C205.498 168.712 204.727 168.249 204.189 167.668C203.652 167.087 203.383 166.394 203.383 165.588C203.383 164.539 203.856 163.694 204.8 163.053C205.745 162.412 207.002 162.091 208.57 162.091C210.165 162.091 211.396 162.433 212.262 163.118C213.129 163.803 213.575 164.665 213.601 165.705H210.962C210.91 165.254 210.689 164.903 210.299 164.652C209.909 164.392 209.333 164.262 208.57 164.262C207.868 164.262 207.318 164.414 206.919 164.717C206.529 165.012 206.334 165.35 206.334 165.731C206.334 166.398 206.906 166.897 208.05 167.226L210.897 168.266C211.894 168.595 212.665 169.02 213.211 169.54C213.757 170.06 214.03 170.719 214.03 171.516C214.03 172.175 213.809 172.799 213.367 173.388C212.934 173.969 212.327 174.441 211.547 174.805C210.767 175.169 209.853 175.351 208.804 175.351ZM217.874 175V157.19H220.656V175H217.874ZM220.279 167.369L225.934 162.442H229.73L220.279 170.255V167.369ZM226.636 175L220.929 167.018L223.607 166.407L230.042 175H226.636Z" fill="white"/>
</svg>
