<svg xmlns="http://www.w3.org/2000/svg" xmlns:xlink="http://www.w3.org/1999/xlink" contentStyleType="text/css" data-diagram-type="SEQUENCE" height="1146.875px" preserveAspectRatio="none" style="width:990px;height:1146px;" version="1.1" viewBox="0 0 990 1146" width="990.625px" zoomAndPan="magnify"><title>OpenID Connect Appendix A1</title><defs/><g><rect fill="none" height="47.168" rx="4.1667" ry="4.1667" style="stroke:#BABDBF;stroke-width:1.0417;" width="368.0298" x="419.0776" y="20.8333"/><text fill="#2FA4E7" font-family="Verdana" font-size="20.8333" font-weight="bold" lengthAdjust="spacing" textLength="345.1131" x="430.5359" y="51.6296">OpenID Connect Appendix A1</text><g><title>web browser</title><rect fill="#000000" fill-opacity="0.00000" height="917.806" width="8.3333" x="188.9669" y="120.0521"/><line style="stroke:#BABDBF;stroke-width:1.0417;stroke-dasharray:5.0,5.0;" x1="192.6127" x2="192.6127" y1="120.0521" y2="1037.8581"/></g><g><title>app.web.com</title><rect fill="#000000" fill-opacity="0.00000" height="917.806" width="8.3333" x="479.5329" y="120.0521"/><line style="stroke:#BABDBF;stroke-width:1.0417;stroke-dasharray:5.0,5.0;" x1="483.1787" x2="483.1787" y1="120.0521" y2="1037.8581"/></g><g><title/><rect fill="none" height="39.5508" style="stroke:#BABDBF;stroke-width:1.0417;" width="10.4167" x="477.9704" y="201.237"/></g><g><title/><rect fill="none" height="39.5508" style="stroke:#BABDBF;stroke-width:1.0417;" width="10.4167" x="477.9704" y="667.3503"/></g><g><title>auth.web.com</title><rect fill="#000000" fill-opacity="0.00000" height="917.806" width="8.3333" x="684.7422" y="120.0521"/><line style="stroke:#BABDBF;stroke-width:1.0417;stroke-dasharray:5.0,5.0;" x1="688.3881" x2="688.3881" y1="120.0521" y2="1037.8581"/></g><g><title/><rect fill="none" height="133.1055" style="stroke:#BABDBF;stroke-width:1.0417;" width="10.4167" x="683.1797" y="280.3385"/></g><g><title/><rect fill="none" height="39.5508" style="stroke:#BABDBF;stroke-width:1.0417;" width="10.4167" x="683.1797" y="452.9948"/></g><g><title/><rect fill="none" height="89.4531" style="stroke:#BABDBF;stroke-width:1.0417;" width="10.4167" x="683.1797" y="532.0964"/></g><g><title/><rect fill="none" height="149.8047" style="stroke:#BABDBF;stroke-width:1.0417;" width="10.4167" x="683.1797" y="802.6693"/></g><g><title>resource.web.com</title><rect fill="#000000" fill-opacity="0.00000" height="917.806" width="8.3333" x="905.4942" y="120.0521"/><line style="stroke:#BABDBF;stroke-width:1.0417;stroke-dasharray:5.0,5.0;" x1="909.14" x2="909.14" y1="120.0521" y2="1037.8581"/></g><rect fill="#FFFFEE" height="39.5508" rx="4.1667" ry="4.1667" style="stroke:#2FA4E7;stroke-width:1.0417;" width="105.1086" x="140.0584" y="79.4596"/><text fill="#2FA4E7" font-family="Verdana" font-size="12.5" lengthAdjust="spacing" textLength="80.1086" x="152.5584" y="103.5624">web browser</text><rect fill="#FFFFEE" height="39.5508" rx="4.1667" ry="4.1667" style="stroke:#2FA4E7;stroke-width:1.0417;" width="109.021" x="428.6682" y="79.4596"/><text fill="#2FA4E7" font-family="Verdana" font-size="12.5" lengthAdjust="spacing" textLength="84.021" x="441.1682" y="103.5624">app.web.com</text><rect fill="#FFFFEE" height="39.5508" rx="4.1667" ry="4.1667" style="stroke:#2FA4E7;stroke-width:1.0417;" width="113.8977" x="631.4392" y="79.4596"/><text fill="#2FA4E7" font-family="Verdana" font-size="12.5" lengthAdjust="spacing" textLength="88.8977" x="643.9392" y="103.5624">auth.web.com</text><rect fill="#FFFFEE" height="39.5508" rx="4.1667" ry="4.1667" style="stroke:#2FA4E7;stroke-width:1.0417;" width="140.1062" x="839.0869" y="79.4596"/><text fill="#2FA4E7" font-family="Verdana" font-size="12.5" lengthAdjust="spacing" textLength="115.1062" x="851.5869" y="103.5624">resource.web.com</text><rect fill="#FFFFEE" height="39.5508" rx="4.1667" ry="4.1667" style="stroke:#2FA4E7;stroke-width:1.0417;" width="105.1086" x="140.0584" y="1037.8581"/><text fill="#2FA4E7" font-family="Verdana" font-size="12.5" lengthAdjust="spacing" textLength="80.1086" x="152.5584" y="1061.9609">web browser</text><rect fill="#FFFFEE" height="39.5508" rx="4.1667" ry="4.1667" style="stroke:#2FA4E7;stroke-width:1.0417;" width="109.021" x="428.6682" y="1037.8581"/><text fill="#2FA4E7" font-family="Verdana" font-size="12.5" lengthAdjust="spacing" textLength="84.021" x="441.1682" y="1061.9609">app.web.com</text><rect fill="#FFFFEE" height="39.5508" rx="4.1667" ry="4.1667" style="stroke:#2FA4E7;stroke-width:1.0417;" width="113.8977" x="631.4392" y="1037.8581"/><text fill="#2FA4E7" font-family="Verdana" font-size="12.5" lengthAdjust="spacing" textLength="88.8977" x="643.9392" y="1061.9609">auth.web.com</text><rect fill="#FFFFEE" height="39.5508" rx="4.1667" ry="4.1667" style="stroke:#2FA4E7;stroke-width:1.0417;" width="140.1062" x="839.0869" y="1037.8581"/><text fill="#2FA4E7" font-family="Verdana" font-size="12.5" lengthAdjust="spacing" textLength="115.1062" x="851.5869" y="1061.9609">resource.web.com</text><path d="M17.7083,132.5521 L142.3971,132.5521 L142.3971,149.1862 L131.9804,159.6029 L13.5417,159.6029 L13.5417,136.7188 A4.1667,4.1667 0 0 1 17.7083,132.5521" fill="#E9ECEF" style="stroke:#868E96;stroke-width:1.0417;"/><rect fill="none" height="582.6823" rx="4.1667" ry="4.1667" style="stroke:#2FA4E7;stroke-width:1.0417;" width="960.9446" x="13.5417" y="132.5521"/><text fill="#033C73" font-family="Verdana" font-size="12.5" font-weight="bold" lengthAdjust="spacing" textLength="71.5637" x="34.375" y="150.4049">/authorize</text><polygon fill="#2FA4E7" points="465.4704,197.0703,475.887,201.237,465.4704,205.4036,469.637,201.237" style="stroke:#2FA4E7;stroke-width:1.0417;"/><line style="stroke:#2FA4E7;stroke-width:3.125;" x1="192.6127" x2="471.7204" y1="201.237" y2="201.237"/><text fill="#1E90FF" font-family="Verdana" font-size="12.5" font-weight="bold" lengthAdjust="spacing" textLength="8.6975" x="205.1127" y="190.9973">1</text><text fill="#1E90FF" font-family="Verdana" font-size="12.5" lengthAdjust="spacing" textLength="63.855" x="228.3936" y="190.9973">GET /login</text><polygon fill="#2FA4E7" points="204.071,236.6211,193.6544,240.7878,204.071,244.9544,199.9044,240.7878" style="stroke:#2FA4E7;stroke-width:1.0417;"/><line style="stroke:#2FA4E7;stroke-width:3.125;stroke-dasharray:2.0,2.0;" x1="197.821" x2="476.9287" y1="240.7878" y2="240.7878"/><text fill="#1E90FF" font-family="Verdana" font-size="12.5" font-weight="bold" lengthAdjust="spacing" textLength="8.6975" x="215.5294" y="230.5481">2</text><text fill="#1E90FF" font-family="Verdana" font-size="12.5" lengthAdjust="spacing" textLength="226.6602" x="238.8102" y="230.5481">302 Found: auth.web.com/authorize</text><polygon fill="#2FA4E7" points="670.6797,276.1719,681.0964,280.3385,670.6797,284.5052,674.8464,280.3385" style="stroke:#2FA4E7;stroke-width:1.0417;"/><line style="stroke:#2FA4E7;stroke-width:3.125;" x1="192.6127" x2="676.9297" y1="280.3385" y2="280.3385"/><text fill="#1E90FF" font-family="Verdana" font-size="12.5" font-weight="bold" lengthAdjust="spacing" textLength="8.6975" x="205.1127" y="270.0989">3</text><text fill="#1E90FF" font-family="Verdana" font-size="12.5" lengthAdjust="spacing" textLength="92.3218" x="228.3936" y="270.0989">GET /authorize</text><path d="M698.8047,258.4961 L698.8047,372.0378 A4.1667,4.1667 0 0 0 702.9714,376.2044 L947.7631,376.2044 A4.1667,4.1667 0 0 0 951.9297,372.0378 L951.9297,264.7461 L941.5131,254.3294 L702.9714,254.3294 A4.1667,4.1667 0 0 0 698.8047,258.4961" fill="#A9A9A9" style="stroke:#033C73;stroke-width:1.0417;"/><path d="M941.5131,254.3294 L941.5131,262.6628 A2.0833,2.0833 0 0 0 943.5964,264.7461 L951.9297,264.7461 L941.5131,254.3294" fill="#A9A9A9" style="stroke:#033C73;stroke-width:1.0417;"/><text fill="#FFFFFF" font-family="Verdana" font-size="12.5" lengthAdjust="spacing" textLength="51.9897" x="710.2631" y="276.3489">client_id</text><text fill="#FFFFFF" font-family="Verdana" font-size="12.5" lengthAdjust="spacing" textLength="97.0337" x="710.2631" y="290.8997">code_challenge</text><text fill="#FFFFFF" font-family="Verdana" font-size="12.5" lengthAdjust="spacing" textLength="151.5564" x="710.2631" y="305.4504">code_challenge_method</text><text fill="#FFFFFF" font-family="Verdana" font-size="12.5" lengthAdjust="spacing" textLength="221.5149" x="710.2631" y="320.0012">redirect_uri=app.web.com/callback</text><text fill="#FFFFFF" font-family="Verdana" font-size="12.5" font-weight="bold" lengthAdjust="spacing" textLength="146.1304" x="710.2631" y="334.552">response_type=code</text><text fill="#FFFFFF" font-family="Verdana" font-size="12.5" font-weight="bold" lengthAdjust="spacing" textLength="99.4812" x="710.2631" y="349.1028">scope=openid</text><text fill="#FFFFFF" font-family="Verdana" font-size="12.5" lengthAdjust="spacing" textLength="31.665" x="710.2631" y="363.6536">state</text><polygon fill="#2FA4E7" points="204.071,409.2773,193.6544,413.444,204.071,417.6107,199.9044,413.444" style="stroke:#2FA4E7;stroke-width:1.0417;"/><line style="stroke:#2FA4E7;stroke-width:3.125;stroke-dasharray:2.0,2.0;" x1="197.821" x2="682.1381" y1="413.444" y2="413.444"/><text fill="#1E90FF" font-family="Verdana" font-size="12.5" font-weight="bold" lengthAdjust="spacing" textLength="8.6975" x="215.5294" y="403.2043">4</text><text fill="#1E90FF" font-family="Verdana" font-size="12.5" lengthAdjust="spacing" textLength="233.8074" x="238.8102" y="403.2043">302 Found: auth.web.com/login_form</text><polygon fill="#2FA4E7" points="670.6797,448.8281,681.0964,452.9948,670.6797,457.1615,674.8464,452.9948" style="stroke:#2FA4E7;stroke-width:1.0417;"/><line style="stroke:#2FA4E7;stroke-width:3.125;" x1="192.6127" x2="676.9297" y1="452.9948" y2="452.9948"/><text fill="#1E90FF" font-family="Verdana" font-size="12.5" font-weight="bold" lengthAdjust="spacing" textLength="8.6975" x="205.1127" y="442.7551">5</text><text fill="#1E90FF" font-family="Verdana" font-size="12.5" lengthAdjust="spacing" textLength="99.469" x="228.3936" y="442.7551">GET /login_form</text><polygon fill="#2FA4E7" points="204.071,488.3789,193.6544,492.5456,204.071,496.7122,199.9044,492.5456" style="stroke:#2FA4E7;stroke-width:1.0417;"/><line style="stroke:#2FA4E7;stroke-width:3.125;stroke-dasharray:2.0,2.0;" x1="197.821" x2="682.1381" y1="492.5456" y2="492.5456"/><text fill="#1E90FF" font-family="Verdana" font-size="12.5" font-weight="bold" lengthAdjust="spacing" textLength="8.6975" x="215.5294" y="482.3059">6</text><text fill="#1E90FF" font-family="Verdana" font-size="12.5" lengthAdjust="spacing" textLength="45.8679" x="238.8102" y="482.3059">200 OK</text><polygon fill="#2FA4E7" points="670.6797,527.9297,681.0964,532.0964,670.6797,536.263,674.8464,532.0964" style="stroke:#2FA4E7;stroke-width:1.0417;"/><line style="stroke:#2FA4E7;stroke-width:3.125;" x1="192.6127" x2="676.9297" y1="532.0964" y2="532.0964"/><text fill="#1E90FF" font-family="Verdana" font-size="12.5" font-weight="bold" lengthAdjust="spacing" textLength="8.6975" x="205.1127" y="521.8567">7</text><text fill="#1E90FF" font-family="Verdana" font-size="12.5" lengthAdjust="spacing" textLength="107.196" x="228.3936" y="521.8567">POST /login_form</text><path d="M698.8047,510.2539 L698.8047,580.0456 A4.1667,4.1667 0 0 0 702.9714,584.2122 L947.7631,584.2122 A4.1667,4.1667 0 0 0 951.9297,580.0456 L951.9297,516.5039 L941.5131,506.0872 L702.9714,506.0872 A4.1667,4.1667 0 0 0 698.8047,510.2539" fill="#A9A9A9" style="stroke:#033C73;stroke-width:1.0417;"/><path d="M941.5131,506.0872 L941.5131,514.4206 A2.0833,2.0833 0 0 0 943.5964,516.5039 L951.9297,516.5039 L941.5131,506.0872" fill="#A9A9A9" style="stroke:#033C73;stroke-width:1.0417;"/><text fill="#FFFFFF" font-family="Verdana" font-size="12.5" lengthAdjust="spacing" textLength="221.5149" x="710.2631" y="528.1067">redirect_uri=app.web.com/callback</text><text fill="#FFFFFF" font-family="Verdana" font-size="12.5" lengthAdjust="spacing" textLength="62.7136" x="710.2631" y="542.6575">username</text><text fill="#FFFFFF" font-family="Verdana" font-size="12.5" lengthAdjust="spacing" textLength="59.5642" x="710.2631" y="557.2083">password</text><text fill="#FFFFFF" font-family="Verdana" font-size="12.5" lengthAdjust="spacing" textLength="23.6938" x="710.2631" y="571.759">2FA</text><polygon fill="#2FA4E7" points="204.071,617.3828,193.6544,621.5495,204.071,625.7161,199.9044,621.5495" style="stroke:#2FA4E7;stroke-width:1.0417;"/><line style="stroke:#2FA4E7;stroke-width:3.125;stroke-dasharray:2.0,2.0;" x1="197.821" x2="682.1381" y1="621.5495" y2="621.5495"/><text fill="#1E90FF" font-family="Verdana" font-size="12.5" font-weight="bold" lengthAdjust="spacing" textLength="8.6975" x="215.5294" y="611.3098">8</text><text fill="#1E90FF" font-family="Verdana" font-size="12.5" lengthAdjust="spacing" textLength="214.0503" x="238.8102" y="611.3098">302 Found: app.web.com/callback</text><path d="M35.4167,599.707 L35.4167,625.7487 A4.1667,4.1667 0 0 0 39.5833,629.9154 L182.2917,629.9154 A4.1667,4.1667 0 0 0 186.4583,625.7487 L186.4583,605.957 L176.0417,595.5404 L39.5833,595.5404 A4.1667,4.1667 0 0 0 35.4167,599.707" fill="#EE82EE" style="stroke:#033C73;stroke-width:1.0417;"/><path d="M176.0417,595.5404 L176.0417,603.8737 A2.0833,2.0833 0 0 0 178.125,605.957 L186.4583,605.957 L176.0417,595.5404" fill="#EE82EE" style="stroke:#033C73;stroke-width:1.0417;"/><text fill="#FFFFFF" font-family="Verdana" font-size="12.5" lengthAdjust="spacing" textLength="119.696" x="46.875" y="617.5598">Authorization Code</text><polygon fill="#2FA4E7" points="465.4704,663.1836,475.887,667.3503,465.4704,671.5169,469.637,667.3503" style="stroke:#2FA4E7;stroke-width:1.0417;"/><line style="stroke:#2FA4E7;stroke-width:3.125;" x1="192.6127" x2="471.7204" y1="667.3503" y2="667.3503"/><text fill="#1E90FF" font-family="Verdana" font-size="12.5" font-weight="bold" lengthAdjust="spacing" textLength="8.6975" x="205.1127" y="657.1106">9</text><text fill="#1E90FF" font-family="Verdana" font-size="12.5" lengthAdjust="spacing" textLength="84.5886" x="228.3936" y="657.1106">GET /callback</text><polygon fill="#2FA4E7" points="204.071,702.7344,193.6544,706.901,204.071,711.0677,199.9044,706.901" style="stroke:#2FA4E7;stroke-width:1.0417;"/><line style="stroke:#2FA4E7;stroke-width:3.125;stroke-dasharray:2.0,2.0;" x1="197.821" x2="476.9287" y1="706.901" y2="706.901"/><text fill="#1E90FF" font-family="Verdana" font-size="12.5" font-weight="bold" lengthAdjust="spacing" textLength="17.395" x="215.5294" y="696.6614">10</text><text fill="#1E90FF" font-family="Verdana" font-size="12.5" lengthAdjust="spacing" textLength="45.8679" x="247.5077" y="696.6614">200 OK</text><path d="M52.2847,733.9844 L150.2279,733.9844 L150.2279,750.6185 L139.8112,761.0352 L48.1181,761.0352 L48.1181,738.151 A4.1667,4.1667 0 0 1 52.2847,733.9844" fill="#E9ECEF" style="stroke:#868E96;stroke-width:1.0417;"/><rect fill="none" height="278.8737" rx="4.1667" ry="4.1667" style="stroke:#2FA4E7;stroke-width:1.0417;" width="926.3682" x="48.1181" y="733.9844"/><text fill="#033C73" font-family="Verdana" font-size="12.5" font-weight="bold" lengthAdjust="spacing" textLength="44.8181" x="68.9514" y="751.8372">/token</text><polygon fill="#2FA4E7" points="670.6797,798.5026,681.0964,802.6693,670.6797,806.8359,674.8464,802.6693" style="stroke:#2FA4E7;stroke-width:1.0417;"/><line style="stroke:#2FA4E7;stroke-width:3.125;" x1="192.6127" x2="676.9297" y1="802.6693" y2="802.6693"/><text fill="#1E90FF" font-family="Verdana" font-size="12.5" font-weight="bold" lengthAdjust="spacing" textLength="17.395" x="205.1127" y="792.4296">11</text><text fill="#1E90FF" font-family="Verdana" font-size="12.5" lengthAdjust="spacing" textLength="76.532" x="237.0911" y="792.4296">POST /token</text><path d="M698.8047,780.8268 L698.8047,806.8685 A4.1667,4.1667 0 0 0 702.9714,811.0352 L845.6797,811.0352 A4.1667,4.1667 0 0 0 849.8464,806.8685 L849.8464,787.0768 L839.4297,776.6602 L702.9714,776.6602 A4.1667,4.1667 0 0 0 698.8047,780.8268" fill="#EE82EE" style="stroke:#033C73;stroke-width:1.0417;"/><path d="M839.4297,776.6602 L839.4297,784.9935 A2.0833,2.0833 0 0 0 841.5131,787.0768 L849.8464,787.0768 L839.4297,776.6602" fill="#EE82EE" style="stroke:#033C73;stroke-width:1.0417;"/><text fill="#FFFFFF" font-family="Verdana" font-size="12.5" lengthAdjust="spacing" textLength="119.696" x="710.2631" y="798.6796">Authorization Code</text><path d="M698.8047,826.6276 L698.8047,911.0026 A4.1667,4.1667 0 0 0 702.9714,915.1693 L947.7631,915.1693 A4.1667,4.1667 0 0 0 951.9297,911.0026 L951.9297,832.8776 L941.5131,822.4609 L702.9714,822.4609 A4.1667,4.1667 0 0 0 698.8047,826.6276" fill="#A9A9A9" style="stroke:#033C73;stroke-width:1.0417;"/><path d="M941.5131,822.4609 L941.5131,830.7943 A2.0833,2.0833 0 0 0 943.5964,832.8776 L951.9297,832.8776 L941.5131,822.4609" fill="#A9A9A9" style="stroke:#033C73;stroke-width:1.0417;"/><text fill="#FFFFFF" font-family="Verdana" font-size="12.5" lengthAdjust="spacing" textLength="51.9897" x="710.2631" y="844.4804">client_id</text><text fill="#FFFFFF" font-family="Verdana" font-size="12.5" lengthAdjust="spacing" textLength="79.3884" x="710.2631" y="859.0312">client_secret</text><text fill="#FFFFFF" font-family="Verdana" font-size="12.5" lengthAdjust="spacing" textLength="197.4304" x="710.2631" y="873.5819">grant_type=authorization_code</text><text fill="#FFFFFF" font-family="Verdana" font-size="12.5" lengthAdjust="spacing" textLength="221.5149" x="710.2631" y="888.1327">redirect_uri=app.web.com/callback</text><text fill="#FFFFFF" font-family="Verdana" font-size="12.5" font-weight="bold" lengthAdjust="spacing" textLength="99.4812" x="710.2631" y="902.6835">scope=openid</text><polygon fill="#2FA4E7" points="204.071,948.3073,193.6544,952.474,204.071,956.6406,199.9044,952.474" style="stroke:#2FA4E7;stroke-width:1.0417;"/><line style="stroke:#2FA4E7;stroke-width:3.125;stroke-dasharray:2.0,2.0;" x1="197.821" x2="682.1381" y1="952.474" y2="952.474"/><text fill="#1E90FF" font-family="Verdana" font-size="12.5" font-weight="bold" lengthAdjust="spacing" textLength="17.395" x="215.5294" y="942.2343">12</text><text fill="#1E90FF" font-family="Verdana" font-size="12.5" lengthAdjust="spacing" textLength="214.0503" x="247.5077" y="942.2343">302 Found: app.web.com/callback</text><path d="M69.9931,930.6315 L69.9931,956.6732 A4.1667,4.1667 0 0 0 74.1597,960.8398 L182.4931,960.8398 A4.1667,4.1667 0 0 0 186.6597,956.6732 L186.6597,936.8815 L176.2431,926.4648 L74.1597,926.4648 A4.1667,4.1667 0 0 0 69.9931,930.6315" fill="#FF0000" style="stroke:#033C73;stroke-width:1.0417;"/><path d="M176.2431,926.4648 L176.2431,934.7982 A2.0833,2.0833 0 0 0 178.3264,936.8815 L186.6597,936.8815 L176.2431,926.4648" fill="#FF0000" style="stroke:#033C73;stroke-width:1.0417;"/><text fill="#FFFFFF" font-family="Verdana" font-size="12.5" lengthAdjust="spacing" textLength="85.1196" x="81.4514" y="948.4843">Access Token</text><path d="M99.6928,976.4323 L99.6928,1002.474 A4.1667,4.1667 0 0 0 103.8595,1006.6406 L183.0261,1006.6406 A4.1667,4.1667 0 0 0 187.1928,1002.474 L187.1928,982.6823 L176.7761,972.2656 L103.8595,972.2656 A4.1667,4.1667 0 0 0 99.6928,976.4323" fill="#32CD32" style="stroke:#033C73;stroke-width:1.0417;"/><path d="M176.7761,972.2656 L176.7761,980.599 A2.0833,2.0833 0 0 0 178.8595,982.6823 L187.1928,982.6823 L176.7761,972.2656" fill="#32CD32" style="stroke:#033C73;stroke-width:1.0417;"/><text fill="#FFFFFF" font-family="Verdana" font-size="12.5" lengthAdjust="spacing" textLength="55.4199" x="111.1511" y="994.2851">ID Token</text><text fill="#2FA4E7" font-family="Verdana" font-size="10.4167" lengthAdjust="spacing" textLength="67.1641" x="569.5104" y="1109.9945">01-05-20225</text><!--SRC=[dPJ1Rfj048RlFCKakLboJAXoYPHARbn7LQkwKgDUqNePyCgmWsQNkixJTuo1G8pRfWSaTkUVdzblPhdm6omGD7ALex9JgdnkB0ON9QkiKE2Hdi5pXO4tFaTObMW_BU21h4NjOLxAEZ6_O7uJf4GU6SARQNWxZS8ekWtSrjXIiIfWpaox9Ld_G3anB2Z9a3_aulkY-IhvBvBTndWC0Wbveqsfh8VB7QvXBKOE-HAKQz_XAarng5HbUItgQqr5hPJrcAhocw5CDaPqZ8ugrZZGjfj7VI2ffBGtFvL785klRLMiaOCWOwfAc1tSYSqp1j2LFdrVrtO7Zn-VO9PJPgn46Nt55jw54IofiiaTz4izQtIeld7gIm2ie0KssSR3rKBnzf5nNmS0T6xG-jWaxPeIZFL6vJdQ34StumB5l4rWJ0pBCCGLc_iUzvaM-LhfRQERJ8HOITPXxFSbtXyy9vCkw3J9fZpM9DssyqApVfSngq_nTpWrmpWbBixJ6MWQloWCOVLvDEVRwllhf36cQlz699LynggYfLmgvtR4BTXeEV-7eu-xryNbc4fjFmpbw6kdUJCKoXkoSecJWsVFVdmeUxP3L8VCUhIx2VUqHVi7X6ryG8_IvjwzedWocSUrGytDUK0-BnVqE4-gVxXO7m_tjW4TcS6EpadFUrpFaFsVrWrx9wKV6wSrEWTF3Rv-KIzguTZz4B-O0kMIDx3bZtsIsZNlDm00]--></g></svg>