<svg xmlns="http://www.w3.org/2000/svg" xmlns:xlink="http://www.w3.org/1999/xlink" contentStyleType="text/css" data-diagram-type="SEQUENCE" height="850px" preserveAspectRatio="none" style="width:926px;height:850px;" version="1.1" viewBox="0 0 926 850" width="926.0417px" zoomAndPan="magnify"><title>OpenID Connect Appendix A2</title><defs/><g><rect fill="none" height="47.168" rx="4.1667" ry="4.1667" style="stroke:#BABDBF;stroke-width:1.0417;" width="368.0298" x="322.6634" y="20.8333"/><text fill="#2FA4E7" font-family="Verdana" font-size="20.8333" font-weight="bold" lengthAdjust="spacing" textLength="345.1131" x="334.1217" y="51.6296">OpenID Connect Appendix A2</text><g><title>web browser</title><rect fill="#000000" fill-opacity="0.00000" height="620.1823" width="8.3333" x="124.6908" y="120.0521"/><line style="stroke:#BABDBF;stroke-width:1.0417;stroke-dasharray:5.0,5.0;" x1="128.3366" x2="128.3366" y1="120.0521" y2="740.2344"/></g><g><title>app.web.com</title><rect fill="#000000" fill-opacity="0.00000" height="620.1823" width="8.3333" x="415.2568" y="120.0521"/><line style="stroke:#BABDBF;stroke-width:1.0417;stroke-dasharray:5.0,5.0;" x1="418.9026" x2="418.9026" y1="120.0521" y2="740.2344"/></g><g><title/><rect fill="none" height="39.5508" style="stroke:#BABDBF;stroke-width:1.0417;" width="10.4167" x="413.6943" y="201.237"/></g><g><title/><rect fill="none" height="39.5508" style="stroke:#BABDBF;stroke-width:1.0417;" width="10.4167" x="413.6943" y="667.3503"/></g><g><title>auth.web.com</title><rect fill="#000000" fill-opacity="0.00000" height="620.1823" width="8.3333" x="620.4661" y="120.0521"/><line style="stroke:#BABDBF;stroke-width:1.0417;stroke-dasharray:5.0,5.0;" x1="624.1119" x2="624.1119" y1="120.0521" y2="740.2344"/></g><g><title/><rect fill="none" height="133.1055" style="stroke:#BABDBF;stroke-width:1.0417;" width="10.4167" x="618.9036" y="280.3385"/></g><g><title/><rect fill="none" height="39.5508" style="stroke:#BABDBF;stroke-width:1.0417;" width="10.4167" x="618.9036" y="452.9948"/></g><g><title/><rect fill="none" height="89.4531" style="stroke:#BABDBF;stroke-width:1.0417;" width="10.4167" x="618.9036" y="532.0964"/></g><g><title>resource.web.com</title><rect fill="#000000" fill-opacity="0.00000" height="620.1823" width="8.3333" x="841.2181" y="120.0521"/><line style="stroke:#BABDBF;stroke-width:1.0417;stroke-dasharray:5.0,5.0;" x1="844.8639" x2="844.8639" y1="120.0521" y2="740.2344"/></g><rect fill="#FFFFEE" height="39.5508" rx="4.1667" ry="4.1667" style="stroke:#2FA4E7;stroke-width:1.0417;" width="105.1086" x="75.7823" y="79.4596"/><text fill="#2FA4E7" font-family="Verdana" font-size="12.5" lengthAdjust="spacing" textLength="80.1086" x="88.2823" y="103.5624">web browser</text><rect fill="#FFFFEE" height="39.5508" rx="4.1667" ry="4.1667" style="stroke:#2FA4E7;stroke-width:1.0417;" width="109.021" x="364.3921" y="79.4596"/><text fill="#2FA4E7" font-family="Verdana" font-size="12.5" lengthAdjust="spacing" textLength="84.021" x="376.8921" y="103.5624">app.web.com</text><rect fill="#FFFFEE" height="39.5508" rx="4.1667" ry="4.1667" style="stroke:#2FA4E7;stroke-width:1.0417;" width="113.8977" x="567.1631" y="79.4596"/><text fill="#2FA4E7" font-family="Verdana" font-size="12.5" lengthAdjust="spacing" textLength="88.8977" x="579.6631" y="103.5624">auth.web.com</text><rect fill="#FFFFEE" height="39.5508" rx="4.1667" ry="4.1667" style="stroke:#2FA4E7;stroke-width:1.0417;" width="140.1062" x="774.8108" y="79.4596"/><text fill="#2FA4E7" font-family="Verdana" font-size="12.5" lengthAdjust="spacing" textLength="115.1062" x="787.3108" y="103.5624">resource.web.com</text><rect fill="#FFFFEE" height="39.5508" rx="4.1667" ry="4.1667" style="stroke:#2FA4E7;stroke-width:1.0417;" width="105.1086" x="75.7823" y="740.2344"/><text fill="#2FA4E7" font-family="Verdana" font-size="12.5" lengthAdjust="spacing" textLength="80.1086" x="88.2823" y="764.3372">web browser</text><rect fill="#FFFFEE" height="39.5508" rx="4.1667" ry="4.1667" style="stroke:#2FA4E7;stroke-width:1.0417;" width="109.021" x="364.3921" y="740.2344"/><text fill="#2FA4E7" font-family="Verdana" font-size="12.5" lengthAdjust="spacing" textLength="84.021" x="376.8921" y="764.3372">app.web.com</text><rect fill="#FFFFEE" height="39.5508" rx="4.1667" ry="4.1667" style="stroke:#2FA4E7;stroke-width:1.0417;" width="113.8977" x="567.1631" y="740.2344"/><text fill="#2FA4E7" font-family="Verdana" font-size="12.5" lengthAdjust="spacing" textLength="88.8977" x="579.6631" y="764.3372">auth.web.com</text><rect fill="#FFFFEE" height="39.5508" rx="4.1667" ry="4.1667" style="stroke:#2FA4E7;stroke-width:1.0417;" width="140.1062" x="774.8108" y="740.2344"/><text fill="#2FA4E7" font-family="Verdana" font-size="12.5" lengthAdjust="spacing" textLength="115.1062" x="787.3108" y="764.3372">resource.web.com</text><path d="M17.7083,132.5521 L142.3971,132.5521 L142.3971,149.1862 L131.9804,159.6029 L13.5417,159.6029 L13.5417,136.7188 A4.1667,4.1667 0 0 1 17.7083,132.5521" fill="#E9ECEF" style="stroke:#868E96;stroke-width:1.0417;"/><rect fill="none" height="582.6823" rx="4.1667" ry="4.1667" style="stroke:#2FA4E7;stroke-width:1.0417;" width="896.6685" x="13.5417" y="132.5521"/><text fill="#033C73" font-family="Verdana" font-size="12.5" font-weight="bold" lengthAdjust="spacing" textLength="71.5637" x="34.375" y="150.4049">/authorize</text><polygon fill="#2FA4E7" points="401.1943,197.0703,411.6109,201.237,401.1943,205.4036,405.3609,201.237" style="stroke:#2FA4E7;stroke-width:1.0417;"/><line style="stroke:#2FA4E7;stroke-width:3.125;" x1="128.3366" x2="407.4443" y1="201.237" y2="201.237"/><text fill="#1E90FF" font-family="Verdana" font-size="12.5" font-weight="bold" lengthAdjust="spacing" textLength="8.6975" x="140.8366" y="190.9973">1</text><text fill="#1E90FF" font-family="Verdana" font-size="12.5" lengthAdjust="spacing" textLength="63.855" x="164.1174" y="190.9973">GET /login</text><polygon fill="#2FA4E7" points="139.7949,236.6211,129.3783,240.7878,139.7949,244.9544,135.6283,240.7878" style="stroke:#2FA4E7;stroke-width:1.0417;"/><line style="stroke:#2FA4E7;stroke-width:3.125;stroke-dasharray:2.0,2.0;" x1="133.5449" x2="412.6526" y1="240.7878" y2="240.7878"/><text fill="#1E90FF" font-family="Verdana" font-size="12.5" font-weight="bold" lengthAdjust="spacing" textLength="8.6975" x="151.2533" y="230.5481">2</text><text fill="#1E90FF" font-family="Verdana" font-size="12.5" lengthAdjust="spacing" textLength="226.6602" x="174.5341" y="230.5481">302 Found: auth.web.com/authorize</text><polygon fill="#2FA4E7" points="606.4036,276.1719,616.8203,280.3385,606.4036,284.5052,610.5703,280.3385" style="stroke:#2FA4E7;stroke-width:1.0417;"/><line style="stroke:#2FA4E7;stroke-width:3.125;" x1="128.3366" x2="612.6536" y1="280.3385" y2="280.3385"/><text fill="#1E90FF" font-family="Verdana" font-size="12.5" font-weight="bold" lengthAdjust="spacing" textLength="8.6975" x="140.8366" y="270.0989">3</text><text fill="#1E90FF" font-family="Verdana" font-size="12.5" lengthAdjust="spacing" textLength="92.3218" x="164.1174" y="270.0989">GET /authorize</text><path d="M634.5286,258.4961 L634.5286,372.0378 A4.1667,4.1667 0 0 0 638.6953,376.2044 L883.4869,376.2044 A4.1667,4.1667 0 0 0 887.6536,372.0378 L887.6536,264.7461 L877.2369,254.3294 L638.6953,254.3294 A4.1667,4.1667 0 0 0 634.5286,258.4961" fill="#A9A9A9" style="stroke:#033C73;stroke-width:1.0417;"/><path d="M877.2369,254.3294 L877.2369,262.6628 A2.0833,2.0833 0 0 0 879.3203,264.7461 L887.6536,264.7461 L877.2369,254.3294" fill="#A9A9A9" style="stroke:#033C73;stroke-width:1.0417;"/><text fill="#FFFFFF" font-family="Verdana" font-size="12.5" lengthAdjust="spacing" textLength="51.9897" x="645.9869" y="276.3489">client_id</text><text fill="#FFFFFF" font-family="Verdana" font-size="12.5" lengthAdjust="spacing" textLength="97.0337" x="645.9869" y="290.8997">code_challenge</text><text fill="#FFFFFF" font-family="Verdana" font-size="12.5" lengthAdjust="spacing" textLength="151.5564" x="645.9869" y="305.4504">code_challenge_method</text><text fill="#FFFFFF" font-family="Verdana" font-size="12.5" lengthAdjust="spacing" textLength="221.5149" x="645.9869" y="320.0012">redirect_uri=app.web.com/callback</text><text fill="#FFFFFF" font-family="Verdana" font-size="12.5" font-weight="bold" lengthAdjust="spacing" textLength="172.4426" x="645.9869" y="334.552">response_type=id_token</text><text fill="#FFFFFF" font-family="Verdana" font-size="12.5" font-weight="bold" lengthAdjust="spacing" textLength="99.4812" x="645.9869" y="349.1028">scope=openid</text><text fill="#FFFFFF" font-family="Verdana" font-size="12.5" lengthAdjust="spacing" textLength="31.665" x="645.9869" y="363.6536">state</text><polygon fill="#2FA4E7" points="139.7949,409.2773,129.3783,413.444,139.7949,417.6107,135.6283,413.444" style="stroke:#2FA4E7;stroke-width:1.0417;"/><line style="stroke:#2FA4E7;stroke-width:3.125;stroke-dasharray:2.0,2.0;" x1="133.5449" x2="617.8619" y1="413.444" y2="413.444"/><text fill="#1E90FF" font-family="Verdana" font-size="12.5" font-weight="bold" lengthAdjust="spacing" textLength="8.6975" x="151.2533" y="403.2043">4</text><text fill="#1E90FF" font-family="Verdana" font-size="12.5" lengthAdjust="spacing" textLength="233.8074" x="174.5341" y="403.2043">302 Found: auth.web.com/login_form</text><polygon fill="#2FA4E7" points="606.4036,448.8281,616.8203,452.9948,606.4036,457.1615,610.5703,452.9948" style="stroke:#2FA4E7;stroke-width:1.0417;"/><line style="stroke:#2FA4E7;stroke-width:3.125;" x1="128.3366" x2="612.6536" y1="452.9948" y2="452.9948"/><text fill="#1E90FF" font-family="Verdana" font-size="12.5" font-weight="bold" lengthAdjust="spacing" textLength="8.6975" x="140.8366" y="442.7551">5</text><text fill="#1E90FF" font-family="Verdana" font-size="12.5" lengthAdjust="spacing" textLength="99.469" x="164.1174" y="442.7551">GET /login_form</text><polygon fill="#2FA4E7" points="139.7949,488.3789,129.3783,492.5456,139.7949,496.7122,135.6283,492.5456" style="stroke:#2FA4E7;stroke-width:1.0417;"/><line style="stroke:#2FA4E7;stroke-width:3.125;stroke-dasharray:2.0,2.0;" x1="133.5449" x2="617.8619" y1="492.5456" y2="492.5456"/><text fill="#1E90FF" font-family="Verdana" font-size="12.5" font-weight="bold" lengthAdjust="spacing" textLength="8.6975" x="151.2533" y="482.3059">6</text><text fill="#1E90FF" font-family="Verdana" font-size="12.5" lengthAdjust="spacing" textLength="45.8679" x="174.5341" y="482.3059">200 OK</text><polygon fill="#2FA4E7" points="606.4036,527.9297,616.8203,532.0964,606.4036,536.263,610.5703,532.0964" style="stroke:#2FA4E7;stroke-width:1.0417;"/><line style="stroke:#2FA4E7;stroke-width:3.125;" x1="128.3366" x2="612.6536" y1="532.0964" y2="532.0964"/><text fill="#1E90FF" font-family="Verdana" font-size="12.5" font-weight="bold" lengthAdjust="spacing" textLength="8.6975" x="140.8366" y="521.8567">7</text><text fill="#1E90FF" font-family="Verdana" font-size="12.5" lengthAdjust="spacing" textLength="107.196" x="164.1174" y="521.8567">POST /login_form</text><path d="M634.5286,510.2539 L634.5286,580.0456 A4.1667,4.1667 0 0 0 638.6953,584.2122 L883.4869,584.2122 A4.1667,4.1667 0 0 0 887.6536,580.0456 L887.6536,516.5039 L877.2369,506.0872 L638.6953,506.0872 A4.1667,4.1667 0 0 0 634.5286,510.2539" fill="#A9A9A9" style="stroke:#033C73;stroke-width:1.0417;"/><path d="M877.2369,506.0872 L877.2369,514.4206 A2.0833,2.0833 0 0 0 879.3203,516.5039 L887.6536,516.5039 L877.2369,506.0872" fill="#A9A9A9" style="stroke:#033C73;stroke-width:1.0417;"/><text fill="#FFFFFF" font-family="Verdana" font-size="12.5" lengthAdjust="spacing" textLength="221.5149" x="645.9869" y="528.1067">redirect_uri=app.web.com/callback</text><text fill="#FFFFFF" font-family="Verdana" font-size="12.5" lengthAdjust="spacing" textLength="62.7136" x="645.9869" y="542.6575">username</text><text fill="#FFFFFF" font-family="Verdana" font-size="12.5" lengthAdjust="spacing" textLength="59.5642" x="645.9869" y="557.2083">password</text><text fill="#FFFFFF" font-family="Verdana" font-size="12.5" lengthAdjust="spacing" textLength="23.6938" x="645.9869" y="571.759">2FA</text><polygon fill="#2FA4E7" points="139.7949,617.3828,129.3783,621.5495,139.7949,625.7161,135.6283,621.5495" style="stroke:#2FA4E7;stroke-width:1.0417;"/><line style="stroke:#2FA4E7;stroke-width:3.125;stroke-dasharray:2.0,2.0;" x1="133.5449" x2="617.8619" y1="621.5495" y2="621.5495"/><text fill="#1E90FF" font-family="Verdana" font-size="12.5" font-weight="bold" lengthAdjust="spacing" textLength="8.6975" x="151.2533" y="611.3098">8</text><text fill="#1E90FF" font-family="Verdana" font-size="12.5" lengthAdjust="spacing" textLength="214.0503" x="174.5341" y="611.3098">302 Found: app.web.com/callback</text><path d="M35.4167,599.707 L35.4167,625.7487 A4.1667,4.1667 0 0 0 39.5833,629.9154 L118.75,629.9154 A4.1667,4.1667 0 0 0 122.9167,625.7487 L122.9167,605.957 L112.5,595.5404 L39.5833,595.5404 A4.1667,4.1667 0 0 0 35.4167,599.707" fill="#32CD32" style="stroke:#033C73;stroke-width:1.0417;"/><path d="M112.5,595.5404 L112.5,603.8737 A2.0833,2.0833 0 0 0 114.5833,605.957 L122.9167,605.957 L112.5,595.5404" fill="#32CD32" style="stroke:#033C73;stroke-width:1.0417;"/><text fill="#FFFFFF" font-family="Verdana" font-size="12.5" lengthAdjust="spacing" textLength="55.4199" x="46.875" y="617.5598">ID Token</text><polygon fill="#2FA4E7" points="401.1943,663.1836,411.6109,667.3503,401.1943,671.5169,405.3609,667.3503" style="stroke:#2FA4E7;stroke-width:1.0417;"/><line style="stroke:#2FA4E7;stroke-width:3.125;" x1="128.3366" x2="407.4443" y1="667.3503" y2="667.3503"/><text fill="#1E90FF" font-family="Verdana" font-size="12.5" font-weight="bold" lengthAdjust="spacing" textLength="8.6975" x="140.8366" y="657.1106">9</text><text fill="#1E90FF" font-family="Verdana" font-size="12.5" lengthAdjust="spacing" textLength="84.5886" x="164.1174" y="657.1106">GET /callback</text><polygon fill="#2FA4E7" points="139.7949,702.7344,129.3783,706.901,139.7949,711.0677,135.6283,706.901" style="stroke:#2FA4E7;stroke-width:1.0417;"/><line style="stroke:#2FA4E7;stroke-width:3.125;stroke-dasharray:2.0,2.0;" x1="133.5449" x2="412.6526" y1="706.901" y2="706.901"/><text fill="#1E90FF" font-family="Verdana" font-size="12.5" font-weight="bold" lengthAdjust="spacing" textLength="17.395" x="151.2533" y="696.6614">10</text><text fill="#1E90FF" font-family="Verdana" font-size="12.5" lengthAdjust="spacing" textLength="45.8679" x="183.2316" y="696.6614">200 OK</text><text fill="#2FA4E7" font-family="Verdana" font-size="10.4167" lengthAdjust="spacing" textLength="67.1641" x="473.0962" y="812.3708">01-05-20225</text><!--SRC=[bPF1Rjim38RlUWgslGL8utdefK07PCrI31kM0UlTK6J64MAJ0YqjIvz-Z5UdSU5Ysy60I7xyJVscB-8M6mI7acgqDEKKQqzeBeBOgh4GaPyWIa8JVQmHLW7fymBkcGXTX7dGkFI_O9wR3ND4WUpTDBkPvbcUtvXsvobOiGtCHNY_P8htNBF0WiiAvMEjkY_CD-r_GVPR7z4OBKNlVB0KuNAFQrYhK8jo2RRjpt2rsU2Gj25SAttjkEb8ZSUe5BT3J1CZd63BIHmEs3xvXpVQojP5_zD61AOkfjIiKOofX5E0sL6TnJ-XWTFeqm_TRBVmyEaHPZLNdhGg69CGlCzoM7AYyXREHtrJw3Zziz8v0a1gBOYljX6k5bPs3uA7hW3WQeyK2r_sCPTOkAsjQwGAHvD5WohUDmYMNdGPYYJ-xiptcLDyRTtkcPjCrB70r68H3m7lV5b4tY5D9YUWTQm5VSYNftGRrT7khAlMtUJl1dK-5XkMvcs71iopNfvbiFeoslDzzUDrqvYlzl2VjYHz3TccTphOjjspzERco_a_N7rSlHkknetEzjKtgDySgHFJ7_ZnwBmPw8vlv9dUq2DpREqM-pS0]--></g></svg>