<svg xmlns="http://www.w3.org/2000/svg" xmlns:xlink="http://www.w3.org/1999/xlink" contentStyleType="text/css" data-diagram-type="SEQUENCE" height="895.8333px" preserveAspectRatio="none" style="width:955px;height:895px;" version="1.1" viewBox="0 0 955 895" width="955.2083px" zoomAndPan="magnify"><title>OpenID Connect Appendix A3</title><defs/><g><rect fill="none" height="47.168" rx="4.1667" ry="4.1667" style="stroke:#BABDBF;stroke-width:1.0417;" width="368.0298" x="367.2129" y="20.8333"/><text fill="#2FA4E7" font-family="Verdana" font-size="20.8333" font-weight="bold" lengthAdjust="spacing" textLength="345.1131" x="378.6713" y="51.6296">OpenID Connect Appendix A3</text><g><title>web browser</title><rect fill="#000000" fill-opacity="0.00000" height="665.9831" width="8.3333" x="154.3905" y="120.0521"/><line style="stroke:#BABDBF;stroke-width:1.0417;stroke-dasharray:5.0,5.0;" x1="158.0363" x2="158.0363" y1="120.0521" y2="786.0352"/></g><g><title>app.web.com</title><rect fill="#000000" fill-opacity="0.00000" height="665.9831" width="8.3333" x="444.9565" y="120.0521"/><line style="stroke:#BABDBF;stroke-width:1.0417;stroke-dasharray:5.0,5.0;" x1="448.6023" x2="448.6023" y1="120.0521" y2="786.0352"/></g><g><title/><rect fill="none" height="39.5508" style="stroke:#BABDBF;stroke-width:1.0417;" width="10.4167" x="443.394" y="201.237"/></g><g><title/><rect fill="none" height="39.5508" style="stroke:#BABDBF;stroke-width:1.0417;" width="10.4167" x="443.394" y="713.151"/></g><g><title>auth.web.com</title><rect fill="#000000" fill-opacity="0.00000" height="665.9831" width="8.3333" x="650.1658" y="120.0521"/><line style="stroke:#BABDBF;stroke-width:1.0417;stroke-dasharray:5.0,5.0;" x1="653.8116" x2="653.8116" y1="120.0521" y2="786.0352"/></g><g><title/><rect fill="none" height="133.1055" style="stroke:#BABDBF;stroke-width:1.0417;" width="10.4167" x="648.6033" y="280.3385"/></g><g><title/><rect fill="none" height="39.5508" style="stroke:#BABDBF;stroke-width:1.0417;" width="10.4167" x="648.6033" y="452.9948"/></g><g><title/><rect fill="none" height="89.4531" style="stroke:#BABDBF;stroke-width:1.0417;" width="10.4167" x="648.6033" y="532.0964"/></g><g><title>resource.web.com</title><rect fill="#000000" fill-opacity="0.00000" height="665.9831" width="8.3333" x="870.9178" y="120.0521"/><line style="stroke:#BABDBF;stroke-width:1.0417;stroke-dasharray:5.0,5.0;" x1="874.5636" x2="874.5636" y1="120.0521" y2="786.0352"/></g><rect fill="#FFFFEE" height="39.5508" rx="4.1667" ry="4.1667" style="stroke:#2FA4E7;stroke-width:1.0417;" width="105.1086" x="105.482" y="79.4596"/><text fill="#2FA4E7" font-family="Verdana" font-size="12.5" lengthAdjust="spacing" textLength="80.1086" x="117.982" y="103.5624">web browser</text><rect fill="#FFFFEE" height="39.5508" rx="4.1667" ry="4.1667" style="stroke:#2FA4E7;stroke-width:1.0417;" width="109.021" x="394.0918" y="79.4596"/><text fill="#2FA4E7" font-family="Verdana" font-size="12.5" lengthAdjust="spacing" textLength="84.021" x="406.5918" y="103.5624">app.web.com</text><rect fill="#FFFFEE" height="39.5508" rx="4.1667" ry="4.1667" style="stroke:#2FA4E7;stroke-width:1.0417;" width="113.8977" x="596.8628" y="79.4596"/><text fill="#2FA4E7" font-family="Verdana" font-size="12.5" lengthAdjust="spacing" textLength="88.8977" x="609.3628" y="103.5624">auth.web.com</text><rect fill="#FFFFEE" height="39.5508" rx="4.1667" ry="4.1667" style="stroke:#2FA4E7;stroke-width:1.0417;" width="140.1062" x="804.5105" y="79.4596"/><text fill="#2FA4E7" font-family="Verdana" font-size="12.5" lengthAdjust="spacing" textLength="115.1062" x="817.0105" y="103.5624">resource.web.com</text><rect fill="#FFFFEE" height="39.5508" rx="4.1667" ry="4.1667" style="stroke:#2FA4E7;stroke-width:1.0417;" width="105.1086" x="105.482" y="786.0352"/><text fill="#2FA4E7" font-family="Verdana" font-size="12.5" lengthAdjust="spacing" textLength="80.1086" x="117.982" y="810.1379">web browser</text><rect fill="#FFFFEE" height="39.5508" rx="4.1667" ry="4.1667" style="stroke:#2FA4E7;stroke-width:1.0417;" width="109.021" x="394.0918" y="786.0352"/><text fill="#2FA4E7" font-family="Verdana" font-size="12.5" lengthAdjust="spacing" textLength="84.021" x="406.5918" y="810.1379">app.web.com</text><rect fill="#FFFFEE" height="39.5508" rx="4.1667" ry="4.1667" style="stroke:#2FA4E7;stroke-width:1.0417;" width="113.8977" x="596.8628" y="786.0352"/><text fill="#2FA4E7" font-family="Verdana" font-size="12.5" lengthAdjust="spacing" textLength="88.8977" x="609.3628" y="810.1379">auth.web.com</text><rect fill="#FFFFEE" height="39.5508" rx="4.1667" ry="4.1667" style="stroke:#2FA4E7;stroke-width:1.0417;" width="140.1062" x="804.5105" y="786.0352"/><text fill="#2FA4E7" font-family="Verdana" font-size="12.5" lengthAdjust="spacing" textLength="115.1062" x="817.0105" y="810.1379">resource.web.com</text><path d="M17.7083,132.5521 L142.3971,132.5521 L142.3971,149.1862 L131.9804,159.6029 L13.5417,159.6029 L13.5417,136.7188 A4.1667,4.1667 0 0 1 17.7083,132.5521" fill="#E9ECEF" style="stroke:#868E96;stroke-width:1.0417;"/><rect fill="none" height="628.4831" rx="4.1667" ry="4.1667" style="stroke:#2FA4E7;stroke-width:1.0417;" width="926.3682" x="13.5417" y="132.5521"/><text fill="#033C73" font-family="Verdana" font-size="12.5" font-weight="bold" lengthAdjust="spacing" textLength="71.5637" x="34.375" y="150.4049">/authorize</text><polygon fill="#2FA4E7" points="430.894,197.0703,441.3106,201.237,430.894,205.4036,435.0606,201.237" style="stroke:#2FA4E7;stroke-width:1.0417;"/><line style="stroke:#2FA4E7;stroke-width:3.125;" x1="158.0363" x2="437.144" y1="201.237" y2="201.237"/><text fill="#1E90FF" font-family="Verdana" font-size="12.5" font-weight="bold" lengthAdjust="spacing" textLength="8.6975" x="170.5363" y="190.9973">1</text><text fill="#1E90FF" font-family="Verdana" font-size="12.5" lengthAdjust="spacing" textLength="63.855" x="193.8171" y="190.9973">GET /login</text><polygon fill="#2FA4E7" points="169.4946,236.6211,159.078,240.7878,169.4946,244.9544,165.328,240.7878" style="stroke:#2FA4E7;stroke-width:1.0417;"/><line style="stroke:#2FA4E7;stroke-width:3.125;stroke-dasharray:2.0,2.0;" x1="163.2446" x2="442.3523" y1="240.7878" y2="240.7878"/><text fill="#1E90FF" font-family="Verdana" font-size="12.5" font-weight="bold" lengthAdjust="spacing" textLength="8.6975" x="180.953" y="230.5481">2</text><text fill="#1E90FF" font-family="Verdana" font-size="12.5" lengthAdjust="spacing" textLength="226.6602" x="204.2338" y="230.5481">302 Found: auth.web.com/authorize</text><polygon fill="#2FA4E7" points="636.1033,276.1719,646.52,280.3385,636.1033,284.5052,640.27,280.3385" style="stroke:#2FA4E7;stroke-width:1.0417;"/><line style="stroke:#2FA4E7;stroke-width:3.125;" x1="158.0363" x2="642.3533" y1="280.3385" y2="280.3385"/><text fill="#1E90FF" font-family="Verdana" font-size="12.5" font-weight="bold" lengthAdjust="spacing" textLength="8.6975" x="170.5363" y="270.0989">3</text><text fill="#1E90FF" font-family="Verdana" font-size="12.5" lengthAdjust="spacing" textLength="92.3218" x="193.8171" y="270.0989">GET /authorize</text><path d="M664.2283,258.4961 L664.2283,372.0378 A4.1667,4.1667 0 0 0 668.395,376.2044 L913.1866,376.2044 A4.1667,4.1667 0 0 0 917.3533,372.0378 L917.3533,264.7461 L906.9366,254.3294 L668.395,254.3294 A4.1667,4.1667 0 0 0 664.2283,258.4961" fill="#A9A9A9" style="stroke:#033C73;stroke-width:1.0417;"/><path d="M906.9366,254.3294 L906.9366,262.6628 A2.0833,2.0833 0 0 0 909.02,264.7461 L917.3533,264.7461 L906.9366,254.3294" fill="#A9A9A9" style="stroke:#033C73;stroke-width:1.0417;"/><text fill="#FFFFFF" font-family="Verdana" font-size="12.5" lengthAdjust="spacing" textLength="51.9897" x="675.6866" y="276.3489">client_id</text><text fill="#FFFFFF" font-family="Verdana" font-size="12.5" lengthAdjust="spacing" textLength="97.0337" x="675.6866" y="290.8997">code_challenge</text><text fill="#FFFFFF" font-family="Verdana" font-size="12.5" lengthAdjust="spacing" textLength="151.5564" x="675.6866" y="305.4504">code_challenge_method</text><text fill="#FFFFFF" font-family="Verdana" font-size="12.5" lengthAdjust="spacing" textLength="221.5149" x="675.6866" y="320.0012">redirect_uri=app.web.com/callback</text><text fill="#FFFFFF" font-family="Verdana" font-size="12.5" font-weight="bold" lengthAdjust="spacing" textLength="217.0471" x="675.6866" y="334.552">response_type=id_token token</text><text fill="#FFFFFF" font-family="Verdana" font-size="12.5" font-weight="bold" lengthAdjust="spacing" textLength="99.4812" x="675.6866" y="349.1028">scope=openid</text><text fill="#FFFFFF" font-family="Verdana" font-size="12.5" lengthAdjust="spacing" textLength="31.665" x="675.6866" y="363.6536">state</text><polygon fill="#2FA4E7" points="169.4946,409.2773,159.078,413.444,169.4946,417.6107,165.328,413.444" style="stroke:#2FA4E7;stroke-width:1.0417;"/><line style="stroke:#2FA4E7;stroke-width:3.125;stroke-dasharray:2.0,2.0;" x1="163.2446" x2="647.5616" y1="413.444" y2="413.444"/><text fill="#1E90FF" font-family="Verdana" font-size="12.5" font-weight="bold" lengthAdjust="spacing" textLength="8.6975" x="180.953" y="403.2043">4</text><text fill="#1E90FF" font-family="Verdana" font-size="12.5" lengthAdjust="spacing" textLength="233.8074" x="204.2338" y="403.2043">302 Found: auth.web.com/login_form</text><polygon fill="#2FA4E7" points="636.1033,448.8281,646.52,452.9948,636.1033,457.1615,640.27,452.9948" style="stroke:#2FA4E7;stroke-width:1.0417;"/><line style="stroke:#2FA4E7;stroke-width:3.125;" x1="158.0363" x2="642.3533" y1="452.9948" y2="452.9948"/><text fill="#1E90FF" font-family="Verdana" font-size="12.5" font-weight="bold" lengthAdjust="spacing" textLength="8.6975" x="170.5363" y="442.7551">5</text><text fill="#1E90FF" font-family="Verdana" font-size="12.5" lengthAdjust="spacing" textLength="99.469" x="193.8171" y="442.7551">GET /login_form</text><polygon fill="#2FA4E7" points="169.4946,488.3789,159.078,492.5456,169.4946,496.7122,165.328,492.5456" style="stroke:#2FA4E7;stroke-width:1.0417;"/><line style="stroke:#2FA4E7;stroke-width:3.125;stroke-dasharray:2.0,2.0;" x1="163.2446" x2="647.5616" y1="492.5456" y2="492.5456"/><text fill="#1E90FF" font-family="Verdana" font-size="12.5" font-weight="bold" lengthAdjust="spacing" textLength="8.6975" x="180.953" y="482.3059">6</text><text fill="#1E90FF" font-family="Verdana" font-size="12.5" lengthAdjust="spacing" textLength="45.8679" x="204.2338" y="482.3059">200 OK</text><polygon fill="#2FA4E7" points="636.1033,527.9297,646.52,532.0964,636.1033,536.263,640.27,532.0964" style="stroke:#2FA4E7;stroke-width:1.0417;"/><line style="stroke:#2FA4E7;stroke-width:3.125;" x1="158.0363" x2="642.3533" y1="532.0964" y2="532.0964"/><text fill="#1E90FF" font-family="Verdana" font-size="12.5" font-weight="bold" lengthAdjust="spacing" textLength="8.6975" x="170.5363" y="521.8567">7</text><text fill="#1E90FF" font-family="Verdana" font-size="12.5" lengthAdjust="spacing" textLength="107.196" x="193.8171" y="521.8567">POST /login_form</text><path d="M664.2283,510.2539 L664.2283,580.0456 A4.1667,4.1667 0 0 0 668.395,584.2122 L913.1866,584.2122 A4.1667,4.1667 0 0 0 917.3533,580.0456 L917.3533,516.5039 L906.9366,506.0872 L668.395,506.0872 A4.1667,4.1667 0 0 0 664.2283,510.2539" fill="#A9A9A9" style="stroke:#033C73;stroke-width:1.0417;"/><path d="M906.9366,506.0872 L906.9366,514.4206 A2.0833,2.0833 0 0 0 909.02,516.5039 L917.3533,516.5039 L906.9366,506.0872" fill="#A9A9A9" style="stroke:#033C73;stroke-width:1.0417;"/><text fill="#FFFFFF" font-family="Verdana" font-size="12.5" lengthAdjust="spacing" textLength="221.5149" x="675.6866" y="528.1067">redirect_uri=app.web.com/callback</text><text fill="#FFFFFF" font-family="Verdana" font-size="12.5" lengthAdjust="spacing" textLength="62.7136" x="675.6866" y="542.6575">username</text><text fill="#FFFFFF" font-family="Verdana" font-size="12.5" lengthAdjust="spacing" textLength="59.5642" x="675.6866" y="557.2083">password</text><text fill="#FFFFFF" font-family="Verdana" font-size="12.5" lengthAdjust="spacing" textLength="23.6938" x="675.6866" y="571.759">2FA</text><polygon fill="#2FA4E7" points="169.4946,617.3828,159.078,621.5495,169.4946,625.7161,165.328,621.5495" style="stroke:#2FA4E7;stroke-width:1.0417;"/><line style="stroke:#2FA4E7;stroke-width:3.125;stroke-dasharray:2.0,2.0;" x1="163.2446" x2="647.5616" y1="621.5495" y2="621.5495"/><text fill="#1E90FF" font-family="Verdana" font-size="12.5" font-weight="bold" lengthAdjust="spacing" textLength="8.6975" x="180.953" y="611.3098">8</text><text fill="#1E90FF" font-family="Verdana" font-size="12.5" lengthAdjust="spacing" textLength="214.0503" x="204.2338" y="611.3098">302 Found: app.web.com/callback</text><path d="M35.4167,599.707 L35.4167,625.7487 A4.1667,4.1667 0 0 0 39.5833,629.9154 L147.9167,629.9154 A4.1667,4.1667 0 0 0 152.0833,625.7487 L152.0833,605.957 L141.6667,595.5404 L39.5833,595.5404 A4.1667,4.1667 0 0 0 35.4167,599.707" fill="#FF0000" style="stroke:#033C73;stroke-width:1.0417;"/><path d="M141.6667,595.5404 L141.6667,603.8737 A2.0833,2.0833 0 0 0 143.75,605.957 L152.0833,605.957 L141.6667,595.5404" fill="#FF0000" style="stroke:#033C73;stroke-width:1.0417;"/><text fill="#FFFFFF" font-family="Verdana" font-size="12.5" lengthAdjust="spacing" textLength="85.1196" x="46.875" y="617.5598">Access Token</text><path d="M65.1164,645.5078 L65.1164,671.5495 A4.1667,4.1667 0 0 0 69.283,675.7161 L148.4497,675.7161 A4.1667,4.1667 0 0 0 152.6164,671.5495 L152.6164,651.7578 L142.1997,641.3411 L69.283,641.3411 A4.1667,4.1667 0 0 0 65.1164,645.5078" fill="#32CD32" style="stroke:#033C73;stroke-width:1.0417;"/><path d="M142.1997,641.3411 L142.1997,649.6745 A2.0833,2.0833 0 0 0 144.283,651.7578 L152.6164,651.7578 L142.1997,641.3411" fill="#32CD32" style="stroke:#033C73;stroke-width:1.0417;"/><text fill="#FFFFFF" font-family="Verdana" font-size="12.5" lengthAdjust="spacing" textLength="55.4199" x="76.5747" y="663.3606">ID Token</text><polygon fill="#2FA4E7" points="430.894,708.9844,441.3106,713.151,430.894,717.3177,435.0606,713.151" style="stroke:#2FA4E7;stroke-width:1.0417;"/><line style="stroke:#2FA4E7;stroke-width:3.125;" x1="158.0363" x2="437.144" y1="713.151" y2="713.151"/><text fill="#1E90FF" font-family="Verdana" font-size="12.5" font-weight="bold" lengthAdjust="spacing" textLength="8.6975" x="170.5363" y="702.9114">9</text><text fill="#1E90FF" font-family="Verdana" font-size="12.5" lengthAdjust="spacing" textLength="84.5886" x="193.8171" y="702.9114">GET /callback</text><polygon fill="#2FA4E7" points="169.4946,748.5352,159.078,752.7018,169.4946,756.8685,165.328,752.7018" style="stroke:#2FA4E7;stroke-width:1.0417;"/><line style="stroke:#2FA4E7;stroke-width:3.125;stroke-dasharray:2.0,2.0;" x1="163.2446" x2="442.3523" y1="752.7018" y2="752.7018"/><text fill="#1E90FF" font-family="Verdana" font-size="12.5" font-weight="bold" lengthAdjust="spacing" textLength="17.395" x="180.953" y="742.4622">10</text><text fill="#1E90FF" font-family="Verdana" font-size="12.5" lengthAdjust="spacing" textLength="45.8679" x="212.9313" y="742.4622">200 OK</text><text fill="#2FA4E7" font-family="Verdana" font-size="10.4167" lengthAdjust="spacing" textLength="67.1641" x="517.6458" y="858.1716">01-05-20225</text><!--SRC=[bPF1Rjim38RlVWgslGL8uxdefK07PCrI31kM0UlTK6JQ4MAB0YKlIvz-Z1OdTkTWsy66INxyJVsWhi866mIDtDQex9JQK1kBoPLZLJKA0j8h16un2IRK22k7zjC2diXQr07cJkB2_8JvNL8I1MH8tqtJ-scMPjbzuhV6EiMgWJapxPPamnFLnB2WeaB-K8lkcVag_MTajp41aqHAmMZZb0rmlSCrh4N88r-3yjqtt9Gb3adbtAtGjvgQI4eyHhLXCyGaCS8nUcfPuu3jah_vH5f9wM1-g810DiQsRTR8IL8njGvc1tLYyue9d4QVle-pFS3pnnUOrLGPArN6qBA5kpI39RMsU83-g1U53jCVbVe8W1LhWKsr2N2pKBnzPjp70e2k3TgGcwABgS1SRrHTewrmD9atAE9T0sDXM9OXRzayzdoVQS7NIc-Ft6GYZZco7lEmT_XeYZpG5Yt4zsHomhmcASjZJN5A-o2-nczPk7YUlziKtSnBukQoJmFcg9UbAQm-Z_PyMtr_spJchjh_fpcj_CQgflFRAUztn9t5sNB-3qSVLu_3rLZAR39Cb9bhZTx3oy7tfASweAayNwylfa5PcKW3oFt_e_NIGlS66Pfxw8pNuXS0]--></g></svg>