<svg xmlns="http://www.w3.org/2000/svg" xmlns:xlink="http://www.w3.org/1999/xlink" contentStyleType="text/css" data-diagram-type="SEQUENCE" height="1192.7083px" preserveAspectRatio="none" style="width:990px;height:1192px;" version="1.1" viewBox="0 0 990 1192" width="990.625px" zoomAndPan="magnify"><title>OpenID Connect Appendix A4</title><defs/><g><rect fill="none" height="47.168" rx="4.1667" ry="4.1667" style="stroke:#BABDBF;stroke-width:1.0417;" width="368.0298" x="419.0776" y="20.8333"/><text fill="#2FA4E7" font-family="Verdana" font-size="20.8333" font-weight="bold" lengthAdjust="spacing" textLength="345.1131" x="430.5359" y="51.6296">OpenID Connect Appendix A4</text><g><title>web browser</title><rect fill="#000000" fill-opacity="0.00000" height="963.6068" width="8.3333" x="188.9669" y="120.0521"/><line style="stroke:#BABDBF;stroke-width:1.0417;stroke-dasharray:5.0,5.0;" x1="192.6127" x2="192.6127" y1="120.0521" y2="1083.6589"/></g><g><title>app.web.com</title><rect fill="#000000" fill-opacity="0.00000" height="963.6068" width="8.3333" x="479.5329" y="120.0521"/><line style="stroke:#BABDBF;stroke-width:1.0417;stroke-dasharray:5.0,5.0;" x1="483.1787" x2="483.1787" y1="120.0521" y2="1083.6589"/></g><g><title/><rect fill="none" height="39.5508" style="stroke:#BABDBF;stroke-width:1.0417;" width="10.4167" x="477.9704" y="201.237"/></g><g><title/><rect fill="none" height="39.5508" style="stroke:#BABDBF;stroke-width:1.0417;" width="10.4167" x="477.9704" y="713.151"/></g><g><title>auth.web.com</title><rect fill="#000000" fill-opacity="0.00000" height="963.6068" width="8.3333" x="684.7422" y="120.0521"/><line style="stroke:#BABDBF;stroke-width:1.0417;stroke-dasharray:5.0,5.0;" x1="688.3881" x2="688.3881" y1="120.0521" y2="1083.6589"/></g><g><title/><rect fill="none" height="133.1055" style="stroke:#BABDBF;stroke-width:1.0417;" width="10.4167" x="683.1797" y="280.3385"/></g><g><title/><rect fill="none" height="39.5508" style="stroke:#BABDBF;stroke-width:1.0417;" width="10.4167" x="683.1797" y="452.9948"/></g><g><title/><rect fill="none" height="89.4531" style="stroke:#BABDBF;stroke-width:1.0417;" width="10.4167" x="683.1797" y="532.0964"/></g><g><title/><rect fill="none" height="149.8047" style="stroke:#BABDBF;stroke-width:1.0417;" width="10.4167" x="683.1797" y="848.4701"/></g><g><title>resource.web.com</title><rect fill="#000000" fill-opacity="0.00000" height="963.6068" width="8.3333" x="905.4942" y="120.0521"/><line style="stroke:#BABDBF;stroke-width:1.0417;stroke-dasharray:5.0,5.0;" x1="909.14" x2="909.14" y1="120.0521" y2="1083.6589"/></g><rect fill="#FFFFEE" height="39.5508" rx="4.1667" ry="4.1667" style="stroke:#2FA4E7;stroke-width:1.0417;" width="105.1086" x="140.0584" y="79.4596"/><text fill="#2FA4E7" font-family="Verdana" font-size="12.5" lengthAdjust="spacing" textLength="80.1086" x="152.5584" y="103.5624">web browser</text><rect fill="#FFFFEE" height="39.5508" rx="4.1667" ry="4.1667" style="stroke:#2FA4E7;stroke-width:1.0417;" width="109.021" x="428.6682" y="79.4596"/><text fill="#2FA4E7" font-family="Verdana" font-size="12.5" lengthAdjust="spacing" textLength="84.021" x="441.1682" y="103.5624">app.web.com</text><rect fill="#FFFFEE" height="39.5508" rx="4.1667" ry="4.1667" style="stroke:#2FA4E7;stroke-width:1.0417;" width="113.8977" x="631.4392" y="79.4596"/><text fill="#2FA4E7" font-family="Verdana" font-size="12.5" lengthAdjust="spacing" textLength="88.8977" x="643.9392" y="103.5624">auth.web.com</text><rect fill="#FFFFEE" height="39.5508" rx="4.1667" ry="4.1667" style="stroke:#2FA4E7;stroke-width:1.0417;" width="140.1062" x="839.0869" y="79.4596"/><text fill="#2FA4E7" font-family="Verdana" font-size="12.5" lengthAdjust="spacing" textLength="115.1062" x="851.5869" y="103.5624">resource.web.com</text><rect fill="#FFFFEE" height="39.5508" rx="4.1667" ry="4.1667" style="stroke:#2FA4E7;stroke-width:1.0417;" width="105.1086" x="140.0584" y="1083.6589"/><text fill="#2FA4E7" font-family="Verdana" font-size="12.5" lengthAdjust="spacing" textLength="80.1086" x="152.5584" y="1107.7616">web browser</text><rect fill="#FFFFEE" height="39.5508" rx="4.1667" ry="4.1667" style="stroke:#2FA4E7;stroke-width:1.0417;" width="109.021" x="428.6682" y="1083.6589"/><text fill="#2FA4E7" font-family="Verdana" font-size="12.5" lengthAdjust="spacing" textLength="84.021" x="441.1682" y="1107.7616">app.web.com</text><rect fill="#FFFFEE" height="39.5508" rx="4.1667" ry="4.1667" style="stroke:#2FA4E7;stroke-width:1.0417;" width="113.8977" x="631.4392" y="1083.6589"/><text fill="#2FA4E7" font-family="Verdana" font-size="12.5" lengthAdjust="spacing" textLength="88.8977" x="643.9392" y="1107.7616">auth.web.com</text><rect fill="#FFFFEE" height="39.5508" rx="4.1667" ry="4.1667" style="stroke:#2FA4E7;stroke-width:1.0417;" width="140.1062" x="839.0869" y="1083.6589"/><text fill="#2FA4E7" font-family="Verdana" font-size="12.5" lengthAdjust="spacing" textLength="115.1062" x="851.5869" y="1107.7616">resource.web.com</text><path d="M17.7083,132.5521 L142.3971,132.5521 L142.3971,149.1862 L131.9804,159.6029 L13.5417,159.6029 L13.5417,136.7188 A4.1667,4.1667 0 0 1 17.7083,132.5521" fill="#E9ECEF" style="stroke:#868E96;stroke-width:1.0417;"/><rect fill="none" height="628.4831" rx="4.1667" ry="4.1667" style="stroke:#2FA4E7;stroke-width:1.0417;" width="960.9446" x="13.5417" y="132.5521"/><text fill="#033C73" font-family="Verdana" font-size="12.5" font-weight="bold" lengthAdjust="spacing" textLength="71.5637" x="34.375" y="150.4049">/authorize</text><polygon fill="#2FA4E7" points="465.4704,197.0703,475.887,201.237,465.4704,205.4036,469.637,201.237" style="stroke:#2FA4E7;stroke-width:1.0417;"/><line style="stroke:#2FA4E7;stroke-width:3.125;" x1="192.6127" x2="471.7204" y1="201.237" y2="201.237"/><text fill="#1E90FF" font-family="Verdana" font-size="12.5" font-weight="bold" lengthAdjust="spacing" textLength="8.6975" x="205.1127" y="190.9973">1</text><text fill="#1E90FF" font-family="Verdana" font-size="12.5" lengthAdjust="spacing" textLength="63.855" x="228.3936" y="190.9973">GET /login</text><polygon fill="#2FA4E7" points="204.071,236.6211,193.6544,240.7878,204.071,244.9544,199.9044,240.7878" style="stroke:#2FA4E7;stroke-width:1.0417;"/><line style="stroke:#2FA4E7;stroke-width:3.125;stroke-dasharray:2.0,2.0;" x1="197.821" x2="476.9287" y1="240.7878" y2="240.7878"/><text fill="#1E90FF" font-family="Verdana" font-size="12.5" font-weight="bold" lengthAdjust="spacing" textLength="8.6975" x="215.5294" y="230.5481">2</text><text fill="#1E90FF" font-family="Verdana" font-size="12.5" lengthAdjust="spacing" textLength="226.6602" x="238.8102" y="230.5481">302 Found: auth.web.com/authorize</text><polygon fill="#2FA4E7" points="670.6797,276.1719,681.0964,280.3385,670.6797,284.5052,674.8464,280.3385" style="stroke:#2FA4E7;stroke-width:1.0417;"/><line style="stroke:#2FA4E7;stroke-width:3.125;" x1="192.6127" x2="676.9297" y1="280.3385" y2="280.3385"/><text fill="#1E90FF" font-family="Verdana" font-size="12.5" font-weight="bold" lengthAdjust="spacing" textLength="8.6975" x="205.1127" y="270.0989">3</text><text fill="#1E90FF" font-family="Verdana" font-size="12.5" lengthAdjust="spacing" textLength="92.3218" x="228.3936" y="270.0989">GET /authorize</text><path d="M698.8047,258.4961 L698.8047,372.0378 A4.1667,4.1667 0 0 0 702.9714,376.2044 L947.7631,376.2044 A4.1667,4.1667 0 0 0 951.9297,372.0378 L951.9297,264.7461 L941.5131,254.3294 L702.9714,254.3294 A4.1667,4.1667 0 0 0 698.8047,258.4961" fill="#A9A9A9" style="stroke:#033C73;stroke-width:1.0417;"/><path d="M941.5131,254.3294 L941.5131,262.6628 A2.0833,2.0833 0 0 0 943.5964,264.7461 L951.9297,264.7461 L941.5131,254.3294" fill="#A9A9A9" style="stroke:#033C73;stroke-width:1.0417;"/><text fill="#FFFFFF" font-family="Verdana" font-size="12.5" lengthAdjust="spacing" textLength="51.9897" x="710.2631" y="276.3489">client_id</text><text fill="#FFFFFF" font-family="Verdana" font-size="12.5" lengthAdjust="spacing" textLength="97.0337" x="710.2631" y="290.8997">code_challenge</text><text fill="#FFFFFF" font-family="Verdana" font-size="12.5" lengthAdjust="spacing" textLength="151.5564" x="710.2631" y="305.4504">code_challenge_method</text><text fill="#FFFFFF" font-family="Verdana" font-size="12.5" lengthAdjust="spacing" textLength="221.5149" x="710.2631" y="320.0012">redirect_uri=app.web.com/callback</text><text fill="#FFFFFF" font-family="Verdana" font-size="12.5" font-weight="bold" lengthAdjust="spacing" textLength="210.2173" x="710.2631" y="334.552">response_type=code id_token</text><text fill="#FFFFFF" font-family="Verdana" font-size="12.5" font-weight="bold" lengthAdjust="spacing" textLength="99.4812" x="710.2631" y="349.1028">scope=openid</text><text fill="#FFFFFF" font-family="Verdana" font-size="12.5" lengthAdjust="spacing" textLength="31.665" x="710.2631" y="363.6536">state</text><polygon fill="#2FA4E7" points="204.071,409.2773,193.6544,413.444,204.071,417.6107,199.9044,413.444" style="stroke:#2FA4E7;stroke-width:1.0417;"/><line style="stroke:#2FA4E7;stroke-width:3.125;stroke-dasharray:2.0,2.0;" x1="197.821" x2="682.1381" y1="413.444" y2="413.444"/><text fill="#1E90FF" font-family="Verdana" font-size="12.5" font-weight="bold" lengthAdjust="spacing" textLength="8.6975" x="215.5294" y="403.2043">4</text><text fill="#1E90FF" font-family="Verdana" font-size="12.5" lengthAdjust="spacing" textLength="233.8074" x="238.8102" y="403.2043">302 Found: auth.web.com/login_form</text><polygon fill="#2FA4E7" points="670.6797,448.8281,681.0964,452.9948,670.6797,457.1615,674.8464,452.9948" style="stroke:#2FA4E7;stroke-width:1.0417;"/><line style="stroke:#2FA4E7;stroke-width:3.125;" x1="192.6127" x2="676.9297" y1="452.9948" y2="452.9948"/><text fill="#1E90FF" font-family="Verdana" font-size="12.5" font-weight="bold" lengthAdjust="spacing" textLength="8.6975" x="205.1127" y="442.7551">5</text><text fill="#1E90FF" font-family="Verdana" font-size="12.5" lengthAdjust="spacing" textLength="99.469" x="228.3936" y="442.7551">GET /login_form</text><polygon fill="#2FA4E7" points="204.071,488.3789,193.6544,492.5456,204.071,496.7122,199.9044,492.5456" style="stroke:#2FA4E7;stroke-width:1.0417;"/><line style="stroke:#2FA4E7;stroke-width:3.125;stroke-dasharray:2.0,2.0;" x1="197.821" x2="682.1381" y1="492.5456" y2="492.5456"/><text fill="#1E90FF" font-family="Verdana" font-size="12.5" font-weight="bold" lengthAdjust="spacing" textLength="8.6975" x="215.5294" y="482.3059">6</text><text fill="#1E90FF" font-family="Verdana" font-size="12.5" lengthAdjust="spacing" textLength="45.8679" x="238.8102" y="482.3059">200 OK</text><polygon fill="#2FA4E7" points="670.6797,527.9297,681.0964,532.0964,670.6797,536.263,674.8464,532.0964" style="stroke:#2FA4E7;stroke-width:1.0417;"/><line style="stroke:#2FA4E7;stroke-width:3.125;" x1="192.6127" x2="676.9297" y1="532.0964" y2="532.0964"/><text fill="#1E90FF" font-family="Verdana" font-size="12.5" font-weight="bold" lengthAdjust="spacing" textLength="8.6975" x="205.1127" y="521.8567">7</text><text fill="#1E90FF" font-family="Verdana" font-size="12.5" lengthAdjust="spacing" textLength="107.196" x="228.3936" y="521.8567">POST /login_form</text><path d="M698.8047,510.2539 L698.8047,580.0456 A4.1667,4.1667 0 0 0 702.9714,584.2122 L947.7631,584.2122 A4.1667,4.1667 0 0 0 951.9297,580.0456 L951.9297,516.5039 L941.5131,506.0872 L702.9714,506.0872 A4.1667,4.1667 0 0 0 698.8047,510.2539" fill="#A9A9A9" style="stroke:#033C73;stroke-width:1.0417;"/><path d="M941.5131,506.0872 L941.5131,514.4206 A2.0833,2.0833 0 0 0 943.5964,516.5039 L951.9297,516.5039 L941.5131,506.0872" fill="#A9A9A9" style="stroke:#033C73;stroke-width:1.0417;"/><text fill="#FFFFFF" font-family="Verdana" font-size="12.5" lengthAdjust="spacing" textLength="221.5149" x="710.2631" y="528.1067">redirect_uri=app.web.com/callback</text><text fill="#FFFFFF" font-family="Verdana" font-size="12.5" lengthAdjust="spacing" textLength="62.7136" x="710.2631" y="542.6575">username</text><text fill="#FFFFFF" font-family="Verdana" font-size="12.5" lengthAdjust="spacing" textLength="59.5642" x="710.2631" y="557.2083">password</text><text fill="#FFFFFF" font-family="Verdana" font-size="12.5" lengthAdjust="spacing" textLength="23.6938" x="710.2631" y="571.759">2FA</text><polygon fill="#2FA4E7" points="204.071,617.3828,193.6544,621.5495,204.071,625.7161,199.9044,621.5495" style="stroke:#2FA4E7;stroke-width:1.0417;"/><line style="stroke:#2FA4E7;stroke-width:3.125;stroke-dasharray:2.0,2.0;" x1="197.821" x2="682.1381" y1="621.5495" y2="621.5495"/><text fill="#1E90FF" font-family="Verdana" font-size="12.5" font-weight="bold" lengthAdjust="spacing" textLength="8.6975" x="215.5294" y="611.3098">8</text><text fill="#1E90FF" font-family="Verdana" font-size="12.5" lengthAdjust="spacing" textLength="214.0503" x="238.8102" y="611.3098">302 Found: app.web.com/callback</text><path d="M35.4167,599.707 L35.4167,625.7487 A4.1667,4.1667 0 0 0 39.5833,629.9154 L182.2917,629.9154 A4.1667,4.1667 0 0 0 186.4583,625.7487 L186.4583,605.957 L176.0417,595.5404 L39.5833,595.5404 A4.1667,4.1667 0 0 0 35.4167,599.707" fill="#EE82EE" style="stroke:#033C73;stroke-width:1.0417;"/><path d="M176.0417,595.5404 L176.0417,603.8737 A2.0833,2.0833 0 0 0 178.125,605.957 L186.4583,605.957 L176.0417,595.5404" fill="#EE82EE" style="stroke:#033C73;stroke-width:1.0417;"/><text fill="#FFFFFF" font-family="Verdana" font-size="12.5" lengthAdjust="spacing" textLength="119.696" x="46.875" y="617.5598">Authorization Code</text><path d="M99.6928,645.5078 L99.6928,671.5495 A4.1667,4.1667 0 0 0 103.8595,675.7161 L183.0261,675.7161 A4.1667,4.1667 0 0 0 187.1928,671.5495 L187.1928,651.7578 L176.7761,641.3411 L103.8595,641.3411 A4.1667,4.1667 0 0 0 99.6928,645.5078" fill="#32CD32" style="stroke:#033C73;stroke-width:1.0417;"/><path d="M176.7761,641.3411 L176.7761,649.6745 A2.0833,2.0833 0 0 0 178.8595,651.7578 L187.1928,651.7578 L176.7761,641.3411" fill="#32CD32" style="stroke:#033C73;stroke-width:1.0417;"/><text fill="#FFFFFF" font-family="Verdana" font-size="12.5" lengthAdjust="spacing" textLength="55.4199" x="111.1511" y="663.3606">ID Token</text><polygon fill="#2FA4E7" points="465.4704,708.9844,475.887,713.151,465.4704,717.3177,469.637,713.151" style="stroke:#2FA4E7;stroke-width:1.0417;"/><line style="stroke:#2FA4E7;stroke-width:3.125;" x1="192.6127" x2="471.7204" y1="713.151" y2="713.151"/><text fill="#1E90FF" font-family="Verdana" font-size="12.5" font-weight="bold" lengthAdjust="spacing" textLength="8.6975" x="205.1127" y="702.9114">9</text><text fill="#1E90FF" font-family="Verdana" font-size="12.5" lengthAdjust="spacing" textLength="84.5886" x="228.3936" y="702.9114">GET /callback</text><polygon fill="#2FA4E7" points="204.071,748.5352,193.6544,752.7018,204.071,756.8685,199.9044,752.7018" style="stroke:#2FA4E7;stroke-width:1.0417;"/><line style="stroke:#2FA4E7;stroke-width:3.125;stroke-dasharray:2.0,2.0;" x1="197.821" x2="476.9287" y1="752.7018" y2="752.7018"/><text fill="#1E90FF" font-family="Verdana" font-size="12.5" font-weight="bold" lengthAdjust="spacing" textLength="17.395" x="215.5294" y="742.4622">10</text><text fill="#1E90FF" font-family="Verdana" font-size="12.5" lengthAdjust="spacing" textLength="45.8679" x="247.5077" y="742.4622">200 OK</text><path d="M52.2847,779.7852 L150.2279,779.7852 L150.2279,796.4193 L139.8112,806.8359 L48.1181,806.8359 L48.1181,783.9518 A4.1667,4.1667 0 0 1 52.2847,779.7852" fill="#E9ECEF" style="stroke:#868E96;stroke-width:1.0417;"/><rect fill="none" height="278.8737" rx="4.1667" ry="4.1667" style="stroke:#2FA4E7;stroke-width:1.0417;" width="926.3682" x="48.1181" y="779.7852"/><text fill="#033C73" font-family="Verdana" font-size="12.5" font-weight="bold" lengthAdjust="spacing" textLength="44.8181" x="68.9514" y="797.6379">/token</text><polygon fill="#2FA4E7" points="670.6797,844.3034,681.0964,848.4701,670.6797,852.6367,674.8464,848.4701" style="stroke:#2FA4E7;stroke-width:1.0417;"/><line style="stroke:#2FA4E7;stroke-width:3.125;" x1="192.6127" x2="676.9297" y1="848.4701" y2="848.4701"/><text fill="#1E90FF" font-family="Verdana" font-size="12.5" font-weight="bold" lengthAdjust="spacing" textLength="17.395" x="205.1127" y="838.2304">11</text><text fill="#1E90FF" font-family="Verdana" font-size="12.5" lengthAdjust="spacing" textLength="76.532" x="237.0911" y="838.2304">POST /token</text><path d="M698.8047,826.6276 L698.8047,852.6693 A4.1667,4.1667 0 0 0 702.9714,856.8359 L845.6797,856.8359 A4.1667,4.1667 0 0 0 849.8464,852.6693 L849.8464,832.8776 L839.4297,822.4609 L702.9714,822.4609 A4.1667,4.1667 0 0 0 698.8047,826.6276" fill="#EE82EE" style="stroke:#033C73;stroke-width:1.0417;"/><path d="M839.4297,822.4609 L839.4297,830.7943 A2.0833,2.0833 0 0 0 841.5131,832.8776 L849.8464,832.8776 L839.4297,822.4609" fill="#EE82EE" style="stroke:#033C73;stroke-width:1.0417;"/><text fill="#FFFFFF" font-family="Verdana" font-size="12.5" lengthAdjust="spacing" textLength="119.696" x="710.2631" y="844.4804">Authorization Code</text><path d="M698.8047,872.4284 L698.8047,956.8034 A4.1667,4.1667 0 0 0 702.9714,960.9701 L947.7631,960.9701 A4.1667,4.1667 0 0 0 951.9297,956.8034 L951.9297,878.6784 L941.5131,868.2617 L702.9714,868.2617 A4.1667,4.1667 0 0 0 698.8047,872.4284" fill="#A9A9A9" style="stroke:#033C73;stroke-width:1.0417;"/><path d="M941.5131,868.2617 L941.5131,876.5951 A2.0833,2.0833 0 0 0 943.5964,878.6784 L951.9297,878.6784 L941.5131,868.2617" fill="#A9A9A9" style="stroke:#033C73;stroke-width:1.0417;"/><text fill="#FFFFFF" font-family="Verdana" font-size="12.5" lengthAdjust="spacing" textLength="51.9897" x="710.2631" y="890.2812">client_id</text><text fill="#FFFFFF" font-family="Verdana" font-size="12.5" lengthAdjust="spacing" textLength="79.3884" x="710.2631" y="904.8319">client_secret</text><text fill="#FFFFFF" font-family="Verdana" font-size="12.5" lengthAdjust="spacing" textLength="197.4304" x="710.2631" y="919.3827">grant_type=authorization_code</text><text fill="#FFFFFF" font-family="Verdana" font-size="12.5" lengthAdjust="spacing" textLength="221.5149" x="710.2631" y="933.9335">redirect_uri=app.web.com/callback</text><text fill="#FFFFFF" font-family="Verdana" font-size="12.5" font-weight="bold" lengthAdjust="spacing" textLength="99.4812" x="710.2631" y="948.4843">scope=openid</text><polygon fill="#2FA4E7" points="204.071,994.1081,193.6544,998.2747,204.071,1002.4414,199.9044,998.2747" style="stroke:#2FA4E7;stroke-width:1.0417;"/><line style="stroke:#2FA4E7;stroke-width:3.125;stroke-dasharray:2.0,2.0;" x1="197.821" x2="682.1381" y1="998.2747" y2="998.2747"/><text fill="#1E90FF" font-family="Verdana" font-size="12.5" font-weight="bold" lengthAdjust="spacing" textLength="17.395" x="215.5294" y="988.0351">12</text><text fill="#1E90FF" font-family="Verdana" font-size="12.5" lengthAdjust="spacing" textLength="214.0503" x="247.5077" y="988.0351">302 Found: app.web.com/callback</text><path d="M69.9931,976.4323 L69.9931,1002.474 A4.1667,4.1667 0 0 0 74.1597,1006.6406 L182.4931,1006.6406 A4.1667,4.1667 0 0 0 186.6597,1002.474 L186.6597,982.6823 L176.2431,972.2656 L74.1597,972.2656 A4.1667,4.1667 0 0 0 69.9931,976.4323" fill="#FF0000" style="stroke:#033C73;stroke-width:1.0417;"/><path d="M176.2431,972.2656 L176.2431,980.599 A2.0833,2.0833 0 0 0 178.3264,982.6823 L186.6597,982.6823 L176.2431,972.2656" fill="#FF0000" style="stroke:#033C73;stroke-width:1.0417;"/><text fill="#FFFFFF" font-family="Verdana" font-size="12.5" lengthAdjust="spacing" textLength="85.1196" x="81.4514" y="994.2851">Access Token</text><path d="M99.6928,1022.2331 L99.6928,1048.2747 A4.1667,4.1667 0 0 0 103.8595,1052.4414 L183.0261,1052.4414 A4.1667,4.1667 0 0 0 187.1928,1048.2747 L187.1928,1028.4831 L176.7761,1018.0664 L103.8595,1018.0664 A4.1667,4.1667 0 0 0 99.6928,1022.2331" fill="#32CD32" style="stroke:#033C73;stroke-width:1.0417;"/><path d="M176.7761,1018.0664 L176.7761,1026.3997 A2.0833,2.0833 0 0 0 178.8595,1028.4831 L187.1928,1028.4831 L176.7761,1018.0664" fill="#32CD32" style="stroke:#033C73;stroke-width:1.0417;"/><text fill="#FFFFFF" font-family="Verdana" font-size="12.5" lengthAdjust="spacing" textLength="55.4199" x="111.1511" y="1040.0859">ID Token</text><text fill="#2FA4E7" font-family="Verdana" font-size="10.4167" lengthAdjust="spacing" textLength="67.1641" x="569.5104" y="1155.7953">01-05-20225</text><!--SRC=[fLHTRzD047pthzYsRv7I64DVAXKfDAH28894nQjrEQ-TK-nRQtqcfB-UzMVirX4K7YBvRcV7uzdPNBWTPWWQkKnHsJcLBZKMlOkSLP8fS4XFuBX4pncN8cnoj9zMS4_MedQmpEKScL-mVEV5H0uP_3Tp_sOU-45munLxOtF5AeCbCntMPDqzfSImeYX1_f0AxmdpLVfFaCFEEFGyAJcZJQwiWyi3Rc4hH0No9QYYUuQhECOnKkNvjQ2lDMKrKivJgDBjnZ2vcC0n5bIonX6skspmdhIIqixyL0w1R7ssPRP5zho4gSnXKR4JcoVqe9S-VrzhkuM7Zu-mI2anLggChcGBR_q0rbJQw1Q6KiyILUfRfY44m8grm2RPERXQATu_C1xh0e1E3LeNcgWxKuIXtgaqHPlWv6MOeP1t3OoHOGb3MBAv6_Y-q0BVAhrlSREPE9QJBJ1qnnplAaumKUXeZtOswr659gdApvgelowSs5e_Izxgp_cpIxMPOKoSdRTfX6dv0j-7pUV9dc-Rxy-RfinLnrTwKyfhhCewktDL50VYpk5WlVoBJvzchyMb68ks7uPIT3NJias7SeQiR7DKSVRqepQAJslsnMGeqK5RayZ_m6CrEs-aR3hO0qLZbwlEUZtwBN4jvpdtk_h8U57PxEwp0Rn8TtCkK7Dh1SZhPScRJAgXBw5kV7bTo2VYEpHs79V1ICuCvL-cFXwxI6zchZKMnSkH_SUq- -7z1W00]--></g></svg>