<svg xmlns="http://www.w3.org/2000/svg" xmlns:xlink="http://www.w3.org/1999/xlink" contentStyleType="text/css" data-diagram-type="SEQUENCE" height="1238.5417px" preserveAspectRatio="none" style="width:1018px;height:1238px;" version="1.1" viewBox="0 0 1018 1238" width="1018.75px" zoomAndPan="magnify"><title>OpenID Connect Appendix A6</title><defs/><g><rect fill="none" height="47.168" rx="4.1667" ry="4.1667" style="stroke:#BABDBF;stroke-width:1.0417;" width="368.0298" x="419.0776" y="20.8333"/><text fill="#2FA4E7" font-family="Verdana" font-size="20.8333" font-weight="bold" lengthAdjust="spacing" textLength="345.1131" x="430.5359" y="51.6296">OpenID Connect Appendix A6</text><g><title>web browser</title><rect fill="#000000" fill-opacity="0.00000" height="1009.4076" width="8.3333" x="188.9669" y="120.0521"/><line style="stroke:#BABDBF;stroke-width:1.0417;stroke-dasharray:5.0,5.0;" x1="192.6127" x2="192.6127" y1="120.0521" y2="1129.4596"/></g><g><title>app.web.com</title><rect fill="#000000" fill-opacity="0.00000" height="1009.4076" width="8.3333" x="479.5329" y="120.0521"/><line style="stroke:#BABDBF;stroke-width:1.0417;stroke-dasharray:5.0,5.0;" x1="483.1787" x2="483.1787" y1="120.0521" y2="1129.4596"/></g><g><title/><rect fill="none" height="39.5508" style="stroke:#BABDBF;stroke-width:1.0417;" width="10.4167" x="477.9704" y="201.237"/></g><g><title/><rect fill="none" height="39.5508" style="stroke:#BABDBF;stroke-width:1.0417;" width="10.4167" x="477.9704" y="758.9518"/></g><g><title>auth.web.com</title><rect fill="#000000" fill-opacity="0.00000" height="1009.4076" width="8.3333" x="684.7422" y="120.0521"/><line style="stroke:#BABDBF;stroke-width:1.0417;stroke-dasharray:5.0,5.0;" x1="688.3881" x2="688.3881" y1="120.0521" y2="1129.4596"/></g><g><title/><rect fill="none" height="133.1055" style="stroke:#BABDBF;stroke-width:1.0417;" width="10.4167" x="683.1797" y="280.3385"/></g><g><title/><rect fill="none" height="39.5508" style="stroke:#BABDBF;stroke-width:1.0417;" width="10.4167" x="683.1797" y="452.9948"/></g><g><title/><rect fill="none" height="89.4531" style="stroke:#BABDBF;stroke-width:1.0417;" width="10.4167" x="683.1797" y="532.0964"/></g><g><title/><rect fill="none" height="149.8047" style="stroke:#BABDBF;stroke-width:1.0417;" width="10.4167" x="683.1797" y="894.2708"/></g><g><title>resource.web.com</title><rect fill="#000000" fill-opacity="0.00000" height="1009.4076" width="8.3333" x="905.4942" y="120.0521"/><line style="stroke:#BABDBF;stroke-width:1.0417;stroke-dasharray:5.0,5.0;" x1="909.14" x2="909.14" y1="120.0521" y2="1129.4596"/></g><rect fill="#FFFFEE" height="39.5508" rx="4.1667" ry="4.1667" style="stroke:#2FA4E7;stroke-width:1.0417;" width="105.1086" x="140.0584" y="79.4596"/><text fill="#2FA4E7" font-family="Verdana" font-size="12.5" lengthAdjust="spacing" textLength="80.1086" x="152.5584" y="103.5624">web browser</text><rect fill="#FFFFEE" height="39.5508" rx="4.1667" ry="4.1667" style="stroke:#2FA4E7;stroke-width:1.0417;" width="109.021" x="428.6682" y="79.4596"/><text fill="#2FA4E7" font-family="Verdana" font-size="12.5" lengthAdjust="spacing" textLength="84.021" x="441.1682" y="103.5624">app.web.com</text><rect fill="#FFFFEE" height="39.5508" rx="4.1667" ry="4.1667" style="stroke:#2FA4E7;stroke-width:1.0417;" width="113.8977" x="631.4392" y="79.4596"/><text fill="#2FA4E7" font-family="Verdana" font-size="12.5" lengthAdjust="spacing" textLength="88.8977" x="643.9392" y="103.5624">auth.web.com</text><rect fill="#FFFFEE" height="39.5508" rx="4.1667" ry="4.1667" style="stroke:#2FA4E7;stroke-width:1.0417;" width="140.1062" x="839.0869" y="79.4596"/><text fill="#2FA4E7" font-family="Verdana" font-size="12.5" lengthAdjust="spacing" textLength="115.1062" x="851.5869" y="103.5624">resource.web.com</text><rect fill="#FFFFEE" height="39.5508" rx="4.1667" ry="4.1667" style="stroke:#2FA4E7;stroke-width:1.0417;" width="105.1086" x="140.0584" y="1129.4596"/><text fill="#2FA4E7" font-family="Verdana" font-size="12.5" lengthAdjust="spacing" textLength="80.1086" x="152.5584" y="1153.5624">web browser</text><rect fill="#FFFFEE" height="39.5508" rx="4.1667" ry="4.1667" style="stroke:#2FA4E7;stroke-width:1.0417;" width="109.021" x="428.6682" y="1129.4596"/><text fill="#2FA4E7" font-family="Verdana" font-size="12.5" lengthAdjust="spacing" textLength="84.021" x="441.1682" y="1153.5624">app.web.com</text><rect fill="#FFFFEE" height="39.5508" rx="4.1667" ry="4.1667" style="stroke:#2FA4E7;stroke-width:1.0417;" width="113.8977" x="631.4392" y="1129.4596"/><text fill="#2FA4E7" font-family="Verdana" font-size="12.5" lengthAdjust="spacing" textLength="88.8977" x="643.9392" y="1153.5624">auth.web.com</text><rect fill="#FFFFEE" height="39.5508" rx="4.1667" ry="4.1667" style="stroke:#2FA4E7;stroke-width:1.0417;" width="140.1062" x="839.0869" y="1129.4596"/><text fill="#2FA4E7" font-family="Verdana" font-size="12.5" lengthAdjust="spacing" textLength="115.1062" x="851.5869" y="1153.5624">resource.web.com</text><path d="M17.7083,132.5521 L142.3971,132.5521 L142.3971,149.1862 L131.9804,159.6029 L13.5417,159.6029 L13.5417,136.7188 A4.1667,4.1667 0 0 1 17.7083,132.5521" fill="#E9ECEF" style="stroke:#868E96;stroke-width:1.0417;"/><rect fill="none" height="674.2839" rx="4.1667" ry="4.1667" style="stroke:#2FA4E7;stroke-width:1.0417;" width="994.2515" x="13.5417" y="132.5521"/><text fill="#033C73" font-family="Verdana" font-size="12.5" font-weight="bold" lengthAdjust="spacing" textLength="71.5637" x="34.375" y="150.4049">/authorize</text><polygon fill="#2FA4E7" points="465.4704,197.0703,475.887,201.237,465.4704,205.4036,469.637,201.237" style="stroke:#2FA4E7;stroke-width:1.0417;"/><line style="stroke:#2FA4E7;stroke-width:3.125;" x1="192.6127" x2="471.7204" y1="201.237" y2="201.237"/><text fill="#1E90FF" font-family="Verdana" font-size="12.5" font-weight="bold" lengthAdjust="spacing" textLength="8.6975" x="205.1127" y="190.9973">1</text><text fill="#1E90FF" font-family="Verdana" font-size="12.5" lengthAdjust="spacing" textLength="63.855" x="228.3936" y="190.9973">GET /login</text><polygon fill="#2FA4E7" points="204.071,236.6211,193.6544,240.7878,204.071,244.9544,199.9044,240.7878" style="stroke:#2FA4E7;stroke-width:1.0417;"/><line style="stroke:#2FA4E7;stroke-width:3.125;stroke-dasharray:2.0,2.0;" x1="197.821" x2="476.9287" y1="240.7878" y2="240.7878"/><text fill="#1E90FF" font-family="Verdana" font-size="12.5" font-weight="bold" lengthAdjust="spacing" textLength="8.6975" x="215.5294" y="230.5481">2</text><text fill="#1E90FF" font-family="Verdana" font-size="12.5" lengthAdjust="spacing" textLength="226.6602" x="238.8102" y="230.5481">302 Found: auth.web.com/authorize</text><polygon fill="#2FA4E7" points="670.6797,276.1719,681.0964,280.3385,670.6797,284.5052,674.8464,280.3385" style="stroke:#2FA4E7;stroke-width:1.0417;"/><line style="stroke:#2FA4E7;stroke-width:3.125;" x1="192.6127" x2="676.9297" y1="280.3385" y2="280.3385"/><text fill="#1E90FF" font-family="Verdana" font-size="12.5" font-weight="bold" lengthAdjust="spacing" textLength="8.6975" x="205.1127" y="270.0989">3</text><text fill="#1E90FF" font-family="Verdana" font-size="12.5" lengthAdjust="spacing" textLength="92.3218" x="228.3936" y="270.0989">GET /authorize</text><path d="M698.8047,258.4961 L698.8047,372.0378 A4.1667,4.1667 0 0 0 702.9714,376.2044 L981.0964,376.2044 A4.1667,4.1667 0 0 0 985.2631,372.0378 L985.2631,264.7461 L974.8464,254.3294 L702.9714,254.3294 A4.1667,4.1667 0 0 0 698.8047,258.4961" fill="#A9A9A9" style="stroke:#033C73;stroke-width:1.0417;"/><path d="M974.8464,254.3294 L974.8464,262.6628 A2.0833,2.0833 0 0 0 976.9297,264.7461 L985.2631,264.7461 L974.8464,254.3294" fill="#A9A9A9" style="stroke:#033C73;stroke-width:1.0417;"/><text fill="#FFFFFF" font-family="Verdana" font-size="12.5" lengthAdjust="spacing" textLength="51.9897" x="710.2631" y="276.3489">client_id</text><text fill="#FFFFFF" font-family="Verdana" font-size="12.5" lengthAdjust="spacing" textLength="97.0337" x="710.2631" y="290.8997">code_challenge</text><text fill="#FFFFFF" font-family="Verdana" font-size="12.5" lengthAdjust="spacing" textLength="151.5564" x="710.2631" y="305.4504">code_challenge_method</text><text fill="#FFFFFF" font-family="Verdana" font-size="12.5" lengthAdjust="spacing" textLength="221.5149" x="710.2631" y="320.0012">redirect_uri=app.web.com/callback</text><text fill="#FFFFFF" font-family="Verdana" font-size="12.5" font-weight="bold" lengthAdjust="spacing" textLength="254.8218" x="710.2631" y="334.552">response_type=code token id_token</text><text fill="#FFFFFF" font-family="Verdana" font-size="12.5" font-weight="bold" lengthAdjust="spacing" textLength="99.4812" x="710.2631" y="349.1028">scope=openid</text><text fill="#FFFFFF" font-family="Verdana" font-size="12.5" lengthAdjust="spacing" textLength="31.665" x="710.2631" y="363.6536">state</text><polygon fill="#2FA4E7" points="204.071,409.2773,193.6544,413.444,204.071,417.6107,199.9044,413.444" style="stroke:#2FA4E7;stroke-width:1.0417;"/><line style="stroke:#2FA4E7;stroke-width:3.125;stroke-dasharray:2.0,2.0;" x1="197.821" x2="682.1381" y1="413.444" y2="413.444"/><text fill="#1E90FF" font-family="Verdana" font-size="12.5" font-weight="bold" lengthAdjust="spacing" textLength="8.6975" x="215.5294" y="403.2043">4</text><text fill="#1E90FF" font-family="Verdana" font-size="12.5" lengthAdjust="spacing" textLength="233.8074" x="238.8102" y="403.2043">302 Found: auth.web.com/login_form</text><polygon fill="#2FA4E7" points="670.6797,448.8281,681.0964,452.9948,670.6797,457.1615,674.8464,452.9948" style="stroke:#2FA4E7;stroke-width:1.0417;"/><line style="stroke:#2FA4E7;stroke-width:3.125;" x1="192.6127" x2="676.9297" y1="452.9948" y2="452.9948"/><text fill="#1E90FF" font-family="Verdana" font-size="12.5" font-weight="bold" lengthAdjust="spacing" textLength="8.6975" x="205.1127" y="442.7551">5</text><text fill="#1E90FF" font-family="Verdana" font-size="12.5" lengthAdjust="spacing" textLength="99.469" x="228.3936" y="442.7551">GET /login_form</text><polygon fill="#2FA4E7" points="204.071,488.3789,193.6544,492.5456,204.071,496.7122,199.9044,492.5456" style="stroke:#2FA4E7;stroke-width:1.0417;"/><line style="stroke:#2FA4E7;stroke-width:3.125;stroke-dasharray:2.0,2.0;" x1="197.821" x2="682.1381" y1="492.5456" y2="492.5456"/><text fill="#1E90FF" font-family="Verdana" font-size="12.5" font-weight="bold" lengthAdjust="spacing" textLength="8.6975" x="215.5294" y="482.3059">6</text><text fill="#1E90FF" font-family="Verdana" font-size="12.5" lengthAdjust="spacing" textLength="45.8679" x="238.8102" y="482.3059">200 OK</text><polygon fill="#2FA4E7" points="670.6797,527.9297,681.0964,532.0964,670.6797,536.263,674.8464,532.0964" style="stroke:#2FA4E7;stroke-width:1.0417;"/><line style="stroke:#2FA4E7;stroke-width:3.125;" x1="192.6127" x2="676.9297" y1="532.0964" y2="532.0964"/><text fill="#1E90FF" font-family="Verdana" font-size="12.5" font-weight="bold" lengthAdjust="spacing" textLength="8.6975" x="205.1127" y="521.8567">7</text><text fill="#1E90FF" font-family="Verdana" font-size="12.5" lengthAdjust="spacing" textLength="107.196" x="228.3936" y="521.8567">POST /login_form</text><path d="M698.8047,510.2539 L698.8047,580.0456 A4.1667,4.1667 0 0 0 702.9714,584.2122 L947.7631,584.2122 A4.1667,4.1667 0 0 0 951.9297,580.0456 L951.9297,516.5039 L941.5131,506.0872 L702.9714,506.0872 A4.1667,4.1667 0 0 0 698.8047,510.2539" fill="#A9A9A9" style="stroke:#033C73;stroke-width:1.0417;"/><path d="M941.5131,506.0872 L941.5131,514.4206 A2.0833,2.0833 0 0 0 943.5964,516.5039 L951.9297,516.5039 L941.5131,506.0872" fill="#A9A9A9" style="stroke:#033C73;stroke-width:1.0417;"/><text fill="#FFFFFF" font-family="Verdana" font-size="12.5" lengthAdjust="spacing" textLength="221.5149" x="710.2631" y="528.1067">redirect_uri=app.web.com/callback</text><text fill="#FFFFFF" font-family="Verdana" font-size="12.5" lengthAdjust="spacing" textLength="62.7136" x="710.2631" y="542.6575">username</text><text fill="#FFFFFF" font-family="Verdana" font-size="12.5" lengthAdjust="spacing" textLength="59.5642" x="710.2631" y="557.2083">password</text><text fill="#FFFFFF" font-family="Verdana" font-size="12.5" lengthAdjust="spacing" textLength="23.6938" x="710.2631" y="571.759">2FA</text><polygon fill="#2FA4E7" points="204.071,617.3828,193.6544,621.5495,204.071,625.7161,199.9044,621.5495" style="stroke:#2FA4E7;stroke-width:1.0417;"/><line style="stroke:#2FA4E7;stroke-width:3.125;stroke-dasharray:2.0,2.0;" x1="197.821" x2="682.1381" y1="621.5495" y2="621.5495"/><text fill="#1E90FF" font-family="Verdana" font-size="12.5" font-weight="bold" lengthAdjust="spacing" textLength="8.6975" x="215.5294" y="611.3098">8</text><text fill="#1E90FF" font-family="Verdana" font-size="12.5" lengthAdjust="spacing" textLength="214.0503" x="238.8102" y="611.3098">302 Found: app.web.com/callback</text><path d="M35.4167,599.707 L35.4167,625.7487 A4.1667,4.1667 0 0 0 39.5833,629.9154 L182.2917,629.9154 A4.1667,4.1667 0 0 0 186.4583,625.7487 L186.4583,605.957 L176.0417,595.5404 L39.5833,595.5404 A4.1667,4.1667 0 0 0 35.4167,599.707" fill="#EE82EE" style="stroke:#033C73;stroke-width:1.0417;"/><path d="M176.0417,595.5404 L176.0417,603.8737 A2.0833,2.0833 0 0 0 178.125,605.957 L186.4583,605.957 L176.0417,595.5404" fill="#EE82EE" style="stroke:#033C73;stroke-width:1.0417;"/><text fill="#FFFFFF" font-family="Verdana" font-size="12.5" lengthAdjust="spacing" textLength="119.696" x="46.875" y="617.5598">Authorization Code</text><path d="M69.9931,645.5078 L69.9931,671.5495 A4.1667,4.1667 0 0 0 74.1597,675.7161 L182.4931,675.7161 A4.1667,4.1667 0 0 0 186.6597,671.5495 L186.6597,651.7578 L176.2431,641.3411 L74.1597,641.3411 A4.1667,4.1667 0 0 0 69.9931,645.5078" fill="#FF0000" style="stroke:#033C73;stroke-width:1.0417;"/><path d="M176.2431,641.3411 L176.2431,649.6745 A2.0833,2.0833 0 0 0 178.3264,651.7578 L186.6597,651.7578 L176.2431,641.3411" fill="#FF0000" style="stroke:#033C73;stroke-width:1.0417;"/><text fill="#FFFFFF" font-family="Verdana" font-size="12.5" lengthAdjust="spacing" textLength="85.1196" x="81.4514" y="663.3606">Access Token</text><path d="M99.6928,691.3086 L99.6928,717.3503 A4.1667,4.1667 0 0 0 103.8595,721.5169 L183.0261,721.5169 A4.1667,4.1667 0 0 0 187.1928,717.3503 L187.1928,697.5586 L176.7761,687.1419 L103.8595,687.1419 A4.1667,4.1667 0 0 0 99.6928,691.3086" fill="#32CD32" style="stroke:#033C73;stroke-width:1.0417;"/><path d="M176.7761,687.1419 L176.7761,695.4753 A2.0833,2.0833 0 0 0 178.8595,697.5586 L187.1928,697.5586 L176.7761,687.1419" fill="#32CD32" style="stroke:#033C73;stroke-width:1.0417;"/><text fill="#FFFFFF" font-family="Verdana" font-size="12.5" lengthAdjust="spacing" textLength="55.4199" x="111.1511" y="709.1614">ID Token</text><polygon fill="#2FA4E7" points="465.4704,754.7852,475.887,758.9518,465.4704,763.1185,469.637,758.9518" style="stroke:#2FA4E7;stroke-width:1.0417;"/><line style="stroke:#2FA4E7;stroke-width:3.125;" x1="192.6127" x2="471.7204" y1="758.9518" y2="758.9518"/><text fill="#1E90FF" font-family="Verdana" font-size="12.5" font-weight="bold" lengthAdjust="spacing" textLength="8.6975" x="205.1127" y="748.7122">9</text><text fill="#1E90FF" font-family="Verdana" font-size="12.5" lengthAdjust="spacing" textLength="84.5886" x="228.3936" y="748.7122">GET /callback</text><polygon fill="#2FA4E7" points="204.071,794.3359,193.6544,798.5026,204.071,802.6693,199.9044,798.5026" style="stroke:#2FA4E7;stroke-width:1.0417;"/><line style="stroke:#2FA4E7;stroke-width:3.125;stroke-dasharray:2.0,2.0;" x1="197.821" x2="476.9287" y1="798.5026" y2="798.5026"/><text fill="#1E90FF" font-family="Verdana" font-size="12.5" font-weight="bold" lengthAdjust="spacing" textLength="17.395" x="215.5294" y="788.2629">10</text><text fill="#1E90FF" font-family="Verdana" font-size="12.5" lengthAdjust="spacing" textLength="45.8679" x="247.5077" y="788.2629">200 OK</text><path d="M52.2847,825.5859 L150.2279,825.5859 L150.2279,842.2201 L139.8112,852.6367 L48.1181,852.6367 L48.1181,829.7526 A4.1667,4.1667 0 0 1 52.2847,825.5859" fill="#E9ECEF" style="stroke:#868E96;stroke-width:1.0417;"/><rect fill="none" height="278.8737" rx="4.1667" ry="4.1667" style="stroke:#2FA4E7;stroke-width:1.0417;" width="926.3682" x="48.1181" y="825.5859"/><text fill="#033C73" font-family="Verdana" font-size="12.5" font-weight="bold" lengthAdjust="spacing" textLength="44.8181" x="68.9514" y="843.4387">/token</text><polygon fill="#2FA4E7" points="670.6797,890.1042,681.0964,894.2708,670.6797,898.4375,674.8464,894.2708" style="stroke:#2FA4E7;stroke-width:1.0417;"/><line style="stroke:#2FA4E7;stroke-width:3.125;" x1="192.6127" x2="676.9297" y1="894.2708" y2="894.2708"/><text fill="#1E90FF" font-family="Verdana" font-size="12.5" font-weight="bold" lengthAdjust="spacing" textLength="17.395" x="205.1127" y="884.0312">11</text><text fill="#1E90FF" font-family="Verdana" font-size="12.5" lengthAdjust="spacing" textLength="76.532" x="237.0911" y="884.0312">POST /token</text><path d="M698.8047,872.4284 L698.8047,898.4701 A4.1667,4.1667 0 0 0 702.9714,902.6367 L845.6797,902.6367 A4.1667,4.1667 0 0 0 849.8464,898.4701 L849.8464,878.6784 L839.4297,868.2617 L702.9714,868.2617 A4.1667,4.1667 0 0 0 698.8047,872.4284" fill="#EE82EE" style="stroke:#033C73;stroke-width:1.0417;"/><path d="M839.4297,868.2617 L839.4297,876.5951 A2.0833,2.0833 0 0 0 841.5131,878.6784 L849.8464,878.6784 L839.4297,868.2617" fill="#EE82EE" style="stroke:#033C73;stroke-width:1.0417;"/><text fill="#FFFFFF" font-family="Verdana" font-size="12.5" lengthAdjust="spacing" textLength="119.696" x="710.2631" y="890.2812">Authorization Code</text><path d="M698.8047,918.2292 L698.8047,1002.6042 A4.1667,4.1667 0 0 0 702.9714,1006.7708 L947.7631,1006.7708 A4.1667,4.1667 0 0 0 951.9297,1002.6042 L951.9297,924.4792 L941.5131,914.0625 L702.9714,914.0625 A4.1667,4.1667 0 0 0 698.8047,918.2292" fill="#A9A9A9" style="stroke:#033C73;stroke-width:1.0417;"/><path d="M941.5131,914.0625 L941.5131,922.3958 A2.0833,2.0833 0 0 0 943.5964,924.4792 L951.9297,924.4792 L941.5131,914.0625" fill="#A9A9A9" style="stroke:#033C73;stroke-width:1.0417;"/><text fill="#FFFFFF" font-family="Verdana" font-size="12.5" lengthAdjust="spacing" textLength="51.9897" x="710.2631" y="936.0819">client_id</text><text fill="#FFFFFF" font-family="Verdana" font-size="12.5" lengthAdjust="spacing" textLength="79.3884" x="710.2631" y="950.6327">client_secret</text><text fill="#FFFFFF" font-family="Verdana" font-size="12.5" lengthAdjust="spacing" textLength="197.4304" x="710.2631" y="965.1835">grant_type=authorization_code</text><text fill="#FFFFFF" font-family="Verdana" font-size="12.5" lengthAdjust="spacing" textLength="221.5149" x="710.2631" y="979.7343">redirect_uri=app.web.com/callback</text><text fill="#FFFFFF" font-family="Verdana" font-size="12.5" font-weight="bold" lengthAdjust="spacing" textLength="99.4812" x="710.2631" y="994.2851">scope=openid</text><polygon fill="#2FA4E7" points="204.071,1039.9089,193.6544,1044.0755,204.071,1048.2422,199.9044,1044.0755" style="stroke:#2FA4E7;stroke-width:1.0417;"/><line style="stroke:#2FA4E7;stroke-width:3.125;stroke-dasharray:2.0,2.0;" x1="197.821" x2="682.1381" y1="1044.0755" y2="1044.0755"/><text fill="#1E90FF" font-family="Verdana" font-size="12.5" font-weight="bold" lengthAdjust="spacing" textLength="17.395" x="215.5294" y="1033.8359">12</text><text fill="#1E90FF" font-family="Verdana" font-size="12.5" lengthAdjust="spacing" textLength="214.0503" x="247.5077" y="1033.8359">302 Found: app.web.com/callback</text><path d="M69.9931,1022.2331 L69.9931,1048.2747 A4.1667,4.1667 0 0 0 74.1597,1052.4414 L182.4931,1052.4414 A4.1667,4.1667 0 0 0 186.6597,1048.2747 L186.6597,1028.4831 L176.2431,1018.0664 L74.1597,1018.0664 A4.1667,4.1667 0 0 0 69.9931,1022.2331" fill="#FF0000" style="stroke:#033C73;stroke-width:1.0417;"/><path d="M176.2431,1018.0664 L176.2431,1026.3997 A2.0833,2.0833 0 0 0 178.3264,1028.4831 L186.6597,1028.4831 L176.2431,1018.0664" fill="#FF0000" style="stroke:#033C73;stroke-width:1.0417;"/><text fill="#FFFFFF" font-family="Verdana" font-size="12.5" lengthAdjust="spacing" textLength="85.1196" x="81.4514" y="1040.0859">Access Token</text><path d="M99.6928,1068.0339 L99.6928,1094.0755 A4.1667,4.1667 0 0 0 103.8595,1098.2422 L183.0261,1098.2422 A4.1667,4.1667 0 0 0 187.1928,1094.0755 L187.1928,1074.2839 L176.7761,1063.8672 L103.8595,1063.8672 A4.1667,4.1667 0 0 0 99.6928,1068.0339" fill="#32CD32" style="stroke:#033C73;stroke-width:1.0417;"/><path d="M176.7761,1063.8672 L176.7761,1072.2005 A2.0833,2.0833 0 0 0 178.8595,1074.2839 L187.1928,1074.2839 L176.7761,1063.8672" fill="#32CD32" style="stroke:#033C73;stroke-width:1.0417;"/><text fill="#FFFFFF" font-family="Verdana" font-size="12.5" lengthAdjust="spacing" textLength="55.4199" x="111.1511" y="1085.8866">ID Token</text><text fill="#2FA4E7" font-family="Verdana" font-size="10.4167" lengthAdjust="spacing" textLength="67.1641" x="569.5104" y="1201.5961">01-05-20225</text><!--SRC=[jLHDQzj04BthLqoIcy6ngf8U0YcuSHrAIrrew5MiLoDviRGZHgkwpg_lwDDIAjEaq8DWP_UzfzatCtlXTfWXQEGoHMNdLBhKMFGkSbP9fi0XFO7Z4ZrdN8gmoT5-Mi4zMOlQmJANE3A_OFdEYuaSClXlvlxDFF23uCOhziRcYbK6IsOwhCcwUqg9OKLHWlmX5TqJvglmJv33pZZqF3boHfjSMGUN1zp2LeGAv4jGHRU6gpZ6CLBb-RMWhpLbDLBYALJfTcEOR4pW60igMUC8ssqsU4-efBGpFvL385l7jioso9wNC9KvB2frOlE47lIfpz_NkTt2myT7MAIK62kdZAva2s_z0DPKskWMXgcU5QgoRvM6400hrWARPEVWQgLu_y1uh0y0T6hGkj14NKmHXdgdqXHjWfEROOOYtX4O8yFI3679vcxW-q8BVAlqliNDPk9OJhR0q1rplAiqmT4UBPWeh1UpMOyjD0b6FckYVhjmOcwzbgwhB_LthsfBmvWuEs_M2DFg1RuFcy-Jd6-Rxyz9KnQhuoiTAkKtLcMTwRagYWDnvtEmNhxWwjFgTN8fnfBR3qCfkbffsVQ8SeQip7HKQVRo8nh5fs6JwpHqhR4euB6gt8k8Nqo6qdar6a2UaIdgz60CxZAkZrTnw_dgnyorgkSArvsFQYPvDiF_h7P_Z4SJ5wYvTH7az_9AD4sjXfQ6kh7qTLCoqVb3VyQTDgZccNh-IyECE-O_rhiltcy0]--></g></svg>