<svg xmlns="http://www.w3.org/2000/svg" xmlns:xlink="http://www.w3.org/1999/xlink" contentStyleType="text/css" data-diagram-type="SEQUENCE" height="558.3333px" preserveAspectRatio="none" style="width:865px;height:558px;" version="1.1" viewBox="0 0 865 558" width="865.625px" zoomAndPan="magnify"><title>RFC 6749/4.4</title><defs/><g><rect fill="none" height="47.168" rx="4.1667" ry="4.1667" style="stroke:#BABDBF;stroke-width:1.0417;" width="178.2308" x="417.2368" y="20.8333"/><text fill="#2FA4E7" font-family="Verdana" font-size="20.8333" font-weight="bold" lengthAdjust="spacing" textLength="155.3141" x="428.6952" y="51.6296">RFC 6749/4.4</text><g><title>web browser</title><rect fill="#000000" fill-opacity="0.00000" height="328.8737" width="8.3333" x="154.3905" y="120.0521"/><line style="stroke:#BABDBF;stroke-width:1.0417;stroke-dasharray:5.0,5.0;" x1="158.0363" x2="158.0363" y1="120.0521" y2="448.9258"/></g><g><title>app.web.com</title><rect fill="#000000" fill-opacity="0.00000" height="328.8737" width="8.3333" x="355.2053" y="120.0521"/><line style="stroke:#BABDBF;stroke-width:1.0417;stroke-dasharray:5.0,5.0;" x1="358.8511" x2="358.8511" y1="120.0521" y2="448.9258"/></g><g><title/><rect fill="none" height="39.5508" style="stroke:#BABDBF;stroke-width:1.0417;" width="10.4167" x="353.6428" y="201.237"/></g><g><title>auth.web.com</title><rect fill="#000000" fill-opacity="0.00000" height="328.8737" width="8.3333" x="560.4146" y="120.0521"/><line style="stroke:#BABDBF;stroke-width:1.0417;stroke-dasharray:5.0,5.0;" x1="564.0605" x2="564.0605" y1="120.0521" y2="448.9258"/></g><g><title/><rect fill="none" height="129.0039" style="stroke:#BABDBF;stroke-width:1.0417;" width="10.4167" x="558.8521" y="280.3385"/></g><g><title>resource.web.com</title><rect fill="#000000" fill-opacity="0.00000" height="328.8737" width="8.3333" x="781.1666" y="120.0521"/><line style="stroke:#BABDBF;stroke-width:1.0417;stroke-dasharray:5.0,5.0;" x1="784.8124" x2="784.8124" y1="120.0521" y2="448.9258"/></g><rect fill="#FFFFEE" height="39.5508" rx="4.1667" ry="4.1667" style="stroke:#2FA4E7;stroke-width:1.0417;" width="105.1086" x="105.482" y="79.4596"/><text fill="#2FA4E7" font-family="Verdana" font-size="12.5" lengthAdjust="spacing" textLength="80.1086" x="117.982" y="103.5624">web browser</text><rect fill="#FFFFEE" height="39.5508" rx="4.1667" ry="4.1667" style="stroke:#2FA4E7;stroke-width:1.0417;" width="109.021" x="304.3406" y="79.4596"/><text fill="#2FA4E7" font-family="Verdana" font-size="12.5" lengthAdjust="spacing" textLength="84.021" x="316.8406" y="103.5624">app.web.com</text><rect fill="#FFFFEE" height="39.5508" rx="4.1667" ry="4.1667" style="stroke:#2FA4E7;stroke-width:1.0417;" width="113.8977" x="507.1116" y="79.4596"/><text fill="#2FA4E7" font-family="Verdana" font-size="12.5" lengthAdjust="spacing" textLength="88.8977" x="519.6116" y="103.5624">auth.web.com</text><rect fill="#FFFFEE" height="39.5508" rx="4.1667" ry="4.1667" style="stroke:#2FA4E7;stroke-width:1.0417;" width="140.1062" x="714.7593" y="79.4596"/><text fill="#2FA4E7" font-family="Verdana" font-size="12.5" lengthAdjust="spacing" textLength="115.1062" x="727.2593" y="103.5624">resource.web.com</text><rect fill="#FFFFEE" height="39.5508" rx="4.1667" ry="4.1667" style="stroke:#2FA4E7;stroke-width:1.0417;" width="105.1086" x="105.482" y="448.9258"/><text fill="#2FA4E7" font-family="Verdana" font-size="12.5" lengthAdjust="spacing" textLength="80.1086" x="117.982" y="473.0286">web browser</text><rect fill="#FFFFEE" height="39.5508" rx="4.1667" ry="4.1667" style="stroke:#2FA4E7;stroke-width:1.0417;" width="109.021" x="304.3406" y="448.9258"/><text fill="#2FA4E7" font-family="Verdana" font-size="12.5" lengthAdjust="spacing" textLength="84.021" x="316.8406" y="473.0286">app.web.com</text><rect fill="#FFFFEE" height="39.5508" rx="4.1667" ry="4.1667" style="stroke:#2FA4E7;stroke-width:1.0417;" width="113.8977" x="507.1116" y="448.9258"/><text fill="#2FA4E7" font-family="Verdana" font-size="12.5" lengthAdjust="spacing" textLength="88.8977" x="519.6116" y="473.0286">auth.web.com</text><rect fill="#FFFFEE" height="39.5508" rx="4.1667" ry="4.1667" style="stroke:#2FA4E7;stroke-width:1.0417;" width="140.1062" x="714.7593" y="448.9258"/><text fill="#2FA4E7" font-family="Verdana" font-size="12.5" lengthAdjust="spacing" textLength="115.1062" x="727.2593" y="473.0286">resource.web.com</text><path d="M17.7083,132.5521 L115.6514,132.5521 L115.6514,149.1862 L105.2348,159.6029 L13.5417,159.6029 L13.5417,136.7188 A4.1667,4.1667 0 0 1 17.7083,132.5521" fill="#E9ECEF" style="stroke:#868E96;stroke-width:1.0417;"/><rect fill="none" height="291.3737" rx="4.1667" ry="4.1667" style="stroke:#2FA4E7;stroke-width:1.0417;" width="826.1739" x="13.5417" y="132.5521"/><text fill="#033C73" font-family="Verdana" font-size="12.5" font-weight="bold" lengthAdjust="spacing" textLength="44.8181" x="34.375" y="150.4049">/token</text><polygon fill="#2FA4E7" points="341.1428,197.0703,351.5594,201.237,341.1428,205.4036,345.3094,201.237" style="stroke:#2FA4E7;stroke-width:1.0417;"/><line style="stroke:#2FA4E7;stroke-width:3.125;" x1="158.0363" x2="347.3928" y1="201.237" y2="201.237"/><text fill="#1E90FF" font-family="Verdana" font-size="12.5" font-weight="bold" lengthAdjust="spacing" textLength="8.6975" x="170.5363" y="190.9973">1</text><text fill="#1E90FF" font-family="Verdana" font-size="12.5" lengthAdjust="spacing" textLength="63.855" x="193.8171" y="190.9973">GET /login</text><polygon fill="#2FA4E7" points="169.4946,236.6211,159.078,240.7878,169.4946,244.9544,165.328,240.7878" style="stroke:#2FA4E7;stroke-width:1.0417;"/><line style="stroke:#2FA4E7;stroke-width:3.125;stroke-dasharray:2.0,2.0;" x1="163.2446" x2="352.6011" y1="240.7878" y2="240.7878"/><text fill="#1E90FF" font-family="Verdana" font-size="12.5" font-weight="bold" lengthAdjust="spacing" textLength="8.6975" x="180.953" y="230.5481">2</text><text fill="#1E90FF" font-family="Verdana" font-size="12.5" lengthAdjust="spacing" textLength="45.8679" x="204.2338" y="230.5481">200 OK</text><polygon fill="#2FA4E7" points="546.3521,276.1719,556.7688,280.3385,546.3521,284.5052,550.5188,280.3385" style="stroke:#2FA4E7;stroke-width:1.0417;"/><line style="stroke:#2FA4E7;stroke-width:3.125;" x1="158.0363" x2="552.6021" y1="280.3385" y2="280.3385"/><text fill="#1E90FF" font-family="Verdana" font-size="12.5" font-weight="bold" lengthAdjust="spacing" textLength="8.6975" x="170.5363" y="270.0989">3</text><text fill="#1E90FF" font-family="Verdana" font-size="12.5" lengthAdjust="spacing" textLength="76.532" x="193.8171" y="270.0989">POST /token</text><path d="M574.4771,298.0469 L574.4771,367.8385 A4.1667,4.1667 0 0 0 578.6438,372.0052 L813.0188,372.0052 A4.1667,4.1667 0 0 0 817.1855,367.8385 L817.1855,304.2969 L806.7688,293.8802 L578.6438,293.8802 A4.1667,4.1667 0 0 0 574.4771,298.0469" fill="#A9A9A9" style="stroke:#033C73;stroke-width:1.0417;"/><path d="M806.7688,293.8802 L806.7688,302.2135 A2.0833,2.0833 0 0 0 808.8521,304.2969 L817.1855,304.2969 L806.7688,293.8802" fill="#A9A9A9" style="stroke:#033C73;stroke-width:1.0417;"/><text fill="#FFFFFF" font-family="Verdana" font-size="12.5" lengthAdjust="spacing" textLength="51.9897" x="585.9355" y="315.8997">client_id</text><text fill="#FFFFFF" font-family="Verdana" font-size="12.5" lengthAdjust="spacing" textLength="79.3884" x="585.9355" y="330.4504">client_secret</text><text fill="#FFFFFF" font-family="Verdana" font-size="12.5" font-weight="bold" lengthAdjust="spacing" textLength="211.0718" x="585.9355" y="345.0012">grant_type=client_credentials</text><text fill="#FFFFFF" font-family="Verdana" font-size="12.5" lengthAdjust="spacing" textLength="36.6577" x="585.9355" y="359.552">scope</text><polygon fill="#2FA4E7" points="169.4946,405.1758,159.078,409.3424,169.4946,413.5091,165.328,409.3424" style="stroke:#2FA4E7;stroke-width:1.0417;"/><line style="stroke:#2FA4E7;stroke-width:3.125;stroke-dasharray:2.0,2.0;" x1="163.2446" x2="557.8105" y1="409.3424" y2="409.3424"/><text fill="#1E90FF" font-family="Verdana" font-size="12.5" font-weight="bold" lengthAdjust="spacing" textLength="8.6975" x="180.953" y="399.1028">4</text><text fill="#1E90FF" font-family="Verdana" font-size="12.5" lengthAdjust="spacing" textLength="45.8679" x="204.2338" y="399.1028">200 OK</text><path d="M35.4167,387.5 L35.4167,413.5417 A4.1667,4.1667 0 0 0 39.5833,417.7083 L147.9167,417.7083 A4.1667,4.1667 0 0 0 152.0833,413.5417 L152.0833,393.75 L141.6667,383.3333 L39.5833,383.3333 A4.1667,4.1667 0 0 0 35.4167,387.5" fill="#FF0000" style="stroke:#033C73;stroke-width:1.0417;"/><path d="M141.6667,383.3333 L141.6667,391.6667 A2.0833,2.0833 0 0 0 143.75,393.75 L152.0833,393.75 L141.6667,383.3333" fill="#FF0000" style="stroke:#033C73;stroke-width:1.0417;"/><text fill="#FFFFFF" font-family="Verdana" font-size="12.5" lengthAdjust="spacing" textLength="85.1196" x="46.875" y="405.3528">Access Token</text><text fill="#2FA4E7" font-family="Verdana" font-size="10.4167" lengthAdjust="spacing" textLength="67.1641" x="472.7702" y="521.0622">01-05-20225</text><!--SRC=[RP1DJm8n48Rl_HKZt4Y0bO164aqGX8E96ELEIdTsQUXsDjDP2Vvwoxf8C9mw7y-yyqvlP8i5Wa6k76hVfKgSzQXkIjPveK6Gla6uGYLM7CB7V0ftzyE7_h0tL1cH84Dosqr6tK4o68nKs5bVQjO5J9XfFoSlKtB4CACqHtvsKUdClCNvCxBVMa6bOakiiQNs0gqzRc0JXG9o2tGunT3EChmaTLds8jqpLDHapAzHbMmliLYumZ46gjZW1Nig_l8gZf8sOh-q892lSryL6sIbSgQgXBxG3hs2FzlTfzhN61OlA-WxoksnooWLUnWa2InV_z57UsDuNtwkpce0FduSiCst0fGrDymqxnQi3pK0O9n5BskRNkO1JLpNr3gTdEEvQpcK-DW0iPt6rseNEfs62uPAh6FqQRtyYklQayDCe1qbQdfY38O0gyRtQVW7]--></g></svg>