<svg xmlns="http://www.w3.org/2000/svg" xmlns:xlink="http://www.w3.org/1999/xlink" contentStyleType="text/css" data-diagram-type="SEQUENCE" height="806.25px" preserveAspectRatio="none" style="width:955px;height:806px;" version="1.1" viewBox="0 0 955 806" width="955.2083px" zoomAndPan="magnify"><title>RFC 6749/4.2</title><defs/><g><rect fill="none" height="47.168" rx="4.1667" ry="4.1667" style="stroke:#BABDBF;stroke-width:1.0417;" width="178.2308" x="462.1124" y="20.8333"/><text fill="#2FA4E7" font-family="Verdana" font-size="20.8333" font-weight="bold" lengthAdjust="spacing" textLength="155.3141" x="473.5708" y="51.6296">RFC 6749/4.2</text><g><title>web browser</title><rect fill="#000000" fill-opacity="0.00000" height="576.5299" width="8.3333" x="154.3905" y="120.0521"/><line style="stroke:#BABDBF;stroke-width:1.0417;stroke-dasharray:5.0,5.0;" x1="158.0363" x2="158.0363" y1="120.0521" y2="696.582"/></g><g><title>app.web.com</title><rect fill="#000000" fill-opacity="0.00000" height="576.5299" width="8.3333" x="444.9565" y="120.0521"/><line style="stroke:#BABDBF;stroke-width:1.0417;stroke-dasharray:5.0,5.0;" x1="448.6023" x2="448.6023" y1="120.0521" y2="696.582"/></g><g><title/><rect fill="none" height="39.5508" style="stroke:#BABDBF;stroke-width:1.0417;" width="10.4167" x="443.394" y="201.237"/></g><g><title/><rect fill="none" height="39.5508" style="stroke:#BABDBF;stroke-width:1.0417;" width="10.4167" x="443.394" y="623.6979"/></g><g><title>auth.web.com</title><rect fill="#000000" fill-opacity="0.00000" height="576.5299" width="8.3333" x="650.1658" y="120.0521"/><line style="stroke:#BABDBF;stroke-width:1.0417;stroke-dasharray:5.0,5.0;" x1="653.8116" x2="653.8116" y1="120.0521" y2="696.582"/></g><g><title/><rect fill="none" height="89.4531" style="stroke:#BABDBF;stroke-width:1.0417;" width="10.4167" x="648.6033" y="280.3385"/></g><g><title/><rect fill="none" height="39.5508" style="stroke:#BABDBF;stroke-width:1.0417;" width="10.4167" x="648.6033" y="409.3424"/></g><g><title/><rect fill="none" height="89.4531" style="stroke:#BABDBF;stroke-width:1.0417;" width="10.4167" x="648.6033" y="488.444"/></g><g><title>resource.web.com</title><rect fill="#000000" fill-opacity="0.00000" height="576.5299" width="8.3333" x="870.9178" y="120.0521"/><line style="stroke:#BABDBF;stroke-width:1.0417;stroke-dasharray:5.0,5.0;" x1="874.5636" x2="874.5636" y1="120.0521" y2="696.582"/></g><rect fill="#FFFFEE" height="39.5508" rx="4.1667" ry="4.1667" style="stroke:#2FA4E7;stroke-width:1.0417;" width="105.1086" x="105.482" y="79.4596"/><text fill="#2FA4E7" font-family="Verdana" font-size="12.5" lengthAdjust="spacing" textLength="80.1086" x="117.982" y="103.5624">web browser</text><rect fill="#FFFFEE" height="39.5508" rx="4.1667" ry="4.1667" style="stroke:#2FA4E7;stroke-width:1.0417;" width="109.021" x="394.0918" y="79.4596"/><text fill="#2FA4E7" font-family="Verdana" font-size="12.5" lengthAdjust="spacing" textLength="84.021" x="406.5918" y="103.5624">app.web.com</text><rect fill="#FFFFEE" height="39.5508" rx="4.1667" ry="4.1667" style="stroke:#2FA4E7;stroke-width:1.0417;" width="113.8977" x="596.8628" y="79.4596"/><text fill="#2FA4E7" font-family="Verdana" font-size="12.5" lengthAdjust="spacing" textLength="88.8977" x="609.3628" y="103.5624">auth.web.com</text><rect fill="#FFFFEE" height="39.5508" rx="4.1667" ry="4.1667" style="stroke:#2FA4E7;stroke-width:1.0417;" width="140.1062" x="804.5105" y="79.4596"/><text fill="#2FA4E7" font-family="Verdana" font-size="12.5" lengthAdjust="spacing" textLength="115.1062" x="817.0105" y="103.5624">resource.web.com</text><rect fill="#FFFFEE" height="39.5508" rx="4.1667" ry="4.1667" style="stroke:#2FA4E7;stroke-width:1.0417;" width="105.1086" x="105.482" y="696.582"/><text fill="#2FA4E7" font-family="Verdana" font-size="12.5" lengthAdjust="spacing" textLength="80.1086" x="117.982" y="720.6848">web browser</text><rect fill="#FFFFEE" height="39.5508" rx="4.1667" ry="4.1667" style="stroke:#2FA4E7;stroke-width:1.0417;" width="109.021" x="394.0918" y="696.582"/><text fill="#2FA4E7" font-family="Verdana" font-size="12.5" lengthAdjust="spacing" textLength="84.021" x="406.5918" y="720.6848">app.web.com</text><rect fill="#FFFFEE" height="39.5508" rx="4.1667" ry="4.1667" style="stroke:#2FA4E7;stroke-width:1.0417;" width="113.8977" x="596.8628" y="696.582"/><text fill="#2FA4E7" font-family="Verdana" font-size="12.5" lengthAdjust="spacing" textLength="88.8977" x="609.3628" y="720.6848">auth.web.com</text><rect fill="#FFFFEE" height="39.5508" rx="4.1667" ry="4.1667" style="stroke:#2FA4E7;stroke-width:1.0417;" width="140.1062" x="804.5105" y="696.582"/><text fill="#2FA4E7" font-family="Verdana" font-size="12.5" lengthAdjust="spacing" textLength="115.1062" x="817.0105" y="720.6848">resource.web.com</text><path d="M17.7083,132.5521 L142.3971,132.5521 L142.3971,149.1862 L131.9804,159.6029 L13.5417,159.6029 L13.5417,136.7188 A4.1667,4.1667 0 0 1 17.7083,132.5521" fill="#E9ECEF" style="stroke:#868E96;stroke-width:1.0417;"/><rect fill="none" height="539.0299" rx="4.1667" ry="4.1667" style="stroke:#2FA4E7;stroke-width:1.0417;" width="926.3682" x="13.5417" y="132.5521"/><text fill="#033C73" font-family="Verdana" font-size="12.5" font-weight="bold" lengthAdjust="spacing" textLength="71.5637" x="34.375" y="150.4049">/authorize</text><polygon fill="#2FA4E7" points="430.894,197.0703,441.3106,201.237,430.894,205.4036,435.0606,201.237" style="stroke:#2FA4E7;stroke-width:1.0417;"/><line style="stroke:#2FA4E7;stroke-width:3.125;" x1="158.0363" x2="437.144" y1="201.237" y2="201.237"/><text fill="#1E90FF" font-family="Verdana" font-size="12.5" font-weight="bold" lengthAdjust="spacing" textLength="8.6975" x="170.5363" y="190.9973">1</text><text fill="#1E90FF" font-family="Verdana" font-size="12.5" lengthAdjust="spacing" textLength="63.855" x="193.8171" y="190.9973">GET /login</text><polygon fill="#2FA4E7" points="169.4946,236.6211,159.078,240.7878,169.4946,244.9544,165.328,240.7878" style="stroke:#2FA4E7;stroke-width:1.0417;"/><line style="stroke:#2FA4E7;stroke-width:3.125;stroke-dasharray:2.0,2.0;" x1="163.2446" x2="442.3523" y1="240.7878" y2="240.7878"/><text fill="#1E90FF" font-family="Verdana" font-size="12.5" font-weight="bold" lengthAdjust="spacing" textLength="8.6975" x="180.953" y="230.5481">2</text><text fill="#1E90FF" font-family="Verdana" font-size="12.5" lengthAdjust="spacing" textLength="226.6602" x="204.2338" y="230.5481">302 Found: auth.web.com/authorize</text><polygon fill="#2FA4E7" points="636.1033,276.1719,646.52,280.3385,636.1033,284.5052,640.27,280.3385" style="stroke:#2FA4E7;stroke-width:1.0417;"/><line style="stroke:#2FA4E7;stroke-width:3.125;" x1="158.0363" x2="642.3533" y1="280.3385" y2="280.3385"/><text fill="#1E90FF" font-family="Verdana" font-size="12.5" font-weight="bold" lengthAdjust="spacing" textLength="8.6975" x="170.5363" y="270.0989">3</text><text fill="#1E90FF" font-family="Verdana" font-size="12.5" lengthAdjust="spacing" textLength="92.3218" x="193.8171" y="270.0989">GET /authorize</text><path d="M664.2283,258.4961 L664.2283,328.2878 A4.1667,4.1667 0 0 0 668.395,332.4544 L844.4366,332.4544 A4.1667,4.1667 0 0 0 848.6033,328.2878 L848.6033,264.7461 L838.1866,254.3294 L668.395,254.3294 A4.1667,4.1667 0 0 0 664.2283,258.4961" fill="#A9A9A9" style="stroke:#033C73;stroke-width:1.0417;"/><path d="M838.1866,254.3294 L838.1866,262.6628 A2.0833,2.0833 0 0 0 840.27,264.7461 L848.6033,264.7461 L838.1866,254.3294" fill="#A9A9A9" style="stroke:#033C73;stroke-width:1.0417;"/><text fill="#FFFFFF" font-family="Verdana" font-size="12.5" lengthAdjust="spacing" textLength="51.9897" x="675.6866" y="276.3489">client_id</text><text fill="#FFFFFF" font-family="Verdana" font-size="12.5" font-weight="bold" lengthAdjust="spacing" textLength="152.9602" x="675.6866" y="290.8997">response_type=token</text><text fill="#FFFFFF" font-family="Verdana" font-size="12.5" lengthAdjust="spacing" textLength="36.6577" x="675.6866" y="305.4504">scope</text><text fill="#FFFFFF" font-family="Verdana" font-size="12.5" lengthAdjust="spacing" textLength="31.665" x="675.6866" y="320.0012">state</text><polygon fill="#2FA4E7" points="169.4946,365.625,159.078,369.7917,169.4946,373.9583,165.328,369.7917" style="stroke:#2FA4E7;stroke-width:1.0417;"/><line style="stroke:#2FA4E7;stroke-width:3.125;stroke-dasharray:2.0,2.0;" x1="163.2446" x2="647.5616" y1="369.7917" y2="369.7917"/><text fill="#1E90FF" font-family="Verdana" font-size="12.5" font-weight="bold" lengthAdjust="spacing" textLength="8.6975" x="180.953" y="359.552">4</text><text fill="#1E90FF" font-family="Verdana" font-size="12.5" lengthAdjust="spacing" textLength="233.8074" x="204.2338" y="359.552">302 Found: auth.web.com/login_form</text><polygon fill="#2FA4E7" points="636.1033,405.1758,646.52,409.3424,636.1033,413.5091,640.27,409.3424" style="stroke:#2FA4E7;stroke-width:1.0417;"/><line style="stroke:#2FA4E7;stroke-width:3.125;" x1="158.0363" x2="642.3533" y1="409.3424" y2="409.3424"/><text fill="#1E90FF" font-family="Verdana" font-size="12.5" font-weight="bold" lengthAdjust="spacing" textLength="8.6975" x="170.5363" y="399.1028">5</text><text fill="#1E90FF" font-family="Verdana" font-size="12.5" lengthAdjust="spacing" textLength="99.469" x="193.8171" y="399.1028">GET /login_form</text><polygon fill="#2FA4E7" points="169.4946,444.7266,159.078,448.8932,169.4946,453.0599,165.328,448.8932" style="stroke:#2FA4E7;stroke-width:1.0417;"/><line style="stroke:#2FA4E7;stroke-width:3.125;stroke-dasharray:2.0,2.0;" x1="163.2446" x2="647.5616" y1="448.8932" y2="448.8932"/><text fill="#1E90FF" font-family="Verdana" font-size="12.5" font-weight="bold" lengthAdjust="spacing" textLength="8.6975" x="180.953" y="438.6536">6</text><text fill="#1E90FF" font-family="Verdana" font-size="12.5" lengthAdjust="spacing" textLength="45.8679" x="204.2338" y="438.6536">200 OK</text><polygon fill="#2FA4E7" points="636.1033,484.2773,646.52,488.444,636.1033,492.6107,640.27,488.444" style="stroke:#2FA4E7;stroke-width:1.0417;"/><line style="stroke:#2FA4E7;stroke-width:3.125;" x1="158.0363" x2="642.3533" y1="488.444" y2="488.444"/><text fill="#1E90FF" font-family="Verdana" font-size="12.5" font-weight="bold" lengthAdjust="spacing" textLength="8.6975" x="170.5363" y="478.2043">7</text><text fill="#1E90FF" font-family="Verdana" font-size="12.5" lengthAdjust="spacing" textLength="107.196" x="193.8171" y="478.2043">POST /login_form</text><path d="M664.2283,466.6016 L664.2283,536.3932 A4.1667,4.1667 0 0 0 668.395,540.5599 L913.1866,540.5599 A4.1667,4.1667 0 0 0 917.3533,536.3932 L917.3533,472.8516 L906.9366,462.4349 L668.395,462.4349 A4.1667,4.1667 0 0 0 664.2283,466.6016" fill="#A9A9A9" style="stroke:#033C73;stroke-width:1.0417;"/><path d="M906.9366,462.4349 L906.9366,470.7682 A2.0833,2.0833 0 0 0 909.02,472.8516 L917.3533,472.8516 L906.9366,462.4349" fill="#A9A9A9" style="stroke:#033C73;stroke-width:1.0417;"/><text fill="#FFFFFF" font-family="Verdana" font-size="12.5" lengthAdjust="spacing" textLength="221.5149" x="675.6866" y="484.4543">redirect_uri=app.web.com/callback</text><text fill="#FFFFFF" font-family="Verdana" font-size="12.5" lengthAdjust="spacing" textLength="62.7136" x="675.6866" y="499.0051">username</text><text fill="#FFFFFF" font-family="Verdana" font-size="12.5" lengthAdjust="spacing" textLength="59.5642" x="675.6866" y="513.5559">password</text><text fill="#FFFFFF" font-family="Verdana" font-size="12.5" lengthAdjust="spacing" textLength="23.6938" x="675.6866" y="528.1067">2FA</text><polygon fill="#2FA4E7" points="169.4946,573.7305,159.078,577.8971,169.4946,582.0638,165.328,577.8971" style="stroke:#2FA4E7;stroke-width:1.0417;"/><line style="stroke:#2FA4E7;stroke-width:3.125;stroke-dasharray:2.0,2.0;" x1="163.2446" x2="647.5616" y1="577.8971" y2="577.8971"/><text fill="#1E90FF" font-family="Verdana" font-size="12.5" font-weight="bold" lengthAdjust="spacing" textLength="8.6975" x="180.953" y="567.6575">8</text><text fill="#1E90FF" font-family="Verdana" font-size="12.5" lengthAdjust="spacing" textLength="214.0503" x="204.2338" y="567.6575">302 Found: app.web.com/callback</text><path d="M35.4167,556.0547 L35.4167,582.0964 A4.1667,4.1667 0 0 0 39.5833,586.263 L147.9167,586.263 A4.1667,4.1667 0 0 0 152.0833,582.0964 L152.0833,562.3047 L141.6667,551.888 L39.5833,551.888 A4.1667,4.1667 0 0 0 35.4167,556.0547" fill="#FF0000" style="stroke:#033C73;stroke-width:1.0417;"/><path d="M141.6667,551.888 L141.6667,560.2214 A2.0833,2.0833 0 0 0 143.75,562.3047 L152.0833,562.3047 L141.6667,551.888" fill="#FF0000" style="stroke:#033C73;stroke-width:1.0417;"/><text fill="#FFFFFF" font-family="Verdana" font-size="12.5" lengthAdjust="spacing" textLength="85.1196" x="46.875" y="573.9075">Access Token</text><polygon fill="#2FA4E7" points="430.894,619.5313,441.3106,623.6979,430.894,627.8646,435.0606,623.6979" style="stroke:#2FA4E7;stroke-width:1.0417;"/><line style="stroke:#2FA4E7;stroke-width:3.125;" x1="158.0363" x2="437.144" y1="623.6979" y2="623.6979"/><text fill="#1E90FF" font-family="Verdana" font-size="12.5" font-weight="bold" lengthAdjust="spacing" textLength="8.6975" x="170.5363" y="613.4583">9</text><text fill="#1E90FF" font-family="Verdana" font-size="12.5" lengthAdjust="spacing" textLength="84.5886" x="193.8171" y="613.4583">GET /callback</text><polygon fill="#2FA4E7" points="169.4946,659.082,159.078,663.2487,169.4946,667.4154,165.328,663.2487" style="stroke:#2FA4E7;stroke-width:1.0417;"/><line style="stroke:#2FA4E7;stroke-width:3.125;stroke-dasharray:2.0,2.0;" x1="163.2446" x2="442.3523" y1="663.2487" y2="663.2487"/><text fill="#1E90FF" font-family="Verdana" font-size="12.5" font-weight="bold" lengthAdjust="spacing" textLength="17.395" x="180.953" y="653.009">10</text><text fill="#1E90FF" font-family="Verdana" font-size="12.5" lengthAdjust="spacing" textLength="45.8679" x="212.9313" y="653.009">200 OK</text><text fill="#2FA4E7" font-family="Verdana" font-size="10.4167" lengthAdjust="spacing" textLength="67.1641" x="517.6458" y="768.7185">01-05-20225</text><!--SRC=[ZP91Rzim38Nl-XLiUmkGnFFQ3IlG0Lcxz31W7RRU0qMc7I6oQ53KWlRNJz7iDHvSR3TH_FZq7g4psM6BO92ZG-td5CLPZ-giOzsq6WJf6OGZAh7Y4BwlR-7T-yiFoyj5gMeYGORYpRoucfT5MLwfiBU-qwnRM37JOKrURiaHmnrL3V8dbvHUcAzf_WKvxAoWKgabrjXEUu7p0svXcuG2yZdeC9pXegvnJEgkMoHwOQZDPAgdg2YxCPOk9ZZ6G94DZjZXyZUlqYXf8_Qd5WJokVQntI8hrJ353fP7TMBxZ0h-M9z_pDwkuVxp8omTDTQdBgD4zl2sA65DqLVNS6hrLQ6Z-rxf507mQRN0jja9NDnftjypFkK6W74MlMnirTUpMGhMaG-uaQSERuJsw6UplXiCTJYS9KNDP_HLVkBVpdF0JKtSlcvznFHwPL70mvV9cMyFF_uUcWgiXy2CbMKqiebiRqx-oT9evxRQx7ikfcUyReUqdGxXG3oigLol_YFwj7esvx1EtfAPBBCo1aE0n-EorKXr-gESg8qtT9pCt-qN]--></g></svg>