<svg xmlns="http://www.w3.org/2000/svg" xmlns:xlink="http://www.w3.org/1999/xlink" contentStyleType="text/css" data-diagram-type="SEQUENCE" height="520.8333px" preserveAspectRatio="none" style="width:914px;height:520px;" version="1.1" viewBox="0 0 914 520" width="914.5833px" zoomAndPan="magnify"><title>Fetching resources</title><defs/><g><rect fill="none" height="47.168" rx="4.1667" ry="4.1667" style="stroke:#BABDBF;stroke-width:1.0417;" width="247.6583" x="360.4441" y="20.8333"/><text fill="#2FA4E7" font-family="Verdana" font-size="20.8333" font-weight="bold" lengthAdjust="spacing" textLength="224.7416" x="371.9025" y="51.6296">Fetching resources</text><g><title>web browser</title><rect fill="#000000" fill-opacity="0.00000" height="291.4714" width="8.3333" x="123.8851" y="120.0521"/><line style="stroke:#BABDBF;stroke-width:1.0417;stroke-dasharray:5.0,5.0;" x1="127.5309" x2="127.5309" y1="120.0521" y2="411.5234"/></g><g><title>app.web.com</title><rect fill="#000000" fill-opacity="0.00000" height="291.4714" width="8.3333" x="324.6999" y="120.0521"/><line style="stroke:#BABDBF;stroke-width:1.0417;stroke-dasharray:5.0,5.0;" x1="328.3457" x2="328.3457" y1="120.0521" y2="411.5234"/></g><g><title>auth.web.com</title><rect fill="#000000" fill-opacity="0.00000" height="291.4714" width="8.3333" x="529.9093" y="120.0521"/><line style="stroke:#BABDBF;stroke-width:1.0417;stroke-dasharray:5.0,5.0;" x1="533.5551" x2="533.5551" y1="120.0521" y2="411.5234"/></g><g><title>resource.web.com</title><rect fill="#000000" fill-opacity="0.00000" height="291.4714" width="8.3333" x="750.6612" y="120.0521"/><line style="stroke:#BABDBF;stroke-width:1.0417;stroke-dasharray:5.0,5.0;" x1="754.307" x2="754.307" y1="120.0521" y2="411.5234"/></g><g><title/><rect fill="none" height="201.9206" style="stroke:#BABDBF;stroke-width:1.0417;" width="10.4167" x="749.0987" y="170.0195"/></g><rect fill="none" height="39.5508" rx="4.1667" ry="4.1667" style="stroke:#2FA4E7;stroke-width:1.0417;" width="105.1086" x="74.9766" y="79.4596"/><text fill="#2FA4E7" font-family="Verdana" font-size="12.5" lengthAdjust="spacing" textLength="80.1086" x="87.4766" y="103.5624">web browser</text><rect fill="none" height="39.5508" rx="4.1667" ry="4.1667" style="stroke:#2FA4E7;stroke-width:1.0417;" width="109.021" x="273.8352" y="79.4596"/><text fill="#2FA4E7" font-family="Verdana" font-size="12.5" lengthAdjust="spacing" textLength="84.021" x="286.3352" y="103.5624">app.web.com</text><rect fill="none" height="39.5508" rx="4.1667" ry="4.1667" style="stroke:#2FA4E7;stroke-width:1.0417;" width="113.8977" x="476.6062" y="79.4596"/><text fill="#2FA4E7" font-family="Verdana" font-size="12.5" lengthAdjust="spacing" textLength="88.8977" x="489.1062" y="103.5624">auth.web.com</text><rect fill="none" height="39.5508" rx="4.1667" ry="4.1667" style="stroke:#2FA4E7;stroke-width:1.0417;" width="140.1062" x="684.2539" y="79.4596"/><text fill="#2FA4E7" font-family="Verdana" font-size="12.5" lengthAdjust="spacing" textLength="115.1062" x="696.7539" y="103.5624">resource.web.com</text><rect fill="none" height="39.5508" rx="4.1667" ry="4.1667" style="stroke:#2FA4E7;stroke-width:1.0417;" width="105.1086" x="74.9766" y="411.5234"/><text fill="#2FA4E7" font-family="Verdana" font-size="12.5" lengthAdjust="spacing" textLength="80.1086" x="87.4766" y="435.6262">web browser</text><rect fill="none" height="39.5508" rx="4.1667" ry="4.1667" style="stroke:#2FA4E7;stroke-width:1.0417;" width="109.021" x="273.8352" y="411.5234"/><text fill="#2FA4E7" font-family="Verdana" font-size="12.5" lengthAdjust="spacing" textLength="84.021" x="286.3352" y="435.6262">app.web.com</text><rect fill="none" height="39.5508" rx="4.1667" ry="4.1667" style="stroke:#2FA4E7;stroke-width:1.0417;" width="113.8977" x="476.6062" y="411.5234"/><text fill="#2FA4E7" font-family="Verdana" font-size="12.5" lengthAdjust="spacing" textLength="88.8977" x="489.1062" y="435.6262">auth.web.com</text><rect fill="none" height="39.5508" rx="4.1667" ry="4.1667" style="stroke:#2FA4E7;stroke-width:1.0417;" width="140.1062" x="684.2539" y="411.5234"/><text fill="#2FA4E7" font-family="Verdana" font-size="12.5" lengthAdjust="spacing" textLength="115.1062" x="696.7539" y="435.6262">resource.web.com</text><path d="M17.7083,132.5521 L210.5489,132.5521 L210.5489,149.1862 L200.1322,159.6029 L13.5417,159.6029 L13.5417,136.7188 A4.1667,4.1667 0 0 1 17.7083,132.5521" fill="#E9ECEF" style="stroke:#868E96;stroke-width:1.0417;"/><rect fill="none" height="253.9714" rx="4.1667" ry="4.1667" style="stroke:#2FA4E7;stroke-width:1.0417;" width="890.4683" x="13.5417" y="132.5521"/><text fill="#033C73" font-family="Verdana" font-size="12.5" font-weight="bold" lengthAdjust="spacing" textLength="139.7156" x="34.375" y="150.4049">/protected/resource</text><polygon fill="#2FA4E7" points="736.5987,197.0703,747.0154,201.237,736.5987,205.4036,740.7654,201.237" style="stroke:#2FA4E7;stroke-width:1.0417;"/><line style="stroke:#2FA4E7;stroke-width:3.125;" x1="127.5309" x2="742.8487" y1="201.237" y2="201.237"/><text fill="#1E90FF" font-family="Verdana" font-size="12.5" font-weight="bold" lengthAdjust="spacing" textLength="8.6975" x="140.0309" y="190.9973">1</text><text fill="#1E90FF" font-family="Verdana" font-size="12.5" lengthAdjust="spacing" textLength="152.9419" x="163.3118" y="190.9973">GET /protected/resource</text><path d="M764.7237,179.3945 L764.7237,205.4362 A4.1667,4.1667 0 0 0 768.8904,209.6029 L877.2237,209.6029 A4.1667,4.1667 0 0 0 881.3904,205.4362 L881.3904,185.6445 L870.9737,175.2279 L768.8904,175.2279 A4.1667,4.1667 0 0 0 764.7237,179.3945" fill="#FF0000" style="stroke:#033C73;stroke-width:1.0417;"/><path d="M870.9737,175.2279 L870.9737,183.5612 A2.0833,2.0833 0 0 0 873.057,185.6445 L881.3904,185.6445 L870.9737,175.2279" fill="#FF0000" style="stroke:#033C73;stroke-width:1.0417;"/><text fill="#FFFFFF" font-family="Verdana" font-size="12.5" lengthAdjust="spacing" textLength="85.1196" x="776.182" y="197.2473">Access Token</text><polygon fill="#2FA4E7" points="545.0134,242.8711,534.5968,247.0378,545.0134,251.2044,540.8468,247.0378" style="stroke:#2FA4E7;stroke-width:1.0417;"/><line style="stroke:#2FA4E7;stroke-width:3.125;" x1="538.7634" x2="748.057" y1="247.0378" y2="247.0378"/><text fill="#1E90FF" font-family="Verdana" font-size="12.5" font-weight="bold" lengthAdjust="spacing" textLength="8.6975" x="556.4718" y="236.7981">2</text><text fill="#1E90FF" font-family="Verdana" font-size="12.5" lengthAdjust="spacing" textLength="67.2058" x="579.7526" y="236.7981">/introspect</text><polygon fill="#2FA4E7" points="736.5987,282.4219,747.0154,286.5885,736.5987,290.7552,740.7654,286.5885" style="stroke:#2FA4E7;stroke-width:1.0417;"/><line style="stroke:#2FA4E7;stroke-width:3.125;stroke-dasharray:2.0,2.0;" x1="533.5551" x2="742.8487" y1="286.5885" y2="286.5885"/><text fill="#1E90FF" font-family="Verdana" font-size="12.5" font-weight="bold" lengthAdjust="spacing" textLength="8.6975" x="546.0551" y="276.3489">3</text><text fill="#1E90FF" font-family="Verdana" font-size="12.5" lengthAdjust="spacing" textLength="45.8679" x="569.3359" y="276.3489">200 OK</text><polygon fill="#2FA4E7" points="138.9893,321.9727,128.5726,326.1393,138.9893,330.306,134.8226,326.1393" style="stroke:#2FA4E7;stroke-width:1.0417;"/><line style="stroke:#2FA4E7;stroke-width:3.125;stroke-dasharray:2.0,2.0;" x1="132.7393" x2="748.057" y1="326.1393" y2="326.1393"/><text fill="#1E90FF" font-family="Verdana" font-size="12.5" font-weight="bold" lengthAdjust="spacing" textLength="8.6975" x="150.4476" y="315.8997">4</text><text fill="#1E90FF" font-family="Verdana" font-size="12.5" lengthAdjust="spacing" textLength="111.7554" x="173.7284" y="315.8997">401 Unauthorized</text><path d="M764.7237,304.2969 L764.7237,330.3385 A4.1667,4.1667 0 0 0 768.8904,334.5052 L876.182,334.5052 A4.1667,4.1667 0 0 0 880.3487,330.3385 L880.3487,310.5469 L869.932,300.1302 L768.8904,300.1302 A4.1667,4.1667 0 0 0 764.7237,304.2969" fill="#A9A9A9" style="stroke:#033C73;stroke-width:1.0417;"/><path d="M869.932,300.1302 L869.932,308.4635 A2.0833,2.0833 0 0 0 872.0154,310.5469 L880.3487,310.5469 L869.932,300.1302" fill="#A9A9A9" style="stroke:#033C73;stroke-width:1.0417;"/><text fill="#FFFFFF" font-family="Verdana" font-size="12.5" lengthAdjust="spacing" textLength="83.6548" x="776.182" y="322.1497">Invalid Token</text><polygon fill="#2FA4E7" points="138.9893,367.7734,128.5726,371.9401,138.9893,376.1068,134.8226,371.9401" style="stroke:#2FA4E7;stroke-width:1.0417;"/><line style="stroke:#2FA4E7;stroke-width:3.125;stroke-dasharray:2.0,2.0;" x1="132.7393" x2="748.057" y1="371.9401" y2="371.9401"/><text fill="#1E90FF" font-family="Verdana" font-size="12.5" font-weight="bold" lengthAdjust="spacing" textLength="8.6975" x="150.4476" y="361.7004">5</text><text fill="#1E90FF" font-family="Verdana" font-size="12.5" lengthAdjust="spacing" textLength="45.8679" x="173.7284" y="361.7004">200 OK</text><path d="M764.7237,350.0977 L764.7237,376.1393 A4.1667,4.1667 0 0 0 768.8904,380.306 L865.7654,380.306 A4.1667,4.1667 0 0 0 869.932,376.1393 L869.932,356.3477 L859.5154,345.931 L768.8904,345.931 A4.1667,4.1667 0 0 0 764.7237,350.0977" fill="#A9A9A9" style="stroke:#033C73;stroke-width:1.0417;"/><path d="M859.5154,345.931 L859.5154,354.2643 A2.0833,2.0833 0 0 0 861.5987,356.3477 L869.932,356.3477 L859.5154,345.931" fill="#A9A9A9" style="stroke:#033C73;stroke-width:1.0417;"/><text fill="#FFFFFF" font-family="Verdana" font-size="12.5" lengthAdjust="spacing" textLength="73.1995" x="776.182" y="367.9504">Valid Token</text><path d="M35.4167,350.0977 L35.4167,376.1393 A4.1667,4.1667 0 0 0 39.5833,380.306 L117.7083,380.306 A4.1667,4.1667 0 0 0 121.875,376.1393 L121.875,356.3477 L111.4583,345.931 L39.5833,345.931 A4.1667,4.1667 0 0 0 35.4167,350.0977" fill="#DAA520" style="stroke:#033C73;stroke-width:1.0417;"/><path d="M111.4583,345.931 L111.4583,354.2643 A2.0833,2.0833 0 0 0 113.5417,356.3477 L121.875,356.3477 L111.4583,345.931" fill="#DAA520" style="stroke:#033C73;stroke-width:1.0417;"/><text fill="#FFFFFF" font-family="Verdana" font-size="12.5" lengthAdjust="spacing" textLength="54.6143" x="46.875" y="367.9504">resource</text><text fill="#2FA4E7" font-family="Verdana" font-size="10.4167" lengthAdjust="spacing" textLength="67.1641" x="450.6912" y="483.6599">01-05-20225</text><!--SRC=[VP51Jy9048Nl-oj6F1TA8nSE9YX2Z8ac1hqlxT1kQ7UQwHGYlzwXGcarUDjz-xqtRtTl9CC28KQkSxG-e5fovz7Sb6pJme8W7K2uHYDESeG5Ifmvdm9ZHJN7M9aDaI13E0x2IH25KJGnrTRvqh8jOCPC-mLvUQIS6EQKfCWFkUPTc5VrNv1zvWIDqIDniIkj5nZiSGrh3QgG1s2hyxeFsR8SAZYCgMWWtVy2QidwX0fzv7oh7dOMZL43-RfOwsYJCjKbZ4hMzh5WCcen01kBsrb1w6YdpX3SjofCOVcqkfBXwUXtQIPmovYe0Z2BzS4hMD4MlGheamRJPHkfySThQVJ8UM6gIark0AdPGnI6yFRICwZZr6qAT-4OFlmnWDWTcgdT7dFBsoNZLrFcsUzixfB_stJ3szbN8p-l1JQE73TgM5AUe7-ddnVfF5W7J_3l3noFcp_x1W00]--></g></svg>