<svg xmlns="http://www.w3.org/2000/svg" xmlns:xlink="http://www.w3.org/1999/xlink" contentStyleType="text/css" data-diagram-type="SEQUENCE" height="1087.5px" preserveAspectRatio="none" style="width:990px;height:1087px;" version="1.1" viewBox="0 0 990 1087" width="990.625px" zoomAndPan="magnify"><title>RFC 6749/4.1</title><defs/><g><rect fill="none" height="47.168" rx="4.1667" ry="4.1667" style="stroke:#BABDBF;stroke-width:1.0417;" width="178.2308" x="513.9771" y="20.8333"/><text fill="#2FA4E7" font-family="Verdana" font-size="20.8333" font-weight="bold" lengthAdjust="spacing" textLength="155.3141" x="525.4354" y="51.6296">RFC 6749/4.1</text><g><title>web browser</title><rect fill="#000000" fill-opacity="0.00000" height="857.4544" width="8.3333" x="188.9669" y="120.0521"/><line style="stroke:#BABDBF;stroke-width:1.0417;stroke-dasharray:5.0,5.0;" x1="192.6127" x2="192.6127" y1="120.0521" y2="977.5065"/></g><g><title>app.web.com</title><rect fill="#000000" fill-opacity="0.00000" height="857.4544" width="8.3333" x="479.5329" y="120.0521"/><line style="stroke:#BABDBF;stroke-width:1.0417;stroke-dasharray:5.0,5.0;" x1="483.1787" x2="483.1787" y1="120.0521" y2="977.5065"/></g><g><title/><rect fill="none" height="39.5508" style="stroke:#BABDBF;stroke-width:1.0417;" width="10.4167" x="477.9704" y="201.237"/></g><g><title/><rect fill="none" height="39.5508" style="stroke:#BABDBF;stroke-width:1.0417;" width="10.4167" x="477.9704" y="652.7995"/></g><g><title>auth.web.com</title><rect fill="#000000" fill-opacity="0.00000" height="857.4544" width="8.3333" x="684.7422" y="120.0521"/><line style="stroke:#BABDBF;stroke-width:1.0417;stroke-dasharray:5.0,5.0;" x1="688.3881" x2="688.3881" y1="120.0521" y2="977.5065"/></g><g><title/><rect fill="none" height="133.1055" style="stroke:#BABDBF;stroke-width:1.0417;" width="10.4167" x="683.1797" y="280.3385"/></g><g><title/><rect fill="none" height="39.5508" style="stroke:#BABDBF;stroke-width:1.0417;" width="10.4167" x="683.1797" y="452.9948"/></g><g><title/><rect fill="none" height="74.9023" style="stroke:#BABDBF;stroke-width:1.0417;" width="10.4167" x="683.1797" y="532.0964"/></g><g><title/><rect fill="none" height="149.8047" style="stroke:#BABDBF;stroke-width:1.0417;" width="10.4167" x="683.1797" y="788.1185"/></g><g><title>resource.web.com</title><rect fill="#000000" fill-opacity="0.00000" height="857.4544" width="8.3333" x="905.4942" y="120.0521"/><line style="stroke:#BABDBF;stroke-width:1.0417;stroke-dasharray:5.0,5.0;" x1="909.14" x2="909.14" y1="120.0521" y2="977.5065"/></g><rect fill="#FFFFEE" height="39.5508" rx="4.1667" ry="4.1667" style="stroke:#2FA4E7;stroke-width:1.0417;" width="105.1086" x="140.0584" y="79.4596"/><text fill="#2FA4E7" font-family="Verdana" font-size="12.5" lengthAdjust="spacing" textLength="80.1086" x="152.5584" y="103.5624">web browser</text><rect fill="#FFFFEE" height="39.5508" rx="4.1667" ry="4.1667" style="stroke:#2FA4E7;stroke-width:1.0417;" width="109.021" x="428.6682" y="79.4596"/><text fill="#2FA4E7" font-family="Verdana" font-size="12.5" lengthAdjust="spacing" textLength="84.021" x="441.1682" y="103.5624">app.web.com</text><rect fill="#FFFFEE" height="39.5508" rx="4.1667" ry="4.1667" style="stroke:#2FA4E7;stroke-width:1.0417;" width="113.8977" x="631.4392" y="79.4596"/><text fill="#2FA4E7" font-family="Verdana" font-size="12.5" lengthAdjust="spacing" textLength="88.8977" x="643.9392" y="103.5624">auth.web.com</text><rect fill="#FFFFEE" height="39.5508" rx="4.1667" ry="4.1667" style="stroke:#2FA4E7;stroke-width:1.0417;" width="140.1062" x="839.0869" y="79.4596"/><text fill="#2FA4E7" font-family="Verdana" font-size="12.5" lengthAdjust="spacing" textLength="115.1062" x="851.5869" y="103.5624">resource.web.com</text><rect fill="#FFFFEE" height="39.5508" rx="4.1667" ry="4.1667" style="stroke:#2FA4E7;stroke-width:1.0417;" width="105.1086" x="140.0584" y="977.5065"/><text fill="#2FA4E7" font-family="Verdana" font-size="12.5" lengthAdjust="spacing" textLength="80.1086" x="152.5584" y="1001.6093">web browser</text><rect fill="#FFFFEE" height="39.5508" rx="4.1667" ry="4.1667" style="stroke:#2FA4E7;stroke-width:1.0417;" width="109.021" x="428.6682" y="977.5065"/><text fill="#2FA4E7" font-family="Verdana" font-size="12.5" lengthAdjust="spacing" textLength="84.021" x="441.1682" y="1001.6093">app.web.com</text><rect fill="#FFFFEE" height="39.5508" rx="4.1667" ry="4.1667" style="stroke:#2FA4E7;stroke-width:1.0417;" width="113.8977" x="631.4392" y="977.5065"/><text fill="#2FA4E7" font-family="Verdana" font-size="12.5" lengthAdjust="spacing" textLength="88.8977" x="643.9392" y="1001.6093">auth.web.com</text><rect fill="#FFFFEE" height="39.5508" rx="4.1667" ry="4.1667" style="stroke:#2FA4E7;stroke-width:1.0417;" width="140.1062" x="839.0869" y="977.5065"/><text fill="#2FA4E7" font-family="Verdana" font-size="12.5" lengthAdjust="spacing" textLength="115.1062" x="851.5869" y="1001.6093">resource.web.com</text><path d="M17.7083,132.5521 L142.3971,132.5521 L142.3971,149.1862 L131.9804,159.6029 L13.5417,159.6029 L13.5417,136.7188 A4.1667,4.1667 0 0 1 17.7083,132.5521" fill="#E9ECEF" style="stroke:#868E96;stroke-width:1.0417;"/><rect fill="none" height="568.1315" rx="4.1667" ry="4.1667" style="stroke:#2FA4E7;stroke-width:1.0417;" width="960.9446" x="13.5417" y="132.5521"/><text fill="#033C73" font-family="Verdana" font-size="12.5" font-weight="bold" lengthAdjust="spacing" textLength="71.5637" x="34.375" y="150.4049">/authorize</text><polygon fill="#2FA4E7" points="465.4704,197.0703,475.887,201.237,465.4704,205.4036,469.637,201.237" style="stroke:#2FA4E7;stroke-width:1.0417;"/><line style="stroke:#2FA4E7;stroke-width:3.125;" x1="192.6127" x2="471.7204" y1="201.237" y2="201.237"/><text fill="#1E90FF" font-family="Verdana" font-size="12.5" font-weight="bold" lengthAdjust="spacing" textLength="8.6975" x="205.1127" y="190.9973">1</text><text fill="#1E90FF" font-family="Verdana" font-size="12.5" lengthAdjust="spacing" textLength="63.855" x="228.3936" y="190.9973">GET /login</text><polygon fill="#2FA4E7" points="204.071,236.6211,193.6544,240.7878,204.071,244.9544,199.9044,240.7878" style="stroke:#2FA4E7;stroke-width:1.0417;"/><line style="stroke:#2FA4E7;stroke-width:3.125;stroke-dasharray:2.0,2.0;" x1="197.821" x2="476.9287" y1="240.7878" y2="240.7878"/><text fill="#1E90FF" font-family="Verdana" font-size="12.5" font-weight="bold" lengthAdjust="spacing" textLength="8.6975" x="215.5294" y="230.5481">2</text><text fill="#1E90FF" font-family="Verdana" font-size="12.5" lengthAdjust="spacing" textLength="226.6602" x="238.8102" y="230.5481">302 Found: auth.web.com/authorize</text><polygon fill="#2FA4E7" points="670.6797,276.1719,681.0964,280.3385,670.6797,284.5052,674.8464,280.3385" style="stroke:#2FA4E7;stroke-width:1.0417;"/><line style="stroke:#2FA4E7;stroke-width:3.125;" x1="192.6127" x2="676.9297" y1="280.3385" y2="280.3385"/><text fill="#1E90FF" font-family="Verdana" font-size="12.5" font-weight="bold" lengthAdjust="spacing" textLength="8.6975" x="205.1127" y="270.0989">3</text><text fill="#1E90FF" font-family="Verdana" font-size="12.5" lengthAdjust="spacing" textLength="92.3218" x="228.3936" y="270.0989">GET /authorize</text><path d="M698.8047,258.4961 L698.8047,372.0378 A4.1667,4.1667 0 0 0 702.9714,376.2044 L947.7631,376.2044 A4.1667,4.1667 0 0 0 951.9297,372.0378 L951.9297,264.7461 L941.5131,254.3294 L702.9714,254.3294 A4.1667,4.1667 0 0 0 698.8047,258.4961" fill="#A9A9A9" style="stroke:#033C73;stroke-width:1.0417;"/><path d="M941.5131,254.3294 L941.5131,262.6628 A2.0833,2.0833 0 0 0 943.5964,264.7461 L951.9297,264.7461 L941.5131,254.3294" fill="#A9A9A9" style="stroke:#033C73;stroke-width:1.0417;"/><text fill="#FFFFFF" font-family="Verdana" font-size="12.5" lengthAdjust="spacing" textLength="51.9897" x="710.2631" y="276.3489">client_id</text><text fill="#FFFFFF" font-family="Verdana" font-size="12.5" lengthAdjust="spacing" textLength="97.0337" x="710.2631" y="290.8997">code_challenge</text><text fill="#FFFFFF" font-family="Verdana" font-size="12.5" lengthAdjust="spacing" textLength="151.5564" x="710.2631" y="305.4504">code_challenge_method</text><text fill="#FFFFFF" font-family="Verdana" font-size="12.5" lengthAdjust="spacing" textLength="221.5149" x="710.2631" y="320.0012">redirect_uri=app.web.com/callback</text><text fill="#FFFFFF" font-family="Verdana" font-size="12.5" font-weight="bold" lengthAdjust="spacing" textLength="146.1304" x="710.2631" y="334.552">response_type=code</text><text fill="#FFFFFF" font-family="Verdana" font-size="12.5" lengthAdjust="spacing" textLength="36.6577" x="710.2631" y="349.1028">scope</text><text fill="#FFFFFF" font-family="Verdana" font-size="12.5" lengthAdjust="spacing" textLength="31.665" x="710.2631" y="363.6536">state</text><polygon fill="#2FA4E7" points="204.071,409.2773,193.6544,413.444,204.071,417.6107,199.9044,413.444" style="stroke:#2FA4E7;stroke-width:1.0417;"/><line style="stroke:#2FA4E7;stroke-width:3.125;stroke-dasharray:2.0,2.0;" x1="197.821" x2="682.1381" y1="413.444" y2="413.444"/><text fill="#1E90FF" font-family="Verdana" font-size="12.5" font-weight="bold" lengthAdjust="spacing" textLength="8.6975" x="215.5294" y="403.2043">4</text><text fill="#1E90FF" font-family="Verdana" font-size="12.5" lengthAdjust="spacing" textLength="233.8074" x="238.8102" y="403.2043">302 Found: auth.web.com/login_form</text><polygon fill="#2FA4E7" points="670.6797,448.8281,681.0964,452.9948,670.6797,457.1615,674.8464,452.9948" style="stroke:#2FA4E7;stroke-width:1.0417;"/><line style="stroke:#2FA4E7;stroke-width:3.125;" x1="192.6127" x2="676.9297" y1="452.9948" y2="452.9948"/><text fill="#1E90FF" font-family="Verdana" font-size="12.5" font-weight="bold" lengthAdjust="spacing" textLength="8.6975" x="205.1127" y="442.7551">5</text><text fill="#1E90FF" font-family="Verdana" font-size="12.5" lengthAdjust="spacing" textLength="99.469" x="228.3936" y="442.7551">GET /login_form</text><polygon fill="#2FA4E7" points="204.071,488.3789,193.6544,492.5456,204.071,496.7122,199.9044,492.5456" style="stroke:#2FA4E7;stroke-width:1.0417;"/><line style="stroke:#2FA4E7;stroke-width:3.125;stroke-dasharray:2.0,2.0;" x1="197.821" x2="682.1381" y1="492.5456" y2="492.5456"/><text fill="#1E90FF" font-family="Verdana" font-size="12.5" font-weight="bold" lengthAdjust="spacing" textLength="8.6975" x="215.5294" y="482.3059">6</text><text fill="#1E90FF" font-family="Verdana" font-size="12.5" lengthAdjust="spacing" textLength="45.8679" x="238.8102" y="482.3059">200 OK</text><polygon fill="#2FA4E7" points="670.6797,527.9297,681.0964,532.0964,670.6797,536.263,674.8464,532.0964" style="stroke:#2FA4E7;stroke-width:1.0417;"/><line style="stroke:#2FA4E7;stroke-width:3.125;" x1="192.6127" x2="676.9297" y1="532.0964" y2="532.0964"/><text fill="#1E90FF" font-family="Verdana" font-size="12.5" font-weight="bold" lengthAdjust="spacing" textLength="8.6975" x="205.1127" y="521.8567">7</text><text fill="#1E90FF" font-family="Verdana" font-size="12.5" lengthAdjust="spacing" textLength="107.196" x="228.3936" y="521.8567">POST /login_form</text><path d="M698.8047,510.2539 L698.8047,565.4622 A4.1667,4.1667 0 0 0 702.9714,569.6289 L789.4297,569.6289 A4.1667,4.1667 0 0 0 793.5964,565.4622 L793.5964,516.5039 L783.1797,506.0872 L702.9714,506.0872 A4.1667,4.1667 0 0 0 698.8047,510.2539" fill="#A9A9A9" style="stroke:#033C73;stroke-width:1.0417;"/><path d="M783.1797,506.0872 L783.1797,514.4206 A2.0833,2.0833 0 0 0 785.2631,516.5039 L793.5964,516.5039 L783.1797,506.0872" fill="#A9A9A9" style="stroke:#033C73;stroke-width:1.0417;"/><text fill="#FFFFFF" font-family="Verdana" font-size="12.5" lengthAdjust="spacing" textLength="62.7136" x="710.2631" y="528.1067">username</text><text fill="#FFFFFF" font-family="Verdana" font-size="12.5" lengthAdjust="spacing" textLength="59.5642" x="710.2631" y="542.6575">password</text><text fill="#FFFFFF" font-family="Verdana" font-size="12.5" lengthAdjust="spacing" textLength="23.6938" x="710.2631" y="557.2083">2FA</text><polygon fill="#2FA4E7" points="204.071,602.832,193.6544,606.9987,204.071,611.1654,199.9044,606.9987" style="stroke:#2FA4E7;stroke-width:1.0417;"/><line style="stroke:#2FA4E7;stroke-width:3.125;stroke-dasharray:2.0,2.0;" x1="197.821" x2="682.1381" y1="606.9987" y2="606.9987"/><text fill="#1E90FF" font-family="Verdana" font-size="12.5" font-weight="bold" lengthAdjust="spacing" textLength="8.6975" x="215.5294" y="596.759">8</text><text fill="#1E90FF" font-family="Verdana" font-size="12.5" lengthAdjust="spacing" textLength="214.0503" x="238.8102" y="596.759">302 Found: app.web.com/callback</text><path d="M35.4167,585.1563 L35.4167,611.1979 A4.1667,4.1667 0 0 0 39.5833,615.3646 L182.2917,615.3646 A4.1667,4.1667 0 0 0 186.4583,611.1979 L186.4583,591.4063 L176.0417,580.9896 L39.5833,580.9896 A4.1667,4.1667 0 0 0 35.4167,585.1563" fill="#EE82EE" style="stroke:#033C73;stroke-width:1.0417;"/><path d="M176.0417,580.9896 L176.0417,589.3229 A2.0833,2.0833 0 0 0 178.125,591.4063 L186.4583,591.4063 L176.0417,580.9896" fill="#EE82EE" style="stroke:#033C73;stroke-width:1.0417;"/><text fill="#FFFFFF" font-family="Verdana" font-size="12.5" lengthAdjust="spacing" textLength="119.696" x="46.875" y="603.009">Authorization Code</text><polygon fill="#2FA4E7" points="465.4704,648.6328,475.887,652.7995,465.4704,656.9661,469.637,652.7995" style="stroke:#2FA4E7;stroke-width:1.0417;"/><line style="stroke:#2FA4E7;stroke-width:3.125;" x1="192.6127" x2="471.7204" y1="652.7995" y2="652.7995"/><text fill="#1E90FF" font-family="Verdana" font-size="12.5" font-weight="bold" lengthAdjust="spacing" textLength="8.6975" x="205.1127" y="642.5598">9</text><text fill="#1E90FF" font-family="Verdana" font-size="12.5" lengthAdjust="spacing" textLength="84.5886" x="228.3936" y="642.5598">GET /callback</text><polygon fill="#2FA4E7" points="204.071,688.1836,193.6544,692.3503,204.071,696.5169,199.9044,692.3503" style="stroke:#2FA4E7;stroke-width:1.0417;"/><line style="stroke:#2FA4E7;stroke-width:3.125;stroke-dasharray:2.0,2.0;" x1="197.821" x2="476.9287" y1="692.3503" y2="692.3503"/><text fill="#1E90FF" font-family="Verdana" font-size="12.5" font-weight="bold" lengthAdjust="spacing" textLength="17.395" x="215.5294" y="682.1106">10</text><text fill="#1E90FF" font-family="Verdana" font-size="12.5" lengthAdjust="spacing" textLength="45.8679" x="247.5077" y="682.1106">200 OK</text><path d="M52.2847,719.4336 L150.2279,719.4336 L150.2279,736.0677 L139.8112,746.4844 L48.1181,746.4844 L48.1181,723.6003 A4.1667,4.1667 0 0 1 52.2847,719.4336" fill="#E9ECEF" style="stroke:#868E96;stroke-width:1.0417;"/><rect fill="none" height="233.0729" rx="4.1667" ry="4.1667" style="stroke:#2FA4E7;stroke-width:1.0417;" width="926.3682" x="48.1181" y="719.4336"/><text fill="#033C73" font-family="Verdana" font-size="12.5" font-weight="bold" lengthAdjust="spacing" textLength="44.8181" x="68.9514" y="737.2864">/token</text><polygon fill="#2FA4E7" points="670.6797,783.9518,681.0964,788.1185,670.6797,792.2852,674.8464,788.1185" style="stroke:#2FA4E7;stroke-width:1.0417;"/><line style="stroke:#2FA4E7;stroke-width:3.125;" x1="192.6127" x2="676.9297" y1="788.1185" y2="788.1185"/><text fill="#1E90FF" font-family="Verdana" font-size="12.5" font-weight="bold" lengthAdjust="spacing" textLength="17.395" x="205.1127" y="777.8788">11</text><text fill="#1E90FF" font-family="Verdana" font-size="12.5" lengthAdjust="spacing" textLength="76.532" x="237.0911" y="777.8788">POST /token</text><path d="M698.8047,766.276 L698.8047,792.3177 A4.1667,4.1667 0 0 0 702.9714,796.4844 L845.6797,796.4844 A4.1667,4.1667 0 0 0 849.8464,792.3177 L849.8464,772.526 L839.4297,762.1094 L702.9714,762.1094 A4.1667,4.1667 0 0 0 698.8047,766.276" fill="#EE82EE" style="stroke:#033C73;stroke-width:1.0417;"/><path d="M839.4297,762.1094 L839.4297,770.4427 A2.0833,2.0833 0 0 0 841.5131,772.526 L849.8464,772.526 L839.4297,762.1094" fill="#EE82EE" style="stroke:#033C73;stroke-width:1.0417;"/><text fill="#FFFFFF" font-family="Verdana" font-size="12.5" lengthAdjust="spacing" textLength="119.696" x="710.2631" y="784.1288">Authorization Code</text><path d="M698.8047,812.0768 L698.8047,896.4518 A4.1667,4.1667 0 0 0 702.9714,900.6185 L947.7631,900.6185 A4.1667,4.1667 0 0 0 951.9297,896.4518 L951.9297,818.3268 L941.5131,807.9102 L702.9714,807.9102 A4.1667,4.1667 0 0 0 698.8047,812.0768" fill="#A9A9A9" style="stroke:#033C73;stroke-width:1.0417;"/><path d="M941.5131,807.9102 L941.5131,816.2435 A2.0833,2.0833 0 0 0 943.5964,818.3268 L951.9297,818.3268 L941.5131,807.9102" fill="#A9A9A9" style="stroke:#033C73;stroke-width:1.0417;"/><text fill="#FFFFFF" font-family="Verdana" font-size="12.5" lengthAdjust="spacing" textLength="51.9897" x="710.2631" y="829.9296">client_id</text><text fill="#FFFFFF" font-family="Verdana" font-size="12.5" lengthAdjust="spacing" textLength="79.3884" x="710.2631" y="844.4804">client_secret</text><text fill="#FFFFFF" font-family="Verdana" font-size="12.5" font-weight="bold" lengthAdjust="spacing" textLength="221.0693" x="710.2631" y="859.0312">grant_type=authorization_code</text><text fill="#FFFFFF" font-family="Verdana" font-size="12.5" lengthAdjust="spacing" textLength="221.5149" x="710.2631" y="873.5819">redirect_uri=app.web.com/callback</text><text fill="#FFFFFF" font-family="Verdana" font-size="12.5" lengthAdjust="spacing" textLength="36.6577" x="710.2631" y="888.1327">scope</text><polygon fill="#2FA4E7" points="204.071,933.7565,193.6544,937.9232,204.071,942.0898,199.9044,937.9232" style="stroke:#2FA4E7;stroke-width:1.0417;"/><line style="stroke:#2FA4E7;stroke-width:3.125;stroke-dasharray:2.0,2.0;" x1="197.821" x2="682.1381" y1="937.9232" y2="937.9232"/><text fill="#1E90FF" font-family="Verdana" font-size="12.5" font-weight="bold" lengthAdjust="spacing" textLength="17.395" x="215.5294" y="927.6835">12</text><text fill="#1E90FF" font-family="Verdana" font-size="12.5" lengthAdjust="spacing" textLength="214.0503" x="247.5077" y="927.6835">302 Found: app.web.com/callback</text><path d="M69.9931,916.0807 L69.9931,942.1224 A4.1667,4.1667 0 0 0 74.1597,946.2891 L182.4931,946.2891 A4.1667,4.1667 0 0 0 186.6597,942.1224 L186.6597,922.3307 L176.2431,911.9141 L74.1597,911.9141 A4.1667,4.1667 0 0 0 69.9931,916.0807" fill="#FF0000" style="stroke:#033C73;stroke-width:1.0417;"/><path d="M176.2431,911.9141 L176.2431,920.2474 A2.0833,2.0833 0 0 0 178.3264,922.3307 L186.6597,922.3307 L176.2431,911.9141" fill="#FF0000" style="stroke:#033C73;stroke-width:1.0417;"/><text fill="#FFFFFF" font-family="Verdana" font-size="12.5" lengthAdjust="spacing" textLength="85.1196" x="81.4514" y="933.9335">Access Token</text><text fill="#2FA4E7" font-family="Verdana" font-size="10.4167" lengthAdjust="spacing" textLength="67.1641" x="569.5104" y="1049.6429">01-05-20225</text><!--SRC=[fPD1Rvj048Nl_8f9ShDacz2aLIEbaklKELHggZRg5QsN0LQ67JGxr4f-VTSOR4Xm6watTkVDszbl7sUIOucWaUi2bPrIBOMn69nLhB9IWI0zWt2DWHWf47wibl3-mzN7-TNiCaY911d2osbuFOt2ABeEtCROIh4gOS5CsnLPML9137UKPCYV2-zqr7pp_KV9DZU2GU1BOhIfb1Kut-8Qrjx88P-3SjqtNAGf3fMggcPUFTDKDag_7bFLaWzbVcD4n-YePeq3RRUvrmU-bPGMyri90jbcRUjoZHm46LDTmNpdJcoUCO33wDDFpMmtSF_b4UO5PSRwAgFKRE5T6C6AQflSG7_KaqQxwLkdlWJ0UhJ09ii5BkuKR-uPdve2W2uCMebDqgqfmLZdgYZGPZYw6PVepRi6niGmQebhDhSzxdFjvMkbDwrkCl74Ah8EOtcgy7RdEPcqHQUfwWvpuX4stsYJPlH_4sd0nIbnUHh9GDFwHM483rz7Uxu__7pPD0PITI1htsvLsTsYKivjYJjAqMhnXYkDqsiEBJ3rP_uoLA0qJelsXPKOih3qD8E1_NZ2UhP31BlE9gU7k0fjqFu5JLSVKA6q_ObUq7aLi_tQeURsFhk4PEp_jtqyLFzwyI0iRqtSCLG7BAyUiGVq1DB_VZC_xlx1j4RduB75Td0zaFy3]--></g></svg>