<svg xmlns="http://www.w3.org/2000/svg" xmlns:xlink="http://www.w3.org/1999/xlink" contentStyleType="text/css" data-diagram-type="SEQUENCE" height="547.9167px" preserveAspectRatio="none" style="width:865px;height:547px;" version="1.1" viewBox="0 0 865 547" width="865.625px" zoomAndPan="magnify"><title>RFC 6749/4.3</title><defs/><g><rect fill="none" height="47.168" rx="4.1667" ry="4.1667" style="stroke:#BABDBF;stroke-width:1.0417;" width="178.2308" x="417.2368" y="20.8333"/><text fill="#2FA4E7" font-family="Verdana" font-size="20.8333" font-weight="bold" lengthAdjust="spacing" textLength="155.3141" x="428.6952" y="51.6296">RFC 6749/4.3</text><g><title>web browser</title><rect fill="#000000" fill-opacity="0.00000" height="318.4245" width="8.3333" x="154.3905" y="120.0521"/><line style="stroke:#BABDBF;stroke-width:1.0417;stroke-dasharray:5.0,5.0;" x1="158.0363" x2="158.0363" y1="120.0521" y2="438.4766"/></g><g><title>app.web.com</title><rect fill="#000000" fill-opacity="0.00000" height="318.4245" width="8.3333" x="355.2053" y="120.0521"/><line style="stroke:#BABDBF;stroke-width:1.0417;stroke-dasharray:5.0,5.0;" x1="358.8511" x2="358.8511" y1="120.0521" y2="438.4766"/></g><g><title/><rect fill="none" height="39.5508" style="stroke:#BABDBF;stroke-width:1.0417;" width="10.4167" x="353.6428" y="201.237"/></g><g><title>auth.web.com</title><rect fill="#000000" fill-opacity="0.00000" height="318.4245" width="8.3333" x="560.4146" y="120.0521"/><line style="stroke:#BABDBF;stroke-width:1.0417;stroke-dasharray:5.0,5.0;" x1="564.0605" x2="564.0605" y1="120.0521" y2="438.4766"/></g><g><title/><rect fill="none" height="118.5547" style="stroke:#BABDBF;stroke-width:1.0417;" width="10.4167" x="558.8521" y="280.3385"/></g><g><title>resource.web.com</title><rect fill="#000000" fill-opacity="0.00000" height="318.4245" width="8.3333" x="781.1666" y="120.0521"/><line style="stroke:#BABDBF;stroke-width:1.0417;stroke-dasharray:5.0,5.0;" x1="784.8124" x2="784.8124" y1="120.0521" y2="438.4766"/></g><rect fill="none" height="39.5508" rx="4.1667" ry="4.1667" style="stroke:#2FA4E7;stroke-width:1.0417;" width="105.1086" x="105.482" y="79.4596"/><text fill="#2FA4E7" font-family="Verdana" font-size="12.5" lengthAdjust="spacing" textLength="80.1086" x="117.982" y="103.5624">web browser</text><rect fill="none" height="39.5508" rx="4.1667" ry="4.1667" style="stroke:#2FA4E7;stroke-width:1.0417;" width="109.021" x="304.3406" y="79.4596"/><text fill="#2FA4E7" font-family="Verdana" font-size="12.5" lengthAdjust="spacing" textLength="84.021" x="316.8406" y="103.5624">app.web.com</text><rect fill="none" height="39.5508" rx="4.1667" ry="4.1667" style="stroke:#2FA4E7;stroke-width:1.0417;" width="113.8977" x="507.1116" y="79.4596"/><text fill="#2FA4E7" font-family="Verdana" font-size="12.5" lengthAdjust="spacing" textLength="88.8977" x="519.6116" y="103.5624">auth.web.com</text><rect fill="none" height="39.5508" rx="4.1667" ry="4.1667" style="stroke:#2FA4E7;stroke-width:1.0417;" width="140.1062" x="714.7593" y="79.4596"/><text fill="#2FA4E7" font-family="Verdana" font-size="12.5" lengthAdjust="spacing" textLength="115.1062" x="727.2593" y="103.5624">resource.web.com</text><rect fill="none" height="39.5508" rx="4.1667" ry="4.1667" style="stroke:#2FA4E7;stroke-width:1.0417;" width="105.1086" x="105.482" y="438.4766"/><text fill="#2FA4E7" font-family="Verdana" font-size="12.5" lengthAdjust="spacing" textLength="80.1086" x="117.982" y="462.5793">web browser</text><rect fill="none" height="39.5508" rx="4.1667" ry="4.1667" style="stroke:#2FA4E7;stroke-width:1.0417;" width="109.021" x="304.3406" y="438.4766"/><text fill="#2FA4E7" font-family="Verdana" font-size="12.5" lengthAdjust="spacing" textLength="84.021" x="316.8406" y="462.5793">app.web.com</text><rect fill="none" height="39.5508" rx="4.1667" ry="4.1667" style="stroke:#2FA4E7;stroke-width:1.0417;" width="113.8977" x="507.1116" y="438.4766"/><text fill="#2FA4E7" font-family="Verdana" font-size="12.5" lengthAdjust="spacing" textLength="88.8977" x="519.6116" y="462.5793">auth.web.com</text><rect fill="none" height="39.5508" rx="4.1667" ry="4.1667" style="stroke:#2FA4E7;stroke-width:1.0417;" width="140.1062" x="714.7593" y="438.4766"/><text fill="#2FA4E7" font-family="Verdana" font-size="12.5" lengthAdjust="spacing" textLength="115.1062" x="727.2593" y="462.5793">resource.web.com</text><path d="M17.7083,132.5521 L115.6514,132.5521 L115.6514,149.1862 L105.2348,159.6029 L13.5417,159.6029 L13.5417,136.7188 A4.1667,4.1667 0 0 1 17.7083,132.5521" fill="#E9ECEF" style="stroke:#868E96;stroke-width:1.0417;"/><rect fill="none" height="280.9245" rx="4.1667" ry="4.1667" style="stroke:#2FA4E7;stroke-width:1.0417;" width="769.3075" x="13.5417" y="132.5521"/><text fill="#033C73" font-family="Verdana" font-size="12.5" font-weight="bold" lengthAdjust="spacing" textLength="44.8181" x="34.375" y="150.4049">/token</text><polygon fill="#2FA4E7" points="341.1428,197.0703,351.5594,201.237,341.1428,205.4036,345.3094,201.237" style="stroke:#2FA4E7;stroke-width:1.0417;"/><line style="stroke:#2FA4E7;stroke-width:3.125;" x1="158.0363" x2="347.3928" y1="201.237" y2="201.237"/><text fill="#1E90FF" font-family="Verdana" font-size="12.5" font-weight="bold" lengthAdjust="spacing" textLength="8.6975" x="170.5363" y="190.9973">1</text><text fill="#1E90FF" font-family="Verdana" font-size="12.5" lengthAdjust="spacing" textLength="63.855" x="193.8171" y="190.9973">GET /login</text><polygon fill="#2FA4E7" points="169.4946,236.6211,159.078,240.7878,169.4946,244.9544,165.328,240.7878" style="stroke:#2FA4E7;stroke-width:1.0417;"/><line style="stroke:#2FA4E7;stroke-width:3.125;stroke-dasharray:2.0,2.0;" x1="163.2446" x2="352.6011" y1="240.7878" y2="240.7878"/><text fill="#1E90FF" font-family="Verdana" font-size="12.5" font-weight="bold" lengthAdjust="spacing" textLength="8.6975" x="180.953" y="230.5481">2</text><text fill="#1E90FF" font-family="Verdana" font-size="12.5" lengthAdjust="spacing" textLength="45.8679" x="204.2338" y="230.5481">200 OK</text><polygon fill="#2FA4E7" points="546.3521,276.1719,556.7688,280.3385,546.3521,284.5052,550.5188,280.3385" style="stroke:#2FA4E7;stroke-width:1.0417;"/><line style="stroke:#2FA4E7;stroke-width:3.125;" x1="158.0363" x2="552.6021" y1="280.3385" y2="280.3385"/><text fill="#1E90FF" font-family="Verdana" font-size="12.5" font-weight="bold" lengthAdjust="spacing" textLength="8.6975" x="170.5363" y="270.0989">3</text><text fill="#1E90FF" font-family="Verdana" font-size="12.5" lengthAdjust="spacing" textLength="76.532" x="193.8171" y="270.0989">POST /token</text><path d="M574.4771,258.4961 L574.4771,357.4544 A4.1667,4.1667 0 0 0 578.6438,361.6211 L756.7688,361.6211 A4.1667,4.1667 0 0 0 760.9355,357.4544 L760.9355,264.7461 L750.5188,254.3294 L578.6438,254.3294 A4.1667,4.1667 0 0 0 574.4771,258.4961" fill="#A9A9A9" style="stroke:#033C73;stroke-width:1.0417;"/><path d="M750.5188,254.3294 L750.5188,262.6628 A2.0833,2.0833 0 0 0 752.6021,264.7461 L760.9355,264.7461 L750.5188,254.3294" fill="#A9A9A9" style="stroke:#033C73;stroke-width:1.0417;"/><text fill="#FFFFFF" font-family="Verdana" font-size="12.5" lengthAdjust="spacing" textLength="51.9897" x="585.9355" y="276.3489">client_id</text><text fill="#FFFFFF" font-family="Verdana" font-size="12.5" lengthAdjust="spacing" textLength="79.3884" x="585.9355" y="290.8997">client_secret</text><text fill="#FFFFFF" font-family="Verdana" font-size="12.5" font-weight="bold" lengthAdjust="spacing" textLength="154.2053" x="585.9355" y="305.4504">grant_type=password</text><text fill="#FFFFFF" font-family="Verdana" font-size="12.5" lengthAdjust="spacing" textLength="36.6577" x="585.9355" y="320.0012">scope</text><text fill="#FFFFFF" font-family="Verdana" font-size="12.5" lengthAdjust="spacing" textLength="62.7136" x="585.9355" y="334.552">username</text><text fill="#FFFFFF" font-family="Verdana" font-size="12.5" lengthAdjust="spacing" textLength="59.5642" x="585.9355" y="349.1028">password</text><polygon fill="#2FA4E7" points="169.4946,394.7266,159.078,398.8932,169.4946,403.0599,165.328,398.8932" style="stroke:#2FA4E7;stroke-width:1.0417;"/><line style="stroke:#2FA4E7;stroke-width:3.125;stroke-dasharray:2.0,2.0;" x1="163.2446" x2="557.8105" y1="398.8932" y2="398.8932"/><text fill="#1E90FF" font-family="Verdana" font-size="12.5" font-weight="bold" lengthAdjust="spacing" textLength="8.6975" x="180.953" y="388.6536">4</text><text fill="#1E90FF" font-family="Verdana" font-size="12.5" lengthAdjust="spacing" textLength="45.8679" x="204.2338" y="388.6536">200 OK</text><path d="M35.4167,377.0508 L35.4167,403.0924 A4.1667,4.1667 0 0 0 39.5833,407.2591 L147.9167,407.2591 A4.1667,4.1667 0 0 0 152.0833,403.0924 L152.0833,383.3008 L141.6667,372.8841 L39.5833,372.8841 A4.1667,4.1667 0 0 0 35.4167,377.0508" fill="#FF0000" style="stroke:#033C73;stroke-width:1.0417;"/><path d="M141.6667,372.8841 L141.6667,381.2174 A2.0833,2.0833 0 0 0 143.75,383.3008 L152.0833,383.3008 L141.6667,372.8841" fill="#FF0000" style="stroke:#033C73;stroke-width:1.0417;"/><text fill="#FFFFFF" font-family="Verdana" font-size="12.5" lengthAdjust="spacing" textLength="85.1196" x="46.875" y="394.9036">Access Token</text><text fill="#2FA4E7" font-family="Verdana" font-size="10.4167" lengthAdjust="spacing" textLength="67.1641" x="472.7702" y="510.613">01-05-20225</text><!--SRC=[RP11Jm8n48Nl_HK3taY05K6ZYIQ8oi54Z78dfGnBmswdcKub-EijAojPuctUl6-cRzgI3PO81ZaMg5sNeXJMeMfvrdcfGP2-GJYY4Yi5miVB1AvlXhVzOUzAhOa46RBBRZRg3hB1OAJ2rZglMPSmPgRT2pcPK44CJxJAaH-BjEd4lANv4xBRM46baYNMMA-TG7k7IrYcHG6v3JhKTHFItlSIs3DKLb3IPq2KJPD8ZIR262YomGPMDvLA0wIDs2yj2EGgxMAvJ55KpXGzz8Msw1JK4Q7xS0W2Tp1zdaE_eDmUN4Q9x62GPJ1xFQDJg8I_ppxdfsq0BdqIiCqt0XTFchTJrllA0325HISBkshgW2OzS-nrEZcd2nUoztZlTGWxubMdStI38O_7EgOSJfUrhDbAebjLGVwveCfNu3h5O_obnyPW230_tl0tV2Ygt_e1]--></g></svg>