<svg width="415" height="394" viewBox="0 0 415 394" fill="none" xmlns="http://www.w3.org/2000/svg">
<circle cx="290" cy="130" r="125" fill="#00FF3C" fill-opacity="0.67"/>
<path d="M300.829 130L300.478 127.023V121.888C300.478 120.935 300.283 120.237 299.893 119.795C299.503 119.353 298.866 119.132 297.982 119.132C297.471 119.132 297.024 119.206 296.643 119.353C296.262 119.5 295.963 119.721 295.746 120.016C295.538 120.302 295.434 120.657 295.434 121.082H292.379C292.379 120.137 292.604 119.375 293.055 118.794C293.514 118.205 294.16 117.776 294.992 117.507C295.833 117.23 296.829 117.091 297.982 117.091C299.031 117.091 299.949 117.264 300.738 117.611C301.535 117.949 302.155 118.478 302.597 119.197C303.039 119.916 303.26 120.844 303.26 121.979V130H300.829ZM296.669 130.351C295.603 130.351 294.715 130.165 294.004 129.792C293.302 129.419 292.773 128.93 292.418 128.323C292.063 127.716 291.885 127.062 291.885 126.36C291.885 125.554 292.093 124.882 292.509 124.345C292.934 123.808 293.523 123.409 294.277 123.149C295.04 122.88 295.928 122.746 296.942 122.746C297.618 122.746 298.264 122.802 298.879 122.915C299.503 123.019 300.123 123.166 300.738 123.357V125.008C300.244 124.835 299.702 124.7 299.113 124.605C298.532 124.51 297.986 124.462 297.475 124.462C296.721 124.462 296.093 124.609 295.59 124.904C295.096 125.19 294.849 125.675 294.849 126.36C294.849 126.871 295.048 127.309 295.447 127.673C295.846 128.037 296.478 128.219 297.345 128.219C297.986 128.219 298.541 128.076 299.009 127.79C299.477 127.495 299.837 127.131 300.088 126.698C300.348 126.265 300.478 125.836 300.478 125.411H301.141C301.141 126.295 300.968 127.114 300.621 127.868C300.283 128.613 299.78 129.216 299.113 129.675C298.454 130.126 297.64 130.351 296.669 130.351ZM312.482 130.351C311.277 130.351 310.246 130.182 309.388 129.844C308.539 129.506 307.884 129.029 307.425 128.414C306.974 127.79 306.745 127.049 306.736 126.191H309.323C309.358 126.858 309.626 127.352 310.129 127.673C310.632 127.985 311.312 128.141 312.17 128.141C312.638 128.141 313.058 128.072 313.431 127.933C313.804 127.786 314.094 127.591 314.302 127.348C314.519 127.097 314.627 126.819 314.627 126.516C314.627 126.126 314.484 125.818 314.198 125.593C313.921 125.368 313.47 125.164 312.846 124.982L310.181 124.059C309.176 123.712 308.404 123.249 307.867 122.668C307.33 122.087 307.061 121.394 307.061 120.588C307.061 119.539 307.533 118.694 308.478 118.053C309.423 117.412 310.679 117.091 312.248 117.091C313.843 117.091 315.073 117.433 315.94 118.118C316.807 118.803 317.253 119.665 317.279 120.705H314.64C314.588 120.254 314.367 119.903 313.977 119.652C313.587 119.392 313.011 119.262 312.248 119.262C311.546 119.262 310.996 119.414 310.597 119.717C310.207 120.012 310.012 120.35 310.012 120.731C310.012 121.398 310.584 121.897 311.728 122.226L314.575 123.266C315.572 123.595 316.343 124.02 316.889 124.54C317.435 125.06 317.708 125.719 317.708 126.516C317.708 127.175 317.487 127.799 317.045 128.388C316.612 128.969 316.005 129.441 315.225 129.805C314.445 130.169 313.531 130.351 312.482 130.351ZM326.193 130.351C324.988 130.351 323.957 130.182 323.099 129.844C322.25 129.506 321.595 129.029 321.136 128.414C320.685 127.79 320.456 127.049 320.447 126.191H323.034C323.069 126.858 323.337 127.352 323.84 127.673C324.343 127.985 325.023 128.141 325.881 128.141C326.349 128.141 326.769 128.072 327.142 127.933C327.515 127.786 327.805 127.591 328.013 127.348C328.23 127.097 328.338 126.819 328.338 126.516C328.338 126.126 328.195 125.818 327.909 125.593C327.632 125.368 327.181 125.164 326.557 124.982L323.892 124.059C322.887 123.712 322.115 123.249 321.578 122.668C321.041 122.087 320.772 121.394 320.772 120.588C320.772 119.539 321.244 118.694 322.189 118.053C323.134 117.412 324.39 117.091 325.959 117.091C327.554 117.091 328.784 117.433 329.651 118.118C330.518 118.803 330.964 119.665 330.99 120.705H328.351C328.299 120.254 328.078 119.903 327.688 119.652C327.298 119.392 326.722 119.262 325.959 119.262C325.257 119.262 324.707 119.414 324.308 119.717C323.918 120.012 323.723 120.35 323.723 120.731C323.723 121.398 324.295 121.897 325.439 122.226L328.286 123.266C329.283 123.595 330.054 124.02 330.6 124.54C331.146 125.06 331.419 125.719 331.419 126.516C331.419 127.175 331.198 127.799 330.756 128.388C330.323 128.969 329.716 129.441 328.936 129.805C328.156 130.169 327.242 130.351 326.193 130.351ZM339.865 130.351C338.79 130.351 337.811 130.074 336.927 129.519C336.052 128.964 335.35 128.189 334.821 127.192C334.301 126.195 334.041 125.038 334.041 123.721C334.041 122.334 334.301 121.147 334.821 120.159C335.341 119.171 336.039 118.413 336.914 117.884C337.798 117.355 338.782 117.091 339.865 117.091C340.862 117.091 341.715 117.29 342.426 117.689C343.137 118.088 343.709 118.625 344.142 119.301C344.584 119.977 344.883 120.744 345.039 121.602C345.195 122.451 345.212 123.331 345.091 124.241H336.264V122.694H343.154L342.556 123.084C342.582 122.642 342.56 122.2 342.491 121.758C342.422 121.316 342.287 120.913 342.088 120.549C341.897 120.176 341.624 119.877 341.269 119.652C340.914 119.427 340.463 119.314 339.917 119.314C339.241 119.314 338.669 119.483 338.201 119.821C337.742 120.159 337.395 120.614 337.161 121.186C336.927 121.758 336.81 122.395 336.81 123.097V124.215C336.81 124.969 336.923 125.636 337.148 126.217C337.373 126.798 337.711 127.257 338.162 127.595C338.613 127.933 339.18 128.102 339.865 128.102C340.524 128.102 341.07 127.95 341.503 127.647C341.945 127.335 342.222 126.871 342.335 126.256H345.156C345.026 127.071 344.723 127.786 344.246 128.401C343.769 129.016 343.158 129.497 342.413 129.844C341.668 130.182 340.818 130.351 339.865 130.351ZM353.07 130.351C352.342 130.351 351.679 130.217 351.081 129.948C350.492 129.671 350.019 129.255 349.664 128.7C349.309 128.137 349.131 127.43 349.131 126.581V114.062H351.9V126.49C351.9 127.591 352.424 128.141 353.473 128.141C353.794 128.141 354.11 128.106 354.422 128.037C354.734 127.968 355.085 127.859 355.475 127.712L355.878 129.675C355.41 129.866 354.946 130.026 354.487 130.156C354.036 130.286 353.564 130.351 353.07 130.351ZM347.298 119.301V117.442H355.475V119.301H347.298Z" fill="white"/>
<circle cx="125" cy="125" r="125" fill="#FF0000" fill-opacity="0.5"/>
<path d="M56.6658 115.351C55.9378 115.351 55.2748 115.217 54.6768 114.948C54.0875 114.671 53.6152 114.255 53.2598 113.7C52.9045 113.137 52.7268 112.43 52.7268 111.581V99.062H55.4958V111.49C55.4958 112.591 56.0202 113.141 57.0688 113.141C57.3895 113.141 57.7058 113.106 58.0178 113.037C58.3298 112.968 58.6808 112.859 59.0708 112.712L59.4738 114.675C59.0058 114.866 58.5422 115.026 58.0828 115.156C57.6322 115.286 57.1598 115.351 56.6658 115.351ZM50.8938 104.301V102.442H59.0708V104.301H50.8938ZM71.3597 115V107.642C71.3597 106.637 71.117 105.878 70.6317 105.367C70.155 104.847 69.518 104.587 68.7207 104.587C68.0707 104.587 67.4987 104.765 67.0047 105.12C66.5107 105.475 66.125 106.004 65.8477 106.706C65.5704 107.408 65.4317 108.27 65.4317 109.293H64.4827C64.4827 107.707 64.682 106.381 65.0807 105.315C65.488 104.249 66.06 103.447 66.7967 102.91C67.542 102.364 68.4217 102.091 69.4357 102.091C70.4584 102.091 71.3164 102.321 72.0097 102.78C72.7117 103.239 73.2404 103.885 73.5957 104.717C73.9597 105.549 74.1417 106.524 74.1417 107.642V115H71.3597ZM62.6497 115V97.19H65.4317V115H62.6497ZM78.6966 115V102.39H81.4786V115H78.6966ZM80.7636 109.436C80.7636 107.807 80.9412 106.459 81.2966 105.393C81.6519 104.318 82.1372 103.521 82.7526 103.001C83.3679 102.472 84.0699 102.208 84.8586 102.208C85.0926 102.208 85.3049 102.225 85.4956 102.26C85.6949 102.286 85.8942 102.329 86.0936 102.39L86.0156 105.159C85.7816 105.098 85.5302 105.051 85.2616 105.016C85.0016 104.973 84.7632 104.951 84.5466 104.951C83.8619 104.951 83.2899 105.129 82.8306 105.484C82.3799 105.831 82.0419 106.338 81.8166 107.005C81.5912 107.672 81.4786 108.483 81.4786 109.436H80.7636ZM93.2771 115.351C92.2024 115.351 91.2231 115.074 90.3391 114.519C89.4637 113.964 88.7617 113.189 88.2331 112.192C87.7131 111.195 87.4531 110.038 87.4531 108.721C87.4531 107.334 87.7131 106.147 88.2331 105.159C88.7531 104.171 89.4507 103.413 90.3261 102.884C91.2101 102.355 92.1937 102.091 93.2771 102.091C94.2737 102.091 95.1274 102.29 95.8381 102.689C96.5487 103.088 97.1207 103.625 97.5541 104.301C97.9961 104.977 98.2951 105.744 98.4511 106.602C98.6071 107.451 98.6244 108.331 98.5031 109.241H89.6761V107.694H96.5661L95.9681 108.084C95.9941 107.642 95.9724 107.2 95.9031 106.758C95.8337 106.316 95.6994 105.913 95.5001 105.549C95.3094 105.176 95.0364 104.877 94.6811 104.652C94.3257 104.427 93.8751 104.314 93.3291 104.314C92.6531 104.314 92.0811 104.483 91.6131 104.821C91.1537 105.159 90.8071 105.614 90.5731 106.186C90.3391 106.758 90.2221 107.395 90.2221 108.097V109.215C90.2221 109.969 90.3347 110.636 90.5601 111.217C90.7854 111.798 91.1234 112.257 91.5741 112.595C92.0247 112.933 92.5924 113.102 93.2771 113.102C93.9357 113.102 94.4817 112.95 94.9151 112.647C95.3571 112.335 95.6344 111.871 95.7471 111.256H98.5681C98.4381 112.071 98.1347 112.786 97.6581 113.401C97.1814 114.016 96.5704 114.497 95.8251 114.844C95.0797 115.182 94.2304 115.351 93.2771 115.351ZM110.278 115L109.927 112.023V106.888C109.927 105.935 109.732 105.237 109.342 104.795C108.952 104.353 108.315 104.132 107.431 104.132C106.92 104.132 106.474 104.206 106.092 104.353C105.711 104.5 105.412 104.721 105.195 105.016C104.987 105.302 104.883 105.657 104.883 106.082H101.828C101.828 105.137 102.054 104.375 102.504 103.794C102.964 103.205 103.609 102.776 104.441 102.507C105.282 102.23 106.279 102.091 107.431 102.091C108.48 102.091 109.399 102.264 110.187 102.611C110.985 102.949 111.604 103.478 112.046 104.197C112.488 104.916 112.709 105.844 112.709 106.979V115H110.278ZM106.118 115.351C105.052 115.351 104.164 115.165 103.453 114.792C102.751 114.419 102.223 113.93 101.867 113.323C101.512 112.716 101.334 112.062 101.334 111.36C101.334 110.554 101.542 109.882 101.958 109.345C102.383 108.808 102.972 108.409 103.726 108.149C104.489 107.88 105.377 107.746 106.391 107.746C107.067 107.746 107.713 107.802 108.328 107.915C108.952 108.019 109.572 108.166 110.187 108.357V110.008C109.693 109.835 109.152 109.7 108.562 109.605C107.982 109.51 107.436 109.462 106.924 109.462C106.17 109.462 105.542 109.609 105.039 109.904C104.545 110.19 104.298 110.675 104.298 111.36C104.298 111.871 104.498 112.309 104.896 112.673C105.295 113.037 105.928 113.219 106.794 113.219C107.436 113.219 107.99 113.076 108.458 112.79C108.926 112.495 109.286 112.131 109.537 111.698C109.797 111.265 109.927 110.836 109.927 110.411H110.59C110.59 111.295 110.417 112.114 110.07 112.868C109.732 113.613 109.23 114.216 108.562 114.675C107.904 115.126 107.089 115.351 106.118 115.351ZM121.437 115.351C120.709 115.351 120.046 115.217 119.448 114.948C118.859 114.671 118.387 114.255 118.031 113.7C117.676 113.137 117.498 112.43 117.498 111.581V99.062H120.267V111.49C120.267 112.591 120.792 113.141 121.84 113.141C122.161 113.141 122.477 113.106 122.789 113.037C123.101 112.968 123.452 112.859 123.842 112.712L124.245 114.675C123.777 114.866 123.314 115.026 122.854 115.156C122.404 115.286 121.931 115.351 121.437 115.351ZM115.665 104.301V102.442H123.842V104.301H115.665Z" fill="white"/>
<circle cx="203" cy="269" r="125" fill="#0084FF" fill-opacity="0.56"/>
<path d="M125.833 292.442H129.031L132.294 302.621H132.047L135.31 292.442H138.508L133.724 305H130.617L125.833 292.442ZM149.757 292.39H152.526V305H149.757V292.39ZM141.047 292.39H143.829V300.138C143.829 301.022 144.046 301.689 144.479 302.14C144.913 302.582 145.519 302.803 146.299 302.803C146.949 302.803 147.534 302.634 148.054 302.296C148.583 301.949 148.999 301.451 149.302 300.801C149.606 300.151 149.757 299.362 149.757 298.435H150.563C150.563 299.934 150.364 301.191 149.965 302.205C149.567 303.21 149.012 303.969 148.301 304.48C147.591 304.983 146.763 305.234 145.818 305.234C144.917 305.234 144.102 305.069 143.374 304.74C142.655 304.411 142.087 303.895 141.671 303.193C141.255 302.482 141.047 301.555 141.047 300.411V292.39ZM157.482 305V287.19H160.264V305H157.482ZM173.936 305V297.642C173.936 296.637 173.693 295.878 173.208 295.367C172.731 294.847 172.094 294.587 171.297 294.587C170.647 294.587 170.075 294.765 169.581 295.12C169.087 295.475 168.701 296.004 168.424 296.706C168.147 297.408 168.008 298.27 168.008 299.293H167.059C167.059 297.707 167.258 296.381 167.657 295.315C168.064 294.249 168.636 293.447 169.373 292.91C170.118 292.364 170.998 292.091 172.012 292.091C173.035 292.091 173.893 292.321 174.586 292.78C175.288 293.239 175.817 293.885 176.172 294.717C176.536 295.549 176.718 296.524 176.718 297.642V305H173.936ZM165.226 305V292.442H167.657L168.008 295.042V305H165.226ZM185.875 305.351C184.8 305.351 183.821 305.074 182.937 304.519C182.061 303.964 181.359 303.189 180.831 302.192C180.311 301.195 180.051 300.038 180.051 298.721C180.051 297.334 180.311 296.147 180.831 295.159C181.351 294.171 182.048 293.413 182.924 292.884C183.808 292.355 184.791 292.091 185.875 292.091C186.871 292.091 187.725 292.29 188.436 292.689C189.146 293.088 189.718 293.625 190.152 294.301C190.594 294.977 190.893 295.744 191.049 296.602C191.205 297.451 191.222 298.331 191.101 299.241H182.274V297.694H189.164L188.566 298.084C188.592 297.642 188.57 297.2 188.501 296.758C188.431 296.316 188.297 295.913 188.098 295.549C187.907 295.176 187.634 294.877 187.279 294.652C186.923 294.427 186.473 294.314 185.927 294.314C185.251 294.314 184.679 294.483 184.211 294.821C183.751 295.159 183.405 295.614 183.171 296.186C182.937 296.758 182.82 297.395 182.82 298.097V299.215C182.82 299.969 182.932 300.636 183.158 301.217C183.383 301.798 183.721 302.257 184.172 302.595C184.622 302.933 185.19 303.102 185.875 303.102C186.533 303.102 187.079 302.95 187.513 302.647C187.955 302.335 188.232 301.871 188.345 301.256H191.166C191.036 302.071 190.732 302.786 190.256 303.401C189.779 304.016 189.168 304.497 188.423 304.844C187.677 305.182 186.828 305.351 185.875 305.351ZM194.933 305V292.39H197.715V305H194.933ZM197 299.436C197 297.807 197.178 296.459 197.533 295.393C197.888 294.318 198.374 293.521 198.989 293.001C199.604 292.472 200.306 292.208 201.095 292.208C201.329 292.208 201.541 292.225 201.732 292.26C201.931 292.286 202.131 292.329 202.33 292.39L202.252 295.159C202.018 295.098 201.767 295.051 201.498 295.016C201.238 294.973 201 294.951 200.783 294.951C200.098 294.951 199.526 295.129 199.067 295.484C198.616 295.831 198.278 296.338 198.053 297.005C197.828 297.672 197.715 298.483 197.715 299.436H197ZM212.854 305L212.503 302.023V296.888C212.503 295.935 212.308 295.237 211.918 294.795C211.528 294.353 210.891 294.132 210.007 294.132C209.496 294.132 209.05 294.206 208.668 294.353C208.287 294.5 207.988 294.721 207.771 295.016C207.563 295.302 207.459 295.657 207.459 296.082H204.404C204.404 295.137 204.63 294.375 205.08 293.794C205.54 293.205 206.185 292.776 207.017 292.507C207.858 292.23 208.855 292.091 210.007 292.091C211.056 292.091 211.975 292.264 212.763 292.611C213.561 292.949 214.18 293.478 214.622 294.197C215.064 294.916 215.285 295.844 215.285 296.979V305H212.854ZM208.694 305.351C207.628 305.351 206.74 305.165 206.029 304.792C205.327 304.419 204.799 303.93 204.443 303.323C204.088 302.716 203.91 302.062 203.91 301.36C203.91 300.554 204.118 299.882 204.534 299.345C204.959 298.808 205.548 298.409 206.302 298.149C207.065 297.88 207.953 297.746 208.967 297.746C209.643 297.746 210.289 297.802 210.904 297.915C211.528 298.019 212.148 298.166 212.763 298.357V300.008C212.269 299.835 211.728 299.7 211.138 299.605C210.558 299.51 210.012 299.462 209.5 299.462C208.746 299.462 208.118 299.609 207.615 299.904C207.121 300.19 206.874 300.675 206.874 301.36C206.874 301.871 207.074 302.309 207.472 302.673C207.871 303.037 208.504 303.219 209.37 303.219C210.012 303.219 210.566 303.076 211.034 302.79C211.502 302.495 211.862 302.131 212.113 301.698C212.373 301.265 212.503 300.836 212.503 300.411H213.166C213.166 301.295 212.993 302.114 212.646 302.868C212.308 303.613 211.806 304.216 211.138 304.675C210.48 305.126 209.665 305.351 208.694 305.351ZM226.106 305.351C225.309 305.351 224.581 305.134 223.922 304.701C223.264 304.259 222.739 303.605 222.349 302.738C221.959 301.863 221.764 300.779 221.764 299.488H222.648C222.648 300.173 222.8 300.766 223.103 301.269C223.407 301.763 223.792 302.149 224.26 302.426C224.728 302.695 225.218 302.829 225.729 302.829C226.353 302.829 226.908 302.66 227.393 302.322C227.887 301.975 228.277 301.49 228.563 300.866C228.858 300.242 229.005 299.505 229.005 298.656C229.005 297.833 228.862 297.118 228.576 296.511C228.29 295.896 227.9 295.423 227.406 295.094C226.912 294.756 226.345 294.587 225.703 294.587C225.175 294.587 224.676 294.717 224.208 294.977C223.74 295.228 223.363 295.601 223.077 296.095C222.791 296.589 222.648 297.187 222.648 297.889H221.764C221.764 296.641 221.951 295.588 222.323 294.73C222.696 293.863 223.22 293.209 223.896 292.767C224.581 292.316 225.387 292.091 226.314 292.091C227.328 292.091 228.251 292.36 229.083 292.897C229.915 293.434 230.578 294.197 231.072 295.185C231.566 296.164 231.813 297.321 231.813 298.656C231.813 300.008 231.558 301.187 231.046 302.192C230.535 303.189 229.846 303.964 228.979 304.519C228.121 305.074 227.164 305.351 226.106 305.351ZM219.866 305V287.19H222.648V301.932L221.712 305H219.866ZM237.31 289.959C236.764 289.959 236.335 289.812 236.023 289.517C235.711 289.214 235.555 288.806 235.555 288.295C235.555 287.792 235.711 287.394 236.023 287.099C236.335 286.804 236.764 286.657 237.31 286.657C237.847 286.657 238.272 286.804 238.584 287.099C238.896 287.394 239.052 287.792 239.052 288.295C239.052 288.806 238.896 289.214 238.584 289.517C238.272 289.812 237.847 289.959 237.31 289.959ZM235.919 305V292.39H238.701V305H235.919ZM243.988 305V287.19H246.77V305H243.988ZM253.357 289.959C252.811 289.959 252.382 289.812 252.07 289.517C251.758 289.214 251.602 288.806 251.602 288.295C251.602 287.792 251.758 287.394 252.07 287.099C252.382 286.804 252.811 286.657 253.357 286.657C253.894 286.657 254.319 286.804 254.631 287.099C254.943 287.394 255.099 287.792 255.099 288.295C255.099 288.806 254.943 289.214 254.631 289.517C254.319 289.812 253.894 289.959 253.357 289.959ZM251.966 305V292.39H254.748V305H251.966ZM264.181 305.351C263.453 305.351 262.79 305.217 262.192 304.948C261.603 304.671 261.131 304.255 260.775 303.7C260.42 303.137 260.242 302.43 260.242 301.581V289.062H263.011V301.49C263.011 302.591 263.536 303.141 264.584 303.141C264.905 303.141 265.221 303.106 265.533 303.037C265.845 302.968 266.196 302.859 266.586 302.712L266.989 304.675C266.521 304.866 266.058 305.026 265.598 305.156C265.148 305.286 264.675 305.351 264.181 305.351ZM258.409 294.301V292.442H266.586V294.301H258.409ZM268.215 292.442H271.361L274.91 302.569H274.377L277.341 292.442H280.175L275.378 307.34C274.91 308.77 274.325 309.819 273.623 310.486C272.921 311.153 272.055 311.487 271.023 311.487C270.443 311.487 269.875 311.418 269.32 311.279C268.774 311.14 268.22 310.928 267.656 310.642V308.159C268.124 308.48 268.579 308.709 269.021 308.848C269.463 308.995 269.914 309.069 270.373 309.069C270.807 309.069 271.184 308.943 271.504 308.692C271.825 308.441 272.098 308.098 272.323 307.665C272.557 307.24 272.752 306.764 272.908 306.235L273.285 305L268.215 292.442Z" fill="white"/>
<path d="M185.882 175V162.39H188.664V175H185.882ZM187.949 169.436C187.949 167.807 188.127 166.459 188.482 165.393C188.837 164.318 189.323 163.521 189.938 163.001C190.553 162.472 191.255 162.208 192.044 162.208C192.278 162.208 192.49 162.225 192.681 162.26C192.88 162.286 193.08 162.329 193.279 162.39L193.201 165.159C192.967 165.098 192.716 165.051 192.447 165.016C192.187 164.973 191.949 164.951 191.732 164.951C191.047 164.951 190.475 165.129 190.016 165.484C189.565 165.831 189.227 166.338 189.002 167.005C188.777 167.672 188.664 168.483 188.664 169.436H187.949ZM197.486 159.959C196.94 159.959 196.511 159.812 196.199 159.517C195.887 159.214 195.731 158.806 195.731 158.295C195.731 157.792 195.887 157.394 196.199 157.099C196.511 156.804 196.94 156.657 197.486 156.657C198.023 156.657 198.448 156.804 198.76 157.099C199.072 157.394 199.228 157.792 199.228 158.295C199.228 158.806 199.072 159.214 198.76 159.517C198.448 159.812 198.023 159.959 197.486 159.959ZM196.095 175V162.39H198.877V175H196.095ZM208.804 175.351C207.6 175.351 206.568 175.182 205.71 174.844C204.861 174.506 204.207 174.029 203.747 173.414C203.297 172.79 203.067 172.049 203.058 171.191H205.645C205.68 171.858 205.949 172.352 206.451 172.673C206.954 172.985 207.634 173.141 208.492 173.141C208.96 173.141 209.381 173.072 209.753 172.933C210.126 172.786 210.416 172.591 210.624 172.348C210.841 172.097 210.949 171.819 210.949 171.516C210.949 171.126 210.806 170.818 210.52 170.593C210.243 170.368 209.792 170.164 209.168 169.982L206.503 169.059C205.498 168.712 204.727 168.249 204.189 167.668C203.652 167.087 203.383 166.394 203.383 165.588C203.383 164.539 203.856 163.694 204.8 163.053C205.745 162.412 207.002 162.091 208.57 162.091C210.165 162.091 211.396 162.433 212.262 163.118C213.129 163.803 213.575 164.665 213.601 165.705H210.962C210.91 165.254 210.689 164.903 210.299 164.652C209.909 164.392 209.333 164.262 208.57 164.262C207.868 164.262 207.318 164.414 206.919 164.717C206.529 165.012 206.334 165.35 206.334 165.731C206.334 166.398 206.906 166.897 208.05 167.226L210.897 168.266C211.894 168.595 212.665 169.02 213.211 169.54C213.757 170.06 214.03 170.719 214.03 171.516C214.03 172.175 213.809 172.799 213.367 173.388C212.934 173.969 212.327 174.441 211.547 174.805C210.767 175.169 209.853 175.351 208.804 175.351ZM217.874 175V157.19H220.656V175H217.874ZM220.279 167.369L225.934 162.442H229.73L220.279 170.255V167.369ZM226.636 175L220.929 167.018L223.607 166.407L230.042 175H226.636Z" fill="white"/>
</svg>
