<svg width="170" height="145" viewBox="0 0 170 145" fill="none" xmlns="http://www.w3.org/2000/svg">
<rect width="170" height="144.149" rx="10" fill="#9CD2FF"/>
<path d="M20 23H91H150" fill="white"/>
<path d="M20 23H91H150" stroke="black" stroke-miterlimit="10"/>
<path d="M150 23L143 26V20L150 23Z" fill="black" stroke="black" stroke-miterlimit="10"/>
<path d="M64.0761 37.6719V29.9199H61V29H68.3828V29.9199H65.3066V37.6719H64.0761ZM69.6367 37.6719V31.3086H70.791V32.5039C71.248 31.6133 71.9121 31.168 72.7832 31.168C72.9004 31.168 73.0234 31.1778 73.1523 31.1973V32.2754C72.9531 32.209 72.7773 32.1758 72.625 32.1758C71.8945 32.1758 71.2832 32.6094 70.791 33.4766V37.6719H69.6367ZM74.5468 37.6719V31.3086H75.7011V37.6719H74.5468ZM74.5468 30.1543V29H75.7011V30.1543H74.5468ZM78.039 39.7871L78.1738 38.7852C78.8417 39.1016 79.4999 39.2598 80.1484 39.2598C81.4492 39.2598 82.0996 38.5703 82.0996 37.1914V36.1895C81.6738 37.0801 80.9746 37.5254 80.0019 37.5254C79.2402 37.5254 78.6347 37.2481 78.1855 36.6934C77.7363 36.1387 77.5117 35.3907 77.5117 34.4492C77.5117 33.4805 77.7676 32.6914 78.2793 32.0821C78.791 31.4727 79.4531 31.168 80.2656 31.168C80.9765 31.168 81.5879 31.4571 82.0996 32.0352V31.3086H83.2597V35.9375C83.2597 36.9336 83.208 37.6709 83.1045 38.1494C83.001 38.6279 82.8066 39.0195 82.5215 39.3242C82.0176 39.8594 81.2343 40.127 80.1718 40.127C79.4297 40.127 78.7187 40.0137 78.039 39.7871ZM82.0996 35.4688V32.8262C81.5918 32.2989 81.0391 32.0352 80.4414 32.0352C79.9101 32.0352 79.4941 32.2481 79.1933 32.6739C78.8926 33.0996 78.7422 33.6836 78.7422 34.4258C78.7422 35.8203 79.2324 36.5176 80.2129 36.5176C80.8808 36.5176 81.5097 36.168 82.0996 35.4688ZM85.5215 39.7871L85.6562 38.7852C86.3242 39.1016 86.9824 39.2598 87.6308 39.2598C88.9316 39.2598 89.582 38.5703 89.582 37.1914V36.1895C89.1562 37.0801 88.457 37.5254 87.4843 37.5254C86.7226 37.5254 86.1172 37.2481 85.6679 36.6934C85.2187 36.1387 84.9941 35.3907 84.9941 34.4492C84.9941 33.4805 85.25 32.6914 85.7617 32.0821C86.2734 31.4727 86.9355 31.168 87.748 31.168C88.4589 31.168 89.0703 31.4571 89.582 32.0352V31.3086H90.7422V35.9375C90.7422 36.9336 90.6904 37.6709 90.5869 38.1494C90.4834 38.6279 90.289 39.0195 90.0039 39.3242C89.5 39.8594 88.7168 40.127 87.6543 40.127C86.9121 40.127 86.2012 40.0137 85.5215 39.7871ZM89.582 35.4688V32.8262C89.0742 32.2989 88.5215 32.0352 87.9238 32.0352C87.3925 32.0352 86.9765 32.2481 86.6757 32.6739C86.375 33.0996 86.2246 33.6836 86.2246 34.4258C86.2246 35.8203 86.7148 36.5176 87.6953 36.5176C88.3632 36.5176 88.9921 36.168 89.582 35.4688ZM97.6445 37.4668C96.871 37.7012 96.2089 37.8184 95.6582 37.8184C94.7207 37.8184 93.956 37.5069 93.3642 36.8838C92.7724 36.2607 92.4765 35.4531 92.4765 34.461C92.4765 33.4961 92.7373 32.7051 93.2588 32.0879C93.7803 31.4707 94.4472 31.1621 95.2597 31.1621C96.0292 31.1621 96.624 31.4355 97.0439 31.9824C97.4638 32.5293 97.6738 33.3067 97.6738 34.3145L97.6679 34.6719H93.6543C93.8222 36.1836 94.5625 36.9395 95.875 36.9395C96.3555 36.9395 96.9453 36.8106 97.6445 36.5528V37.4668ZM93.707 33.8047H96.5136C96.5136 32.6211 96.0722 32.0293 95.1894 32.0293C94.3027 32.0293 93.8085 32.6211 93.707 33.8047ZM99.666 37.6719V31.3086H100.82V32.5039C101.277 31.6133 101.941 31.168 102.812 31.168C102.93 31.168 103.053 31.1778 103.182 31.1973V32.2754C102.982 32.209 102.807 32.1758 102.654 32.1758C101.924 32.1758 101.312 32.6094 100.82 33.4766V37.6719H99.666Z" fill="black"/>
<path d="M20 63.127H80H150" fill="white"/>
<path d="M20 63.127H80H150" stroke="black" stroke-miterlimit="10" stroke-dasharray="6 3"/>
<path d="M150 63.127L143 66.127V60.127L150 63.127Z" fill="black" stroke="black" stroke-miterlimit="10"/>
<path d="M73 78.7989V70.127H77.8457V71.0469H74.2305V73.9532H77.2657V74.8614H74.2305V78.7989H73ZM79.4688 78.7989V69.5469H80.6231V78.7989H79.4688ZM85.4278 78.9454C84.5176 78.9454 83.791 78.6436 83.2481 78.0401C82.7051 77.4366 82.4336 76.629 82.4336 75.6173C82.4336 74.5938 82.7061 73.7842 83.251 73.1885C83.7959 72.5928 84.5352 72.295 85.4688 72.295C86.4024 72.295 87.1417 72.5928 87.6866 73.1885C88.2315 73.7842 88.5039 74.5899 88.5039 75.6055C88.5039 76.6446 88.2305 77.461 87.6836 78.0548C87.1367 78.6485 86.3848 78.9454 85.4278 78.9454ZM85.4454 78.0782C86.668 78.0782 87.2793 77.254 87.2793 75.6055C87.2793 73.9766 86.6758 73.1622 85.4688 73.1622C84.2657 73.1622 83.6641 73.9806 83.6641 75.6173C83.6641 77.2579 84.2579 78.0782 85.4454 78.0782ZM91.0469 78.7989L89.2247 72.4356H90.3555L91.75 77.3634L93.2559 72.4356H94.4102L95.7286 77.3634L97.3282 72.4356H98.3184L96.2442 78.7989H95.084L93.7364 73.8712L92.2129 78.7989H91.0469Z" fill="black"/>
<path d="M20 105.945H82H139" fill="white"/>
<path d="M20 105.945H82H139" stroke="black" stroke-miterlimit="10"/>
<path d="M150 105.945L140 112.945V98.9454L150 105.945Z" stroke="black" stroke-miterlimit="10"/>
<path d="M45.2325 122.051C44.6504 122.051 43.9063 121.924 43 121.67V120.451C43.9766 120.904 44.7793 121.131 45.4082 121.131C45.8926 121.131 46.2823 121.004 46.5772 120.75C46.8721 120.496 47.0196 120.162 47.0196 119.748C47.0196 119.408 46.9229 119.119 46.7295 118.881C46.5362 118.643 46.1797 118.377 45.6602 118.084L45.0625 117.738C44.3242 117.317 43.8037 116.919 43.501 116.546C43.1983 116.173 43.0469 115.738 43.0469 115.242C43.0469 114.574 43.2891 114.025 43.7735 113.593C44.2578 113.161 44.875 112.945 45.625 112.945C46.293 112.945 46.9981 113.057 47.7403 113.279V114.404C46.8262 114.045 46.1446 113.865 45.6953 113.865C45.2696 113.865 44.918 113.979 44.6407 114.205C44.3633 114.432 44.2246 114.717 44.2246 115.061C44.2246 115.35 44.3262 115.606 44.5293 115.828C44.7324 116.051 45.1035 116.317 45.6426 116.625L46.2637 116.977C47.0137 117.402 47.5371 117.805 47.834 118.184C48.1309 118.563 48.2793 119.018 48.2793 119.549C48.2793 120.303 48.001 120.908 47.4444 121.365C46.8877 121.822 46.1504 122.051 45.2325 122.051ZM50.0313 124.149V115.471H51.1856V116.666C51.6583 115.776 52.3672 115.33 53.3125 115.33C54.0782 115.33 54.6807 115.61 55.1202 116.168C55.5596 116.727 55.7793 117.49 55.7793 118.459C55.7793 119.514 55.5303 120.364 55.0323 121.011C54.5342 121.657 53.8789 121.981 53.0664 121.981C52.3125 121.981 51.6856 121.692 51.1856 121.113V124.149H50.0313ZM51.1856 120.317C51.7793 120.848 52.3457 121.113 52.8848 121.113C53.9942 121.113 54.5489 120.268 54.5489 118.576C54.5489 117.084 54.0567 116.338 53.0723 116.338C52.4278 116.338 51.7989 116.688 51.1856 117.387V120.317ZM62.2481 121.629C61.4746 121.863 60.8125 121.981 60.2618 121.981C59.3243 121.981 58.5596 121.669 57.9678 121.046C57.376 120.423 57.0801 119.615 57.0801 118.623C57.0801 117.658 57.3408 116.867 57.8623 116.25C58.3838 115.633 59.0508 115.324 59.8633 115.324C60.6328 115.324 61.2276 115.598 61.6475 116.145C62.0674 116.692 62.2774 117.469 62.2774 118.477L62.2715 118.834H58.2579C58.4258 120.346 59.1661 121.102 60.4786 121.102C60.9591 121.102 61.5489 120.973 62.2481 120.715V121.629ZM58.3106 117.967H61.1172C61.1172 116.783 60.6758 116.192 59.793 116.192C58.9063 116.192 58.4121 116.783 58.3106 117.967ZM66.7539 121.981C65.8946 121.981 65.1817 121.662 64.6153 121.026C64.0489 120.389 63.7657 119.586 63.7657 118.617C63.7657 117.582 64.046 116.776 64.6065 116.197C65.167 115.619 65.9493 115.33 66.9532 115.33C67.4493 115.33 68.0039 115.399 68.6172 115.535V116.502C67.9649 116.311 67.4336 116.215 67.0235 116.215C66.4336 116.215 65.96 116.437 65.6026 116.88C65.2451 117.323 65.0664 117.914 65.0664 118.653C65.0664 119.367 65.25 119.945 65.6172 120.387C65.9844 120.828 66.4649 121.049 67.0586 121.049C67.5859 121.049 68.1289 120.914 68.6875 120.645V121.641C67.9414 121.867 67.2969 121.981 66.7539 121.981ZM70.4161 121.834V115.471H71.5703V121.834H70.4161ZM70.4161 114.317V113.162H71.5703V114.317H70.4161ZM77.1661 121.026C76.4746 121.662 75.8086 121.981 75.168 121.981C74.6407 121.981 74.2032 121.816 73.8555 121.486C73.5078 121.155 73.334 120.738 73.334 120.235C73.334 119.539 73.626 119.005 74.21 118.632C74.794 118.259 75.6309 118.072 76.7207 118.072H76.9961V117.305C76.9961 116.567 76.6172 116.197 75.8594 116.197C75.25 116.197 74.5918 116.385 73.8848 116.76V115.805C74.6621 115.488 75.3906 115.33 76.0703 115.33C76.7813 115.33 77.3057 115.49 77.6436 115.811C77.9815 116.131 78.1504 116.629 78.1504 117.305V120.188C78.1504 120.848 78.3535 121.178 78.7598 121.178C78.8106 121.178 78.8848 121.17 78.9825 121.154L79.0645 121.793C78.8028 121.918 78.5137 121.981 78.1973 121.981C77.6582 121.981 77.3145 121.662 77.1661 121.026ZM76.9961 120.399V118.752L76.6094 118.74C75.9766 118.74 75.4649 118.86 75.0743 119.101C74.6836 119.341 74.4883 119.656 74.4883 120.047C74.4883 120.324 74.586 120.559 74.7813 120.75C74.9766 120.942 75.2149 121.037 75.4961 121.037C75.9766 121.037 76.4766 120.824 76.9961 120.399ZM80.5118 121.834V112.582H81.6661V121.834H80.5118ZM83.9805 121.834V115.471H85.1348V121.834H83.9805ZM83.9805 114.317V113.162H85.1348V114.317H83.9805ZM87.0157 121.834V120.967L90.9532 116.338H87.1973V115.471H92.377V116.338L88.4395 120.967H92.4532V121.834H87.0157ZM97.6094 121.026C96.918 121.662 96.252 121.981 95.6114 121.981C95.084 121.981 94.6465 121.816 94.2989 121.486C93.9512 121.155 93.7774 120.738 93.7774 120.235C93.7774 119.539 94.0694 119.005 94.6534 118.632C95.2373 118.259 96.0742 118.072 97.1641 118.072H97.4395V117.305C97.4395 116.567 97.0606 116.197 96.3028 116.197C95.6934 116.197 95.0352 116.385 94.3282 116.76V115.805C95.1055 115.488 95.834 115.33 96.5137 115.33C97.2246 115.33 97.7491 115.49 98.087 115.811C98.4249 116.131 98.5938 116.629 98.5938 117.305V120.188C98.5938 120.848 98.7969 121.178 99.2032 121.178C99.2539 121.178 99.3281 121.17 99.4258 121.154L99.5079 121.793C99.2462 121.918 98.9571 121.981 98.6407 121.981C98.1016 121.981 97.7579 121.662 97.6094 121.026ZM97.4395 120.399V118.752L97.0528 118.74C96.42 118.74 95.9083 118.86 95.5176 119.101C95.127 119.341 94.9317 119.656 94.9317 120.047C94.9317 120.324 95.0293 120.559 95.2246 120.75C95.4199 120.942 95.6582 121.037 95.9395 121.037C96.42 121.037 96.92 120.824 97.4395 120.399ZM102.865 121.981C102.279 121.981 101.822 121.813 101.494 121.477C101.166 121.141 101.002 120.674 101.002 120.076V116.338H100.205V115.471H101.002V114.317L102.156 114.205V115.471H103.82V116.338H102.156V119.865C102.156 120.697 102.516 121.113 103.234 121.113C103.387 121.113 103.572 121.088 103.791 121.037V121.834C103.436 121.932 103.127 121.981 102.865 121.981ZM105.443 121.834V115.471H106.598V121.834H105.443ZM105.443 114.317V113.162H106.598V114.317H105.443ZM111.402 121.981C110.492 121.981 109.766 121.679 109.223 121.075C108.68 120.472 108.408 119.664 108.408 118.653C108.408 117.629 108.681 116.819 109.226 116.224C109.771 115.628 110.51 115.33 111.443 115.33C112.377 115.33 113.116 115.628 113.661 116.224C114.206 116.819 114.479 117.625 114.479 118.641C114.479 119.68 114.205 120.496 113.658 121.09C113.111 121.684 112.359 121.981 111.402 121.981ZM111.42 121.113C112.643 121.113 113.254 120.289 113.254 118.641C113.254 117.012 112.65 116.197 111.443 116.197C110.24 116.197 109.639 117.016 109.639 118.653C109.639 120.293 110.232 121.113 111.42 121.113ZM116.283 121.834V115.471H117.438V116.666C118.047 115.776 118.793 115.33 119.676 115.33C120.227 115.33 120.666 115.505 120.994 115.855C121.322 116.204 121.486 116.674 121.486 117.264V121.834H120.332V117.639C120.332 117.166 120.263 116.829 120.124 116.628C119.985 116.427 119.756 116.326 119.436 116.326C118.729 116.326 118.062 116.789 117.438 117.715V121.834H116.283Z" fill="black"/>
</svg>
