<svg width="170" height="178" viewBox="0 0 170 178" fill="none" xmlns="http://www.w3.org/2000/svg">
<rect width="170" height="98.9454" rx="10" fill="#9CD2FF"/>
<path d="M20 23H91H150" fill="white"/>
<path d="M20 23H91H150" stroke="black" stroke-miterlimit="10"/>
<path d="M150 23L143 26V20L150 23Z" fill="black" stroke="black" stroke-miterlimit="10"/>
<path d="M64.0761 37.6719V29.9199H61V29H68.3828V29.9199H65.3066V37.6719H64.0761ZM69.6367 37.6719V31.3086H70.791V32.5039C71.248 31.6133 71.9121 31.168 72.7832 31.168C72.9004 31.168 73.0234 31.1778 73.1523 31.1973V32.2754C72.9531 32.209 72.7773 32.1758 72.625 32.1758C71.8945 32.1758 71.2832 32.6094 70.791 33.4766V37.6719H69.6367ZM74.5468 37.6719V31.3086H75.7011V37.6719H74.5468ZM74.5468 30.1543V29H75.7011V30.1543H74.5468ZM78.039 39.7871L78.1738 38.7852C78.8417 39.1016 79.4999 39.2598 80.1484 39.2598C81.4492 39.2598 82.0996 38.5703 82.0996 37.1914V36.1895C81.6738 37.0801 80.9746 37.5254 80.0019 37.5254C79.2402 37.5254 78.6347 37.2481 78.1855 36.6934C77.7363 36.1387 77.5117 35.3907 77.5117 34.4492C77.5117 33.4805 77.7676 32.6914 78.2793 32.0821C78.791 31.4727 79.4531 31.168 80.2656 31.168C80.9765 31.168 81.5879 31.4571 82.0996 32.0352V31.3086H83.2597V35.9375C83.2597 36.9336 83.208 37.6709 83.1045 38.1494C83.001 38.6279 82.8066 39.0195 82.5215 39.3242C82.0176 39.8594 81.2343 40.127 80.1718 40.127C79.4297 40.127 78.7187 40.0137 78.039 39.7871ZM82.0996 35.4688V32.8262C81.5918 32.2989 81.0391 32.0352 80.4414 32.0352C79.9101 32.0352 79.4941 32.2481 79.1933 32.6739C78.8926 33.0996 78.7422 33.6836 78.7422 34.4258C78.7422 35.8203 79.2324 36.5176 80.2129 36.5176C80.8808 36.5176 81.5097 36.168 82.0996 35.4688ZM85.5215 39.7871L85.6562 38.7852C86.3242 39.1016 86.9824 39.2598 87.6308 39.2598C88.9316 39.2598 89.582 38.5703 89.582 37.1914V36.1895C89.1562 37.0801 88.457 37.5254 87.4843 37.5254C86.7226 37.5254 86.1172 37.2481 85.6679 36.6934C85.2187 36.1387 84.9941 35.3907 84.9941 34.4492C84.9941 33.4805 85.25 32.6914 85.7617 32.0821C86.2734 31.4727 86.9355 31.168 87.748 31.168C88.4589 31.168 89.0703 31.4571 89.582 32.0352V31.3086H90.7422V35.9375C90.7422 36.9336 90.6904 37.6709 90.5869 38.1494C90.4834 38.6279 90.289 39.0195 90.0039 39.3242C89.5 39.8594 88.7168 40.127 87.6543 40.127C86.9121 40.127 86.2012 40.0137 85.5215 39.7871ZM89.582 35.4688V32.8262C89.0742 32.2989 88.5215 32.0352 87.9238 32.0352C87.3925 32.0352 86.9765 32.2481 86.6757 32.6739C86.375 33.0996 86.2246 33.6836 86.2246 34.4258C86.2246 35.8203 86.7148 36.5176 87.6953 36.5176C88.3632 36.5176 88.9921 36.168 89.582 35.4688ZM97.6445 37.4668C96.871 37.7012 96.2089 37.8184 95.6582 37.8184C94.7207 37.8184 93.956 37.5069 93.3642 36.8838C92.7724 36.2607 92.4765 35.4531 92.4765 34.461C92.4765 33.4961 92.7373 32.7051 93.2588 32.0879C93.7803 31.4707 94.4472 31.1621 95.2597 31.1621C96.0292 31.1621 96.624 31.4355 97.0439 31.9824C97.4638 32.5293 97.6738 33.3067 97.6738 34.3145L97.6679 34.6719H93.6543C93.8222 36.1836 94.5625 36.9395 95.875 36.9395C96.3555 36.9395 96.9453 36.8106 97.6445 36.5528V37.4668ZM93.707 33.8047H96.5136C96.5136 32.6211 96.0722 32.0293 95.1894 32.0293C94.3027 32.0293 93.8085 32.6211 93.707 33.8047ZM99.666 37.6719V31.3086H100.82V32.5039C101.277 31.6133 101.941 31.168 102.812 31.168C102.93 31.168 103.053 31.1778 103.182 31.1973V32.2754C102.982 32.209 102.807 32.1758 102.654 32.1758C101.924 32.1758 101.312 32.6094 100.82 33.4766V37.6719H99.666Z" fill="black"/>
<path d="M20 63.127H80H150" fill="white"/>
<path d="M20 63.127H80H150" stroke="black" stroke-miterlimit="10" stroke-dasharray="6 3"/>
<path d="M150 63.127L143 66.127V60.127L150 63.127Z" fill="black" stroke="black" stroke-miterlimit="10"/>
<path d="M73 78.7989V70.127H77.8457V71.0469H74.2305V73.9532H77.2657V74.8614H74.2305V78.7989H73ZM79.4688 78.7989V69.5469H80.6231V78.7989H79.4688ZM85.4278 78.9454C84.5176 78.9454 83.791 78.6437 83.2481 78.0401C82.7051 77.4366 82.4336 76.629 82.4336 75.6173C82.4336 74.5939 82.7061 73.7843 83.251 73.1885C83.7959 72.5929 84.5352 72.295 85.4688 72.295C86.4024 72.295 87.1417 72.5929 87.6866 73.1885C88.2315 73.7843 88.5039 74.5899 88.5039 75.6055C88.5039 76.6446 88.2305 77.461 87.6836 78.0548C87.1367 78.6486 86.3848 78.9454 85.4278 78.9454ZM85.4454 78.0782C86.668 78.0782 87.2793 77.254 87.2793 75.6055C87.2793 73.9767 86.6758 73.1622 85.4688 73.1622C84.2657 73.1622 83.6641 73.9806 83.6641 75.6173C83.6641 77.2579 84.2579 78.0782 85.4454 78.0782ZM91.0469 78.7989L89.2247 72.4356H90.3555L91.75 77.3634L93.2559 72.4356H94.4102L95.7286 77.3634L97.3282 72.4356H98.3184L96.2442 78.7989H95.084L93.7364 73.8712L92.2129 78.7989H91.0469Z" fill="black"/>
<rect y="112" width="170" height="65.2032" rx="10" fill="#9CD2FF"/>
<path d="M20 139H82H139" fill="white"/>
<path d="M20 139H82H139" stroke="black" stroke-miterlimit="10"/>
<path d="M150 139L140 146V132L150 139Z" stroke="black" stroke-miterlimit="10"/>
<path d="M45.2325 155.106C44.6504 155.106 43.9063 154.979 43 154.725V153.506C43.9766 153.959 44.7793 154.186 45.4082 154.186C45.8926 154.186 46.2823 154.059 46.5772 153.805C46.8721 153.551 47.0196 153.217 47.0196 152.803C47.0196 152.463 46.9229 152.174 46.7295 151.936C46.5362 151.697 46.1797 151.432 45.6602 151.139L45.0625 150.793C44.3242 150.371 43.8037 149.974 43.501 149.601C43.1983 149.228 43.0469 148.793 43.0469 148.297C43.0469 147.629 43.2891 147.079 43.7735 146.648C44.2578 146.216 44.875 146 45.625 146C46.293 146 46.9981 146.111 47.7403 146.334V147.459C46.8262 147.1 46.1446 146.92 45.6953 146.92C45.2696 146.92 44.918 147.033 44.6407 147.26C44.3633 147.486 44.2246 147.772 44.2246 148.115C44.2246 148.404 44.3262 148.66 44.5293 148.883C44.7324 149.105 45.1035 149.371 45.6426 149.68L46.2637 150.031C47.0137 150.457 47.5371 150.859 47.834 151.238C48.1309 151.617 48.2793 152.072 48.2793 152.604C48.2793 153.357 48.001 153.963 47.4444 154.42C46.8877 154.877 46.1504 155.106 45.2325 155.106ZM50.0313 157.203V148.525H51.1856V149.721C51.6583 148.83 52.3672 148.385 53.3125 148.385C54.0782 148.385 54.6807 148.664 55.1202 149.223C55.5596 149.781 55.7793 150.545 55.7793 151.514C55.7793 152.568 55.5303 153.419 55.0323 154.066C54.5342 154.712 53.8789 155.035 53.0664 155.035C52.3125 155.035 51.6856 154.746 51.1856 154.168V157.203H50.0313ZM51.1856 153.371C51.7793 153.902 52.3457 154.168 52.8848 154.168C53.9942 154.168 54.5489 153.322 54.5489 151.631C54.5489 150.139 54.0567 149.393 53.0723 149.393C52.4278 149.393 51.7989 149.742 51.1856 150.441V153.371ZM62.2481 154.684C61.4746 154.918 60.8125 155.035 60.2618 155.035C59.3243 155.035 58.5596 154.724 57.9678 154.101C57.376 153.478 57.0801 152.67 57.0801 151.678C57.0801 150.713 57.3408 149.922 57.8623 149.305C58.3838 148.688 59.0508 148.379 59.8633 148.379C60.6328 148.379 61.2276 148.652 61.6475 149.199C62.0674 149.746 62.2774 150.524 62.2774 151.531L62.2715 151.889H58.2579C58.4258 153.4 59.1661 154.156 60.4786 154.156C60.9591 154.156 61.5489 154.027 62.2481 153.77V154.684ZM58.3106 151.022H61.1172C61.1172 149.838 60.6758 149.246 59.793 149.246C58.9063 149.246 58.4121 149.838 58.3106 151.022ZM66.7539 155.035C65.8946 155.035 65.1817 154.717 64.6153 154.08C64.0489 153.443 63.7657 152.641 63.7657 151.672C63.7657 150.637 64.046 149.83 64.6065 149.252C65.167 148.674 65.9493 148.385 66.9532 148.385C67.4493 148.385 68.0039 148.453 68.6172 148.59V149.557C67.9649 149.365 67.4336 149.27 67.0235 149.27C66.4336 149.27 65.96 149.491 65.6026 149.935C65.2451 150.378 65.0664 150.969 65.0664 151.707C65.0664 152.422 65.25 153 65.6172 153.441C65.9844 153.883 66.4649 154.104 67.0586 154.104C67.5859 154.104 68.1289 153.969 68.6875 153.699V154.695C67.9414 154.922 67.2969 155.035 66.7539 155.035ZM70.4161 154.889V148.525H71.5703V154.889H70.4161ZM70.4161 147.371V146.217H71.5703V147.371H70.4161ZM77.1661 154.08C76.4746 154.717 75.8086 155.035 75.168 155.035C74.6407 155.035 74.2032 154.87 73.8555 154.54C73.5078 154.21 73.334 153.793 73.334 153.289C73.334 152.594 73.626 152.06 74.21 151.687C74.794 151.314 75.6309 151.127 76.7207 151.127H76.9961V150.359C76.9961 149.621 76.6172 149.252 75.8594 149.252C75.25 149.252 74.5918 149.44 73.8848 149.815V148.859C74.6621 148.543 75.3906 148.385 76.0703 148.385C76.7813 148.385 77.3057 148.545 77.6436 148.865C77.9815 149.186 78.1504 149.684 78.1504 150.359V153.242C78.1504 153.902 78.3535 154.233 78.7598 154.233C78.8106 154.233 78.8848 154.225 78.9825 154.209L79.0645 154.848C78.8028 154.973 78.5137 155.035 78.1973 155.035C77.6582 155.035 77.3145 154.717 77.1661 154.08ZM76.9961 153.453V151.807L76.6094 151.795C75.9766 151.795 75.4649 151.915 75.0743 152.155C74.6836 152.396 74.4883 152.711 74.4883 153.102C74.4883 153.379 74.586 153.613 74.7813 153.805C74.9766 153.996 75.2149 154.092 75.4961 154.092C75.9766 154.092 76.4766 153.879 76.9961 153.453ZM80.5118 154.889V145.637H81.6661V154.889H80.5118ZM83.9805 154.889V148.525H85.1348V154.889H83.9805ZM83.9805 147.371V146.217H85.1348V147.371H83.9805ZM87.0157 154.889V154.022L90.9532 149.393H87.1973V148.525H92.377V149.393L88.4395 154.022H92.4532V154.889H87.0157ZM97.6094 154.08C96.918 154.717 96.252 155.035 95.6114 155.035C95.084 155.035 94.6465 154.87 94.2989 154.54C93.9512 154.21 93.7774 153.793 93.7774 153.289C93.7774 152.594 94.0694 152.06 94.6534 151.687C95.2373 151.314 96.0742 151.127 97.1641 151.127H97.4395V150.359C97.4395 149.621 97.0606 149.252 96.3028 149.252C95.6934 149.252 95.0352 149.44 94.3282 149.815V148.859C95.1055 148.543 95.834 148.385 96.5137 148.385C97.2246 148.385 97.7491 148.545 98.087 148.865C98.4249 149.186 98.5938 149.684 98.5938 150.359V153.242C98.5938 153.902 98.7969 154.233 99.2032 154.233C99.2539 154.233 99.3281 154.225 99.4258 154.209L99.5079 154.848C99.2462 154.973 98.9571 155.035 98.6407 155.035C98.1016 155.035 97.7579 154.717 97.6094 154.08ZM97.4395 153.453V151.807L97.0528 151.795C96.42 151.795 95.9083 151.915 95.5176 152.155C95.127 152.396 94.9317 152.711 94.9317 153.102C94.9317 153.379 95.0293 153.613 95.2246 153.805C95.4199 153.996 95.6582 154.092 95.9395 154.092C96.42 154.092 96.92 153.879 97.4395 153.453ZM102.865 155.035C102.279 155.035 101.822 154.867 101.494 154.531C101.166 154.195 101.002 153.729 101.002 153.131V149.393H100.205V148.525H101.002V147.371L102.156 147.26V148.525H103.82V149.393H102.156V152.92C102.156 153.752 102.516 154.168 103.234 154.168C103.387 154.168 103.572 154.143 103.791 154.092V154.889C103.436 154.986 103.127 155.035 102.865 155.035ZM105.443 154.889V148.525H106.598V154.889H105.443ZM105.443 147.371V146.217H106.598V147.371H105.443ZM111.402 155.035C110.492 155.035 109.766 154.733 109.223 154.13C108.68 153.526 108.408 152.719 108.408 151.707C108.408 150.684 108.681 149.874 109.226 149.278C109.771 148.683 110.51 148.385 111.443 148.385C112.377 148.385 113.116 148.683 113.661 149.278C114.206 149.874 114.479 150.68 114.479 151.695C114.479 152.734 114.205 153.551 113.658 154.145C113.111 154.738 112.359 155.035 111.402 155.035ZM111.42 154.168C112.643 154.168 113.254 153.344 113.254 151.695C113.254 150.066 112.65 149.252 111.443 149.252C110.24 149.252 109.639 150.07 109.639 151.707C109.639 153.348 110.232 154.168 111.42 154.168ZM116.283 154.889V148.525H117.438V149.721C118.047 148.83 118.793 148.385 119.676 148.385C120.227 148.385 120.666 148.56 120.994 148.909C121.322 149.259 121.486 149.729 121.486 150.318V154.889H120.332V150.693C120.332 150.221 120.263 149.884 120.124 149.683C119.985 149.481 119.756 149.381 119.436 149.381C118.729 149.381 118.062 149.844 117.438 150.77V154.889H116.283Z" fill="black"/>
</svg>
