<svg width="172" height="178" viewBox="0 0 172 178" fill="none" xmlns="http://www.w3.org/2000/svg">
<rect width="172" height="177.276" rx="10" fill="#9CD2FF"/>
<path d="M21 27H75H140" fill="white"/>
<path d="M21 27H75H140" stroke="black" stroke-miterlimit="10" stroke-dasharray="2 2"/>
<path d="M151 27L141 34V20L151 27Z" stroke="black" stroke-miterlimit="10"/>
<path d="M55 42.6719V34H57.625C58.4571 34 59.0948 34.1836 59.5381 34.5508C59.9815 34.918 60.2032 35.4512 60.2032 36.1504C60.2032 37.3067 59.6192 38.127 58.4512 38.6114L61.3457 42.6719H59.834L57.3672 39.0039H56.2188V42.6719H55ZM56.2188 38.084H56.6172C58.1641 38.084 58.9375 37.4766 58.9375 36.2617C58.9375 35.3672 58.2891 34.9199 56.9922 34.9199H56.2188V38.084ZM67.2871 42.4668C66.5137 42.7012 65.8516 42.8184 65.3008 42.8184C64.3633 42.8184 63.5987 42.5069 63.0069 41.8838C62.4151 41.2608 62.1192 40.4531 62.1192 39.461C62.1192 38.4961 62.3799 37.7051 62.9014 37.0879C63.4229 36.4707 64.0899 36.1621 64.9024 36.1621C65.6719 36.1621 66.2667 36.4356 66.6866 36.9824C67.1065 37.5294 67.3164 38.3067 67.3164 39.3145L67.3106 39.6719H63.2969C63.4649 41.1837 64.2051 41.9395 65.5176 41.9395C65.9981 41.9395 66.5879 41.8106 67.2871 41.5528V42.4668ZM63.3497 38.8047H66.1563C66.1563 37.6211 65.7149 37.0293 64.8321 37.0293C63.9454 37.0293 63.4512 37.6211 63.3497 38.8047ZM72.5899 41.8633C71.8985 42.5001 71.2325 42.8184 70.5918 42.8184C70.0645 42.8184 69.627 42.6534 69.2793 42.3233C68.9317 41.9932 68.7579 41.5762 68.7579 41.0723C68.7579 40.377 69.0499 39.8428 69.6338 39.4698C70.2178 39.0968 71.0547 38.9102 72.1446 38.9102H72.42V38.1426C72.42 37.4044 72.0411 37.0352 71.2832 37.0352C70.6739 37.0352 70.0157 37.2227 69.3086 37.5977V36.6426C70.086 36.3262 70.8145 36.168 71.4942 36.168C72.2051 36.168 72.7295 36.3282 73.0674 36.6485C73.4053 36.9688 73.5743 37.4668 73.5743 38.1426V41.0254C73.5743 41.6856 73.7774 42.0157 74.1836 42.0157C74.2344 42.0157 74.3086 42.0079 74.4063 41.9922L74.4883 42.6309C74.2266 42.7559 73.9375 42.8184 73.6211 42.8184C73.082 42.8184 72.7383 42.5001 72.5899 41.8633ZM72.42 41.2364V39.5899L72.0332 39.5781C71.4004 39.5781 70.8887 39.6983 70.4981 39.9385C70.1074 40.1788 69.9121 40.4942 69.9121 40.8848C69.9121 41.1622 70.0098 41.3965 70.2051 41.5879C70.4004 41.7793 70.6387 41.875 70.92 41.875C71.4005 41.875 71.9005 41.6622 72.42 41.2364ZM75.9356 42.6719V33.4199H77.0899V42.6719H75.9356ZM79.4043 42.6719V36.3086H80.5586V42.6719H79.4043ZM79.4043 35.1543V34H80.5586V35.1543H79.4043ZM82.4395 42.6719V41.8047L86.377 37.1758H82.6211V36.3086H87.8008V37.1758L83.8633 41.8047H87.877V42.6719H82.4395ZM93.0332 41.8633C92.3418 42.5001 91.6758 42.8184 91.0352 42.8184C90.5079 42.8184 90.0704 42.6534 89.7227 42.3233C89.375 41.9932 89.2012 41.5762 89.2012 41.0723C89.2012 40.377 89.4932 39.8428 90.0772 39.4698C90.6612 39.0968 91.4981 38.9102 92.5879 38.9102H92.8633V38.1426C92.8633 37.4044 92.4844 37.0352 91.7266 37.0352C91.1172 37.0352 90.459 37.2227 89.752 37.5977V36.6426C90.5293 36.3262 91.2578 36.168 91.9375 36.168C92.6484 36.168 93.1729 36.3282 93.5108 36.6485C93.8487 36.9688 94.0176 37.4668 94.0176 38.1426V41.0254C94.0176 41.6856 94.2207 42.0157 94.627 42.0157C94.6778 42.0157 94.752 42.0079 94.8497 41.9922L94.9317 42.6309C94.67 42.7559 94.3809 42.8184 94.0645 42.8184C93.5254 42.8184 93.1817 42.5001 93.0332 41.8633ZM92.8633 41.2364V39.5899L92.4766 39.5781C91.8438 39.5781 91.3321 39.6983 90.9414 39.9385C90.5508 40.1788 90.3555 40.4942 90.3555 40.8848C90.3555 41.1622 90.4532 41.3965 90.6485 41.5879C90.8438 41.7793 91.082 41.875 91.3633 41.875C91.8438 41.875 92.3438 41.6622 92.8633 41.2364ZM98.2891 42.8184C97.7032 42.8184 97.2461 42.6504 96.918 42.3145C96.5899 41.9786 96.4258 41.5118 96.4258 40.9141V37.1758H95.6289V36.3086H96.4258V35.1543L97.5801 35.043V36.3086H99.2442V37.1758H97.5801V40.7031C97.5801 41.5352 97.9395 41.9512 98.6582 41.9512C98.8106 41.9512 98.9962 41.9258 99.2149 41.875V42.6719C98.8594 42.7696 98.5508 42.8184 98.2891 42.8184ZM100.867 42.6719V36.3086H102.021V42.6719H100.867ZM100.867 35.1543V34H102.021V35.1543H100.867ZM106.826 42.8184C105.916 42.8184 105.189 42.5166 104.646 41.9131C104.104 41.3096 103.832 40.502 103.832 39.4903C103.832 38.4669 104.105 37.6573 104.65 37.0615C105.194 36.4659 105.934 36.168 106.867 36.168C107.801 36.168 108.54 36.4659 109.085 37.0615C109.63 37.6573 109.902 38.4629 109.902 39.4785C109.902 40.5176 109.629 41.334 109.082 41.9278C108.535 42.5216 107.783 42.8184 106.826 42.8184ZM106.844 41.9512C108.066 41.9512 108.678 41.127 108.678 39.4785C108.678 37.8496 108.074 37.0352 106.867 37.0352C105.664 37.0352 105.062 37.8536 105.062 39.4903C105.062 41.1309 105.656 41.9512 106.844 41.9512ZM111.707 42.6719V36.3086H112.861V37.5039C113.471 36.6133 114.217 36.168 115.1 36.168C115.65 36.168 116.09 36.3428 116.418 36.6924C116.746 37.042 116.91 37.5118 116.91 38.1016V42.6719H115.756V38.4766C115.756 38.004 115.687 37.667 115.548 37.4658C115.409 37.2647 115.18 37.1641 114.859 37.1641C114.152 37.1641 113.486 37.627 112.861 38.5528V42.6719H111.707Z" fill="black"/>
<path d="M20 60.8184H80H152" fill="white"/>
<path d="M20 60.8184H80H152" stroke="black" stroke-miterlimit="10"/>
<path d="M23 63.8184C24.6569 63.8184 26 62.4753 26 60.8184C26 59.1616 24.6569 57.8184 23 57.8184C21.3431 57.8184 20 59.1616 20 60.8184C20 62.4753 21.3431 63.8184 23 63.8184Z" fill="black"/>
<path d="M152 60.8184L145 63.8184V57.8184L152 60.8184Z" fill="black" stroke="black" stroke-miterlimit="10"/>
<path d="M52.4141 73.1739L50.9375 69.4356L49.4551 73.1739H52.4141ZM53.7149 76.4903L52.7715 74.088H49.0977L48.1426 76.4903H47L50.4395 67.8184H51.6582L55.0449 76.4903H53.7149ZM58.0215 76.6368C57.4942 76.6368 56.8535 76.5137 56.0996 76.2676V75.2071C56.8535 75.5821 57.5098 75.7696 58.0684 75.7696C58.4004 75.7696 58.6758 75.6798 58.8945 75.5001C59.1133 75.3204 59.2227 75.0958 59.2227 74.8262C59.2227 74.4317 58.916 74.1055 58.3027 73.8477L57.6289 73.5606C56.6328 73.1465 56.1348 72.5509 56.1348 71.7735C56.1348 71.2189 56.3311 70.7823 56.7236 70.4639C57.1162 70.1456 57.6543 69.9864 58.3379 69.9864C58.6934 69.9864 59.1328 70.0353 59.6563 70.1329L59.8965 70.1798V71.1407C59.252 70.9493 58.7402 70.8536 58.3613 70.8536C57.6192 70.8536 57.2481 71.1231 57.2481 71.6622C57.2481 72.0099 57.5293 72.3028 58.0918 72.5411L58.6484 72.7755C59.2773 73.0411 59.7227 73.3214 59.9844 73.6163C60.2461 73.9113 60.377 74.2794 60.377 74.7208C60.377 75.2794 60.1563 75.7384 59.7149 76.0977C59.2734 76.4571 58.709 76.6368 58.0215 76.6368ZM64.1387 76.6368C63.6114 76.6368 62.9707 76.5137 62.2168 76.2676V75.2071C62.9707 75.5821 63.627 75.7696 64.1856 75.7696C64.5176 75.7696 64.793 75.6798 65.0117 75.5001C65.2305 75.3204 65.3399 75.0958 65.3399 74.8262C65.3399 74.4317 65.0332 74.1055 64.4199 73.8477L63.7461 73.5606C62.75 73.1465 62.252 72.5509 62.252 71.7735C62.252 71.2189 62.4483 70.7823 62.8408 70.4639C63.2334 70.1456 63.7715 69.9864 64.4551 69.9864C64.8105 69.9864 65.25 70.0353 65.7734 70.1329L66.0137 70.1798V71.1407C65.3692 70.9493 64.8574 70.8536 64.4785 70.8536C63.7363 70.8536 63.3652 71.1231 63.3652 71.6622C63.3652 72.0099 63.6465 72.3028 64.209 72.5411L64.7656 72.7755C65.3945 73.0411 65.8399 73.3214 66.1016 73.6163C66.3633 73.9113 66.4942 74.2794 66.4942 74.7208C66.4942 75.2794 66.2735 75.7384 65.832 76.0977C65.3906 76.4571 64.8262 76.6368 64.1387 76.6368ZM68.5684 76.4903V70.127H69.7227V76.4903H68.5684ZM68.5684 68.9727V67.8184H69.7227V68.9727H68.5684ZM72.0606 78.6055L72.1953 77.6036C72.8633 77.92 73.5215 78.0782 74.1699 78.0782C75.4707 78.0782 76.1211 77.3888 76.1211 76.0098V75.0079C75.6953 75.8985 74.996 76.3438 74.0234 76.3438C73.2617 76.3438 72.6563 76.0665 72.207 75.5118C71.7578 74.9572 71.5332 74.2091 71.5332 73.2676C71.5332 72.2989 71.789 71.5099 72.3008 70.9005C72.8125 70.2911 73.4746 69.9864 74.2871 69.9864C74.998 69.9864 75.6094 70.2755 76.1211 70.8536V70.127H77.2813V74.7559C77.2813 75.7521 77.2295 76.4894 77.126 76.9678C77.0224 77.4464 76.8281 77.8379 76.543 78.1426C76.0391 78.6778 75.2559 78.9454 74.1934 78.9454C73.4512 78.9454 72.7402 78.8321 72.0606 78.6055ZM76.1211 74.2872V71.6446C75.6133 71.1173 75.0606 70.8536 74.4629 70.8536C73.9316 70.8536 73.5156 71.0665 73.2149 71.4923C72.9141 71.9181 72.7637 72.502 72.7637 73.2442C72.7637 74.6388 73.2539 75.336 74.2344 75.336C74.9023 75.336 75.5312 74.9864 76.1211 74.2872ZM79.5195 76.4903V70.127H80.6738V71.3223C81.2832 70.4317 82.0293 69.9864 82.9121 69.9864C83.4629 69.9864 83.9024 70.1612 84.2305 70.5108C84.5586 70.8604 84.7227 71.3302 84.7227 71.92V76.4903H83.5684V72.295C83.5684 71.8224 83.499 71.4854 83.3604 71.2842C83.2217 71.0831 82.9922 70.9825 82.6719 70.9825C81.9648 70.9825 81.2988 71.4454 80.6738 72.3712V76.4903H79.5195ZM86.9668 76.4903V70.127H88.1211V71.3223C88.6836 70.4317 89.4063 69.9864 90.2891 69.9864C91.1406 69.9864 91.7207 70.4317 92.0293 71.3223C92.5762 70.4278 93.2871 69.9805 94.1621 69.9805C94.7246 69.9805 95.1602 70.1456 95.4688 70.4757C95.7773 70.8058 95.9316 71.2677 95.9316 71.8614V76.4903H94.7715V72.043C94.7715 71.3165 94.4844 70.9532 93.9102 70.9532C93.3125 70.9532 92.6856 71.377 92.0293 72.2247V76.4903H90.8692V72.043C90.8692 71.3125 90.5762 70.9473 89.9902 70.9473C89.4082 70.9473 88.7852 71.3731 88.1211 72.2247V76.4903H86.9668ZM102.834 76.2852C102.061 76.5196 101.398 76.6368 100.848 76.6368C99.9102 76.6368 99.1455 76.3253 98.5537 75.7022C97.9619 75.0792 97.666 74.2716 97.666 73.2794C97.666 72.3146 97.9268 71.5235 98.4483 70.9063C98.9698 70.2891 99.6367 69.9805 100.449 69.9805C101.219 69.9805 101.813 70.254 102.233 70.8008C102.653 71.3478 102.863 72.1251 102.863 73.1329L102.857 73.4903H98.8438C99.0117 75.0021 99.752 75.7579 101.064 75.7579C101.545 75.7579 102.135 75.629 102.834 75.3712V76.2852ZM98.8965 72.6231H101.703C101.703 71.4395 101.262 70.8477 100.379 70.8477C99.4921 70.8477 98.998 71.4395 98.8965 72.6231ZM104.855 76.4903V70.127H106.01V71.3223C106.619 70.4317 107.365 69.9864 108.248 69.9864C108.799 69.9864 109.238 70.1612 109.566 70.5108C109.895 70.8604 110.059 71.3302 110.059 71.92V76.4903H108.904V72.295C108.904 71.8224 108.835 71.4854 108.696 71.2842C108.558 71.0831 108.328 70.9825 108.008 70.9825C107.301 70.9825 106.635 71.4454 106.01 72.3712V76.4903H104.855ZM114.213 76.6368C113.627 76.6368 113.17 76.4689 112.842 76.1329C112.514 75.797 112.35 75.3302 112.35 74.7325V70.9942H111.553V70.127H112.35V68.9727L113.504 68.8614V70.127H115.168V70.9942H113.504V74.5215C113.504 75.3536 113.863 75.7696 114.582 75.7696C114.734 75.7696 114.92 75.7442 115.139 75.6934V76.4903C114.783 76.588 114.475 76.6368 114.213 76.6368Z" fill="black"/>
<path d="M40 99.9454H75H99H135H151" fill="white"/>
<path d="M40 99.9454H75H99H135H151" stroke="black" stroke-miterlimit="10"/>
<path fill-rule="evenodd" clip-rule="evenodd" d="M21 99.9454L31 93.9454L41 99.9454L31 105.945L21 99.9454Z" stroke="black" stroke-miterlimit="10"/>
<path d="M56.4141 112.301L54.9375 108.563L53.4551 112.301H56.4141ZM57.7149 115.617L56.7715 113.215H53.0977L52.1426 115.617H51L54.4395 106.945H55.6582L59.0449 115.617H57.7149ZM60.3574 117.732L60.4922 116.731C61.1602 117.047 61.8184 117.205 62.4668 117.205C63.7676 117.205 64.418 116.516 64.418 115.137V114.135C63.9922 115.026 63.293 115.471 62.3203 115.471C61.5586 115.471 60.9531 115.193 60.5039 114.639C60.0547 114.084 59.8301 113.336 59.8301 112.395C59.8301 111.426 60.086 110.637 60.5977 110.028C61.1094 109.418 61.7715 109.113 62.584 109.113C63.2949 109.113 63.9063 109.402 64.418 109.981V109.254H65.5781V113.883C65.5781 114.879 65.5264 115.616 65.4229 116.095C65.3194 116.573 65.125 116.965 64.8399 117.27C64.336 117.805 63.5527 118.072 62.4902 118.072C61.7481 118.072 61.0371 117.959 60.3574 117.732ZM64.418 113.414V110.772C63.9102 110.244 63.3575 109.981 62.7598 109.981C62.2285 109.981 61.8125 110.194 61.5117 110.619C61.211 111.045 61.0606 111.629 61.0606 112.371C61.0606 113.766 61.5508 114.463 62.5313 114.463C63.1992 114.463 63.8281 114.113 64.418 113.414ZM67.8399 117.732L67.9746 116.731C68.6426 117.047 69.3008 117.205 69.9492 117.205C71.25 117.205 71.9004 116.516 71.9004 115.137V114.135C71.4746 115.026 70.7754 115.471 69.8027 115.471C69.041 115.471 68.4356 115.193 67.9863 114.639C67.5371 114.084 67.3125 113.336 67.3125 112.395C67.3125 111.426 67.5684 110.637 68.0801 110.028C68.5918 109.418 69.2539 109.113 70.0664 109.113C70.7773 109.113 71.3887 109.402 71.9004 109.981V109.254H73.0606V113.883C73.0606 114.879 73.0088 115.616 72.9053 116.095C72.8018 116.573 72.6074 116.965 72.3223 117.27C71.8184 117.805 71.0352 118.072 69.9727 118.072C69.2305 118.072 68.5196 117.959 67.8399 117.732ZM71.9004 113.414V110.772C71.3926 110.244 70.8399 109.981 70.2422 109.981C69.7109 109.981 69.2949 110.194 68.9942 110.619C68.6934 111.045 68.543 111.629 68.543 112.371C68.543 113.766 69.0332 114.463 70.0137 114.463C70.6816 114.463 71.3105 114.113 71.9004 113.414ZM75.2988 115.617V109.254H76.4531V110.449C76.9102 109.559 77.5742 109.113 78.4453 109.113C78.5625 109.113 78.6856 109.123 78.8145 109.143V110.221C78.6152 110.154 78.4394 110.121 78.2871 110.121C77.5566 110.121 76.9453 110.555 76.4531 111.422V115.617H75.2988ZM84.8731 115.412C84.0996 115.647 83.4375 115.764 82.8867 115.764C81.9492 115.764 81.1846 115.452 80.5928 114.829C80.001 114.206 79.7051 113.399 79.7051 112.406C79.7051 111.442 79.9658 110.651 80.4873 110.033C81.0088 109.416 81.6758 109.107 82.4883 109.107C83.2578 109.107 83.8526 109.381 84.2725 109.928C84.6924 110.475 84.9024 111.252 84.9024 112.26L84.8965 112.617H80.8828C81.0508 114.129 81.791 114.885 83.1035 114.885C83.584 114.885 84.1738 114.756 84.8731 114.498V115.412ZM80.9356 111.75H83.7422C83.7422 110.566 83.3008 109.975 82.418 109.975C81.5313 109.975 81.0371 110.566 80.9356 111.75ZM86.918 117.732L87.0527 116.731C87.7207 117.047 88.3789 117.205 89.0274 117.205C90.3281 117.205 90.9785 116.516 90.9785 115.137V114.135C90.5528 115.026 89.8536 115.471 88.8809 115.471C88.1192 115.471 87.5137 115.193 87.0645 114.639C86.6152 114.084 86.3906 113.336 86.3906 112.395C86.3906 111.426 86.6465 110.637 87.1582 110.028C87.6699 109.418 88.332 109.113 89.1445 109.113C89.8554 109.113 90.4668 109.402 90.9785 109.981V109.254H92.1387V113.883C92.1387 114.879 92.0869 115.616 91.9834 116.095C91.8799 116.573 91.6855 116.965 91.4004 117.27C90.8965 117.805 90.1133 118.072 89.0508 118.072C88.3086 118.072 87.5977 117.959 86.918 117.732ZM90.9785 113.414V110.772C90.4707 110.244 89.918 109.981 89.3203 109.981C88.789 109.981 88.373 110.194 88.0723 110.619C87.7715 111.045 87.6211 111.629 87.6211 112.371C87.6211 113.766 88.1113 114.463 89.0918 114.463C89.7598 114.463 90.3887 114.113 90.9785 113.414ZM97.6582 114.809C96.9668 115.445 96.3008 115.764 95.6602 115.764C95.1329 115.764 94.6954 115.599 94.3477 115.269C94 114.939 93.8262 114.522 93.8262 114.018C93.8262 113.322 94.1182 112.788 94.7022 112.415C95.2861 112.042 96.123 111.856 97.2129 111.856H97.4883V111.088C97.4883 110.35 97.1094 109.981 96.3516 109.981C95.7422 109.981 95.084 110.168 94.377 110.543V109.588C95.1543 109.272 95.8828 109.113 96.5625 109.113C97.2734 109.113 97.7979 109.274 98.1358 109.594C98.4737 109.914 98.6426 110.412 98.6426 111.088V113.971C98.6426 114.631 98.8457 114.961 99.252 114.961C99.3027 114.961 99.3769 114.953 99.4746 114.938L99.5566 115.576C99.2949 115.701 99.0059 115.764 98.6895 115.764C98.1504 115.764 97.8067 115.445 97.6582 114.809ZM97.4883 114.182V112.535L97.1016 112.523C96.4688 112.523 95.9571 112.644 95.5664 112.884C95.1758 113.124 94.9805 113.44 94.9805 113.83C94.9805 114.108 95.0781 114.342 95.2734 114.533C95.4687 114.725 95.707 114.82 95.9883 114.82C96.4688 114.82 96.9688 114.608 97.4883 114.182ZM102.914 115.764C102.328 115.764 101.871 115.596 101.543 115.26C101.215 114.924 101.051 114.457 101.051 113.86V110.121H100.254V109.254H101.051V108.1L102.205 107.988V109.254H103.869V110.121H102.205V113.648C102.205 114.481 102.564 114.897 103.283 114.897C103.436 114.897 103.621 114.871 103.84 114.82V115.617C103.484 115.715 103.176 115.764 102.914 115.764ZM105.492 115.617V109.254H106.646V115.617H105.492ZM105.492 108.1V106.945H106.646V108.1H105.492ZM111.451 115.764C110.541 115.764 109.814 115.462 109.271 114.859C108.728 114.255 108.457 113.447 108.457 112.436C108.457 111.412 108.729 110.603 109.274 110.007C109.819 109.411 110.559 109.113 111.492 109.113C112.426 109.113 113.165 109.411 113.71 110.007C114.255 110.603 114.527 111.408 114.527 112.424C114.527 113.463 114.254 114.279 113.707 114.873C113.16 115.467 112.408 115.764 111.451 115.764ZM111.469 114.897C112.691 114.897 113.303 114.072 113.303 112.424C113.303 110.795 112.699 109.981 111.492 109.981C110.289 109.981 109.688 110.799 109.688 112.436C109.688 114.076 110.281 114.897 111.469 114.897ZM116.332 115.617V109.254H117.486V110.449C118.096 109.559 118.842 109.113 119.725 109.113C120.275 109.113 120.715 109.288 121.043 109.638C121.371 109.987 121.535 110.457 121.535 111.047V115.617H120.381V111.422C120.381 110.949 120.312 110.612 120.173 110.411C120.034 110.21 119.805 110.11 119.484 110.11C118.777 110.11 118.111 110.572 117.486 111.498V115.617H116.332Z" fill="black"/>
<path d="M41 139L93.4615 139.035L151 139.072" fill="white"/>
<path d="M41 139L93.4615 139.035L151 139.072" stroke="black" stroke-miterlimit="10"/>
<path fill-rule="evenodd" clip-rule="evenodd" d="M21 139.072L31 133.072L41 139.072L31 145.072L21 139.072Z" fill="black" stroke="black" stroke-miterlimit="10"/>
<path d="M51.2246 155.178C49.8769 155.178 48.8359 154.782 48.1015 153.991C47.3672 153.2 47 152.08 47 150.631C47 149.186 47.374 148.065 48.122 147.268C48.8701 146.471 49.9238 146.072 51.2832 146.072C52.0605 146.072 52.9707 146.199 54.0136 146.453V147.608C52.8261 147.197 51.9101 146.992 51.2656 146.992C50.3242 146.992 49.5957 147.311 49.0801 147.947C48.5644 148.584 48.3066 149.483 48.3066 150.643C48.3066 151.748 48.582 152.62 49.1328 153.259C49.6836 153.898 50.4355 154.217 51.3886 154.217C52.2089 154.217 53.0879 153.965 54.0254 153.461V154.516C53.1699 154.957 52.2363 155.178 51.2246 155.178ZM58.3379 155.108C57.4277 155.108 56.7011 154.806 56.1582 154.202C55.6152 153.599 55.3437 152.791 55.3437 151.779C55.3437 150.756 55.6162 149.946 56.1611 149.351C56.706 148.755 57.4453 148.457 58.3789 148.457C59.3125 148.457 60.0518 148.755 60.5967 149.351C61.1416 149.946 61.414 150.752 61.414 151.768C61.414 152.807 61.1406 153.623 60.5937 154.217C60.0468 154.811 59.2949 155.108 58.3379 155.108ZM58.3554 154.24C59.5781 154.24 60.1894 153.416 60.1894 151.768C60.1894 150.139 59.5859 149.324 58.3789 149.324C57.1758 149.324 56.5742 150.143 56.5742 151.779C56.5742 153.42 57.1679 154.24 58.3554 154.24ZM63.2187 154.961V148.598H64.373V149.793C64.9355 148.902 65.6582 148.457 66.541 148.457C67.3925 148.457 67.9726 148.902 68.2812 149.793C68.8281 148.899 69.539 148.451 70.414 148.451C70.9765 148.451 71.4121 148.616 71.7207 148.946C72.0293 149.277 72.1836 149.738 72.1836 150.332V154.961H71.0234V150.514C71.0234 149.787 70.7363 149.424 70.1621 149.424C69.5644 149.424 68.9375 149.848 68.2812 150.695V154.961H67.1211V150.514C67.1211 149.783 66.8281 149.418 66.2422 149.418C65.6601 149.418 65.0371 149.844 64.373 150.695V154.961H63.2187ZM74.4218 157.276V148.598H75.5761V149.793C76.0488 148.902 76.7578 148.457 77.7031 148.457C78.4687 148.457 79.0712 148.736 79.5107 149.295C79.9502 149.854 80.1699 150.617 80.1699 151.586C80.1699 152.641 79.9209 153.491 79.4228 154.138C78.9248 154.784 78.2695 155.108 77.457 155.108C76.7031 155.108 76.0761 154.819 75.5761 154.24V157.276H74.4218ZM75.5761 153.443C76.1699 153.975 76.7363 154.24 77.2754 154.24C78.3847 154.24 78.9394 153.395 78.9394 151.703C78.9394 150.211 78.4472 149.465 77.4629 149.465C76.8184 149.465 76.1894 149.815 75.5761 150.514V153.443ZM84.4648 155.108C83.5547 155.108 82.8281 154.806 82.2851 154.202C81.7422 153.599 81.4707 152.791 81.4707 151.779C81.4707 150.756 81.7432 149.946 82.2881 149.351C82.833 148.755 83.5722 148.457 84.5058 148.457C85.4394 148.457 86.1787 148.755 86.7236 149.351C87.2685 149.946 87.541 150.752 87.541 151.768C87.541 152.807 87.2676 153.623 86.7207 154.217C86.1738 154.811 85.4219 155.108 84.4648 155.108ZM84.4824 154.24C85.7051 154.24 86.3164 153.416 86.3164 151.768C86.3164 150.139 85.7129 149.324 84.5058 149.324C83.3027 149.324 82.7011 150.143 82.7011 151.779C82.7011 153.42 83.2949 154.24 84.4824 154.24ZM91.0332 155.108C90.5059 155.108 89.8652 154.985 89.1113 154.738V153.678C89.8652 154.053 90.5215 154.24 91.0801 154.24C91.4121 154.24 91.6875 154.151 91.9062 153.971C92.125 153.791 92.2344 153.567 92.2344 153.297C92.2344 152.902 91.9277 152.576 91.3144 152.318L90.6406 152.031C89.6445 151.617 89.1465 151.022 89.1465 150.244C89.1465 149.69 89.3428 149.253 89.7353 148.935C90.1279 148.616 90.666 148.457 91.3496 148.457C91.7051 148.457 92.1445 148.506 92.6679 148.604L92.9082 148.651V149.611C92.2637 149.42 91.7519 149.324 91.373 149.324C90.6308 149.324 90.2597 149.594 90.2597 150.133C90.2597 150.481 90.541 150.774 91.1035 151.012L91.6601 151.246C92.289 151.512 92.7344 151.792 92.9961 152.087C93.2578 152.382 93.3886 152.75 93.3886 153.192C93.3886 153.75 93.1679 154.209 92.7265 154.568C92.2851 154.928 91.7207 155.108 91.0332 155.108ZM95.4629 154.961V148.598H96.6172V154.961H95.4629ZM95.4629 147.443V146.289H96.6172V147.443H95.4629ZM100.842 155.108C100.256 155.108 99.7988 154.94 99.4707 154.604C99.1426 154.268 98.9785 153.801 98.9785 153.203V149.465H98.1816V148.598H98.9785V147.443L100.133 147.332V148.598H101.797V149.465H100.133V152.992C100.133 153.824 100.492 154.24 101.211 154.24C101.363 154.24 101.549 154.215 101.768 154.164V154.961C101.412 155.059 101.104 155.108 100.842 155.108ZM103.42 154.961V148.598H104.574V154.961H103.42ZM103.42 147.443V146.289H104.574V147.443H103.42ZM109.379 155.108C108.469 155.108 107.742 154.806 107.199 154.202C106.656 153.599 106.385 152.791 106.385 151.779C106.385 150.756 106.657 149.946 107.202 149.351C107.747 148.755 108.486 148.457 109.42 148.457C110.353 148.457 111.093 148.755 111.638 149.351C112.183 149.946 112.455 150.752 112.455 151.768C112.455 152.807 112.182 153.623 111.635 154.217C111.088 154.811 110.336 155.108 109.379 155.108ZM109.396 154.24C110.619 154.24 111.23 153.416 111.23 151.768C111.23 150.139 110.627 149.324 109.42 149.324C108.217 149.324 107.615 150.143 107.615 151.779C107.615 153.42 108.209 154.24 109.396 154.24ZM114.26 154.961V148.598H115.414V149.793C116.023 148.902 116.769 148.457 117.652 148.457C118.203 148.457 118.643 148.632 118.971 148.982C119.299 149.331 119.463 149.801 119.463 150.391V154.961H118.309V150.766C118.309 150.293 118.239 149.956 118.101 149.755C117.962 149.554 117.732 149.453 117.412 149.453C116.705 149.453 116.039 149.916 115.414 150.842V154.961H114.26Z" fill="black"/>
</svg>
