<svg width="172" height="175" viewBox="0 0 172 175" fill="none" xmlns="http://www.w3.org/2000/svg">
<rect width="172" height="174.799" rx="10" fill="#9CD2FF"/>
<path d="M20 20H80H152" fill="white"/>
<path d="M20 20H80H152" stroke="black" stroke-miterlimit="10"/>
<path d="M53.4141 32.3555L51.9375 28.6172L50.4551 32.3555H53.4141ZM54.7149 35.6719L53.7715 33.2696H50.0977L49.1426 35.6719H48L51.4395 27H52.6582L56.0449 35.6719H54.7149ZM59.0215 35.8184C58.4942 35.8184 57.8535 35.6953 57.0996 35.4492V34.3887C57.8535 34.7637 58.5098 34.9512 59.0684 34.9512C59.4004 34.9512 59.6758 34.8614 59.8945 34.6817C60.1133 34.502 60.2227 34.2773 60.2227 34.0078C60.2227 33.6133 59.916 33.2871 59.3027 33.0293L58.6289 32.7422C57.6328 32.3281 57.1348 31.7324 57.1348 30.9551C57.1348 30.4004 57.3311 29.9639 57.7236 29.6455C58.1162 29.3272 58.6543 29.168 59.3379 29.168C59.6934 29.168 60.1328 29.2168 60.6563 29.3145L60.8965 29.3614V30.3223C60.252 30.1309 59.7402 30.0352 59.3613 30.0352C58.6192 30.0352 58.2481 30.3047 58.2481 30.8438C58.2481 31.1915 58.5293 31.4844 59.0918 31.7227L59.6484 31.9571C60.2773 32.2227 60.7227 32.503 60.9844 32.7979C61.2461 33.0928 61.377 33.461 61.377 33.9024C61.377 34.461 61.1563 34.92 60.7149 35.2793C60.2734 35.6387 59.709 35.8184 59.0215 35.8184ZM65.1387 35.8184C64.6114 35.8184 63.9707 35.6953 63.2168 35.4492V34.3887C63.9707 34.7637 64.627 34.9512 65.1856 34.9512C65.5176 34.9512 65.793 34.8614 66.0117 34.6817C66.2305 34.502 66.3399 34.2773 66.3399 34.0078C66.3399 33.6133 66.0332 33.2871 65.4199 33.0293L64.7461 32.7422C63.75 32.3281 63.252 31.7324 63.252 30.9551C63.252 30.4004 63.4483 29.9639 63.8408 29.6455C64.2334 29.3272 64.7715 29.168 65.4551 29.168C65.8105 29.168 66.25 29.2168 66.7734 29.3145L67.0137 29.3614V30.3223C66.3692 30.1309 65.8574 30.0352 65.4785 30.0352C64.7363 30.0352 64.3652 30.3047 64.3652 30.8438C64.3652 31.1915 64.6465 31.4844 65.209 31.7227L65.7656 31.9571C66.3945 32.2227 66.8399 32.503 67.1016 32.7979C67.3633 33.0928 67.4942 33.461 67.4942 33.9024C67.4942 34.461 67.2735 34.92 66.832 35.2793C66.3906 35.6387 65.8262 35.8184 65.1387 35.8184ZM72.0586 35.8184C71.1485 35.8184 70.4219 35.5166 69.8789 34.9131C69.3359 34.3096 69.0645 33.502 69.0645 32.4903C69.0645 31.4668 69.3369 30.6572 69.8818 30.0615C70.4267 29.4658 71.166 29.168 72.0996 29.168C73.0332 29.168 73.7724 29.4658 74.3174 30.0615C74.8623 30.6572 75.1348 31.4629 75.1348 32.4785C75.1348 33.5176 74.8614 34.334 74.3145 34.9278C73.7676 35.5215 73.0157 35.8184 72.0586 35.8184ZM72.0762 34.9512C73.2989 34.9512 73.9102 34.127 73.9102 32.4785C73.9102 30.8496 73.3066 30.0352 72.0996 30.0352C70.8964 30.0352 70.2949 30.8536 70.2949 32.4903C70.2949 34.1309 70.8887 34.9512 72.0762 34.9512ZM79.4238 35.8184C78.5645 35.8184 77.8516 35.5 77.2852 34.8633C76.7188 34.2266 76.4356 33.4238 76.4356 32.4551C76.4356 31.42 76.7159 30.6133 77.2764 30.0352C77.8369 29.4571 78.6191 29.168 79.6231 29.168C80.1191 29.168 80.6738 29.2364 81.2871 29.3731V30.3399C80.6347 30.1485 80.1035 30.0528 79.6934 30.0528C79.1035 30.0528 78.6299 30.2745 78.2725 30.7178C77.915 31.1611 77.7363 31.752 77.7363 32.4903C77.7363 33.2051 77.9199 33.7832 78.2871 34.2246C78.6543 34.666 79.1348 34.8867 79.7285 34.8867C80.2558 34.8867 80.7988 34.7519 81.3574 34.4824V35.4785C80.6113 35.7051 79.9668 35.8184 79.4238 35.8184ZM83.0859 35.6719V29.3086H84.2402V35.6719H83.0859ZM83.0859 28.1543V27H84.2402V28.1543H83.0859ZM89.8359 34.8633C89.1445 35.5 88.4785 35.8184 87.8379 35.8184C87.3106 35.8184 86.8731 35.6534 86.5254 35.3233C86.1777 34.9932 86.0039 34.5762 86.0039 34.0723C86.0039 33.377 86.2959 32.8428 86.8799 32.4698C87.4639 32.0967 88.3008 31.9102 89.3906 31.9102H89.666V31.1426C89.666 30.4043 89.2871 30.0352 88.5293 30.0352C87.9199 30.0352 87.2617 30.2227 86.5547 30.5977V29.6426C87.332 29.3262 88.0605 29.168 88.7402 29.168C89.4511 29.168 89.9755 29.3282 90.3135 29.6485C90.6513 29.9688 90.8203 30.4668 90.8203 31.1426V34.0254C90.8203 34.6856 91.0234 35.0157 91.4297 35.0157C91.4805 35.0157 91.5547 35.0079 91.6524 34.9922L91.7344 35.6309C91.4727 35.7559 91.1836 35.8184 90.8672 35.8184C90.3281 35.8184 89.9843 35.5 89.8359 34.8633ZM89.666 34.2364V32.5899L89.2793 32.5781C88.6465 32.5781 88.1348 32.6982 87.7442 32.9385C87.3535 33.1788 87.1582 33.4942 87.1582 33.8848C87.1582 34.1621 87.2559 34.3965 87.4512 34.5879C87.6465 34.7793 87.8848 34.875 88.166 34.875C88.6465 34.875 89.1465 34.6621 89.666 34.2364ZM95.0918 35.8184C94.5059 35.8184 94.0488 35.6504 93.7207 35.3145C93.3926 34.9786 93.2285 34.5118 93.2285 33.9141V30.1758H92.4316V29.3086H93.2285V28.1543L94.3828 28.043V29.3086H96.0469V30.1758H94.3828V33.7031C94.3828 34.5352 94.7421 34.9512 95.4609 34.9512C95.6133 34.9512 95.7988 34.9258 96.0176 34.875V35.6719C95.6621 35.7696 95.3535 35.8184 95.0918 35.8184ZM97.6699 35.6719V29.3086H98.8242V35.6719H97.6699ZM97.6699 28.1543V27H98.8242V28.1543H97.6699ZM103.629 35.8184C102.719 35.8184 101.992 35.5166 101.449 34.9131C100.906 34.3096 100.635 33.502 100.635 32.4903C100.635 31.4668 100.907 30.6572 101.452 30.0615C101.997 29.4658 102.736 29.168 103.67 29.168C104.603 29.168 105.343 29.4658 105.888 30.0615C106.433 30.6572 106.705 31.4629 106.705 32.4785C106.705 33.5176 106.432 34.334 105.885 34.9278C105.338 35.5215 104.586 35.8184 103.629 35.8184ZM103.646 34.9512C104.869 34.9512 105.48 34.127 105.48 32.4785C105.48 30.8496 104.877 30.0352 103.67 30.0352C102.467 30.0352 101.865 30.8536 101.865 32.4903C101.865 34.1309 102.459 34.9512 103.646 34.9512ZM108.51 35.6719V29.3086H109.664V30.5039C110.273 29.6133 111.02 29.168 111.902 29.168C112.453 29.168 112.893 29.3428 113.221 29.6924C113.549 30.042 113.713 30.5117 113.713 31.1016V35.6719H112.559V31.4766C112.559 31.0039 112.489 30.667 112.351 30.4658C112.212 30.2647 111.982 30.1641 111.662 30.1641C110.955 30.1641 110.289 30.627 109.664 31.5528V35.6719H108.51Z" fill="black"/>
<path d="M20 58.8184H68H152" fill="white"/>
<path d="M20 58.8184H68H152" stroke="black" stroke-miterlimit="10" stroke-dasharray="6 3"/>
<path d="M145 61.8184L152 58.8184L145 55.8184" stroke="black" stroke-miterlimit="10"/>
<path d="M56 74.4903V65.8184H57.2305V74.4903H56ZM59.498 74.4903V68.127H60.6523V69.3223C61.2617 68.4317 62.0078 67.9864 62.8906 67.9864C63.4414 67.9864 63.8809 68.1612 64.209 68.5108C64.5371 68.8604 64.7012 69.3302 64.7012 69.92V74.4903H63.5469V70.295C63.5469 69.8224 63.4775 69.4854 63.3388 69.2842C63.2001 69.0831 62.9707 68.9825 62.6504 68.9825C61.9433 68.9825 61.2773 69.4454 60.6523 70.3712V74.4903H59.498ZM68.3222 68.9942V74.4903H67.1621V68.9942H66.2597V68.127H67.1621V67.3653C67.1621 65.8497 67.8535 65.0919 69.2363 65.0919C69.623 65.0919 70.0625 65.1564 70.5547 65.2852V66.1993C70.0352 66.0392 69.6191 65.9591 69.3066 65.9591C68.9277 65.9591 68.6689 66.0499 68.5303 66.2315C68.3915 66.4132 68.3222 66.7501 68.3222 67.2423V68.127H69.9101V68.9942H68.3222ZM71.3574 74.4903V65.2383H72.5117V74.4903H71.3574ZM78.8047 74.4903V73.295C78.1914 74.1896 77.4472 74.6368 76.5722 74.6368C76.0175 74.6368 75.5761 74.462 75.248 74.1124C74.9199 73.7628 74.7558 73.2911 74.7558 72.6973V68.127H75.9101V72.3223C75.9101 72.7989 75.9794 73.1378 76.1181 73.3389C76.2568 73.5401 76.4883 73.6407 76.8125 73.6407C77.5156 73.6407 78.1797 73.1778 78.8047 72.252V68.127H79.959V74.4903H78.8047ZM86.9375 74.2852C86.164 74.5196 85.5019 74.6368 84.9512 74.6368C84.0137 74.6368 83.249 74.3253 82.6572 73.7022C82.0654 73.0792 81.7695 72.2716 81.7695 71.2794C81.7695 70.3146 82.0302 69.5235 82.5517 68.9063C83.0732 68.2891 83.7402 67.9805 84.5527 67.9805C85.3222 67.9805 85.917 68.254 86.3369 68.8008C86.7568 69.3478 86.9668 70.1251 86.9668 71.1329L86.9609 71.4903H82.9472C83.1152 73.0021 83.8554 73.7579 85.1679 73.7579C85.6484 73.7579 86.2383 73.629 86.9375 73.3712V74.2852ZM83 70.6231H85.8066C85.8066 69.4395 85.3652 68.8477 84.4824 68.8477C83.5957 68.8477 83.1015 69.4395 83 70.6231ZM88.959 74.4903V68.127H90.1133V69.3223C90.7226 68.4317 91.4687 67.9864 92.3515 67.9864C92.9023 67.9864 93.3418 68.1612 93.6699 68.5108C93.998 68.8604 94.1621 69.3302 94.1621 69.92V74.4903H93.0078V70.295C93.0078 69.8224 92.9384 69.4854 92.7998 69.2842C92.6611 69.0831 92.4316 68.9825 92.1113 68.9825C91.4043 68.9825 90.7383 69.4454 90.1133 70.3712V74.4903H88.959ZM98.8906 74.6368C98.0312 74.6368 97.3183 74.3185 96.7519 73.6817C96.1855 73.045 95.9023 72.2423 95.9023 71.2735C95.9023 70.2384 96.1826 69.4318 96.7431 68.8536C97.3037 68.2755 98.0859 67.9864 99.0898 67.9864C99.5859 67.9864 100.141 68.0548 100.754 68.1915V69.1583C100.102 68.9669 99.5703 68.8712 99.1601 68.8712C98.5703 68.8712 98.0967 69.0929 97.7392 69.5362C97.3818 69.9796 97.2031 70.5704 97.2031 71.3087C97.2031 72.0235 97.3867 72.6016 97.7539 73.043C98.1211 73.4844 98.6015 73.7051 99.1953 73.7051C99.7226 73.7051 100.266 73.5704 100.824 73.3008V74.2969C100.078 74.5235 99.4336 74.6368 98.8906 74.6368ZM107.217 74.2852C106.443 74.5196 105.781 74.6368 105.23 74.6368C104.293 74.6368 103.528 74.3253 102.936 73.7022C102.345 73.0792 102.049 72.2716 102.049 71.2794C102.049 70.3146 102.31 69.5235 102.831 68.9063C103.353 68.2891 104.02 67.9805 104.832 67.9805C105.602 67.9805 106.196 68.254 106.616 68.8008C107.036 69.3478 107.246 70.1251 107.246 71.1329L107.24 71.4903H103.227C103.395 73.0021 104.135 73.7579 105.447 73.7579C105.928 73.7579 106.518 73.629 107.217 73.3712V74.2852ZM103.279 70.6231H106.086C106.086 69.4395 105.644 68.8477 104.762 68.8477C103.875 68.8477 103.381 69.4395 103.279 70.6231Z" fill="black"/>
<path d="M21 97.6368H81H151" fill="white"/>
<path d="M21 97.6368H81H151" stroke="black" stroke-miterlimit="10" stroke-dasharray="2 2"/>
<path d="M28 94.6368L21 97.6368L28 100.637" stroke="black" stroke-miterlimit="10"/>
<path d="M144 100.637L151 97.6368L144 94.6368" stroke="black" stroke-miterlimit="10"/>
<path d="M72.4141 109.992L70.9375 106.254L69.4551 109.992H72.4141ZM73.7149 113.309L72.7715 110.906H69.0977L68.1426 113.309H67L70.4395 104.637H71.6582L75.0449 113.309H73.7149ZM78.8184 113.455C77.959 113.455 77.2461 113.137 76.6797 112.5C76.1133 111.863 75.8301 111.061 75.8301 110.092C75.8301 109.057 76.1104 108.25 76.6709 107.672C77.2314 107.094 78.0137 106.805 79.0176 106.805C79.5137 106.805 80.0683 106.873 80.6816 107.01V107.977C80.0293 107.785 79.498 107.69 79.0879 107.69C78.498 107.69 78.0244 107.911 77.667 108.355C77.3096 108.798 77.1309 109.389 77.1309 110.127C77.1309 110.842 77.3145 111.42 77.6816 111.861C78.0488 112.303 78.5293 112.524 79.1231 112.524C79.6504 112.524 80.1934 112.389 80.752 112.119V113.115C80.0059 113.342 79.3613 113.455 78.8184 113.455ZM84.9649 113.455C84.1055 113.455 83.3926 113.137 82.8262 112.5C82.2598 111.863 81.9766 111.061 81.9766 110.092C81.9766 109.057 82.2569 108.25 82.8174 107.672C83.3779 107.094 84.1602 106.805 85.1641 106.805C85.6602 106.805 86.2148 106.873 86.8281 107.01V107.977C86.1758 107.785 85.6445 107.69 85.2344 107.69C84.6445 107.69 84.1709 107.911 83.8135 108.355C83.4561 108.798 83.2774 109.389 83.2774 110.127C83.2774 110.842 83.461 111.42 83.8281 111.861C84.1953 112.303 84.6758 112.524 85.2695 112.524C85.7969 112.524 86.3399 112.389 86.8984 112.119V113.115C86.1523 113.342 85.5078 113.455 84.9649 113.455ZM93.291 113.104C92.5176 113.338 91.8555 113.455 91.3047 113.455C90.3672 113.455 89.6025 113.144 89.0108 112.521C88.419 111.898 88.1231 111.09 88.1231 110.098C88.1231 109.133 88.3838 108.342 88.9053 107.725C89.4268 107.108 90.0938 106.799 90.9063 106.799C91.6758 106.799 92.2705 107.072 92.6904 107.619C93.1103 108.166 93.3203 108.944 93.3203 109.951L93.3145 110.309H89.3008C89.4687 111.82 90.209 112.576 91.5215 112.576C92.002 112.576 92.5918 112.447 93.291 112.19V113.104ZM89.3535 109.442H92.1602C92.1602 108.258 91.7188 107.666 90.8359 107.666C89.9492 107.666 89.4551 108.258 89.3535 109.442ZM97 113.455C96.4727 113.455 95.832 113.332 95.0781 113.086V112.026C95.832 112.401 96.4883 112.588 97.0469 112.588C97.3789 112.588 97.6543 112.498 97.8731 112.319C98.0918 112.139 98.2012 111.914 98.2012 111.645C98.2012 111.25 97.8946 110.924 97.2813 110.666L96.6074 110.379C95.6113 109.965 95.1133 109.369 95.1133 108.592C95.1133 108.037 95.3096 107.601 95.7022 107.282C96.0947 106.964 96.6328 106.805 97.3164 106.805C97.6719 106.805 98.1113 106.854 98.6348 106.951L98.875 106.998V107.959C98.2305 107.768 97.7188 107.672 97.3399 107.672C96.5977 107.672 96.2266 107.942 96.2266 108.481C96.2266 108.828 96.5078 109.121 97.0703 109.36L97.627 109.594C98.2559 109.86 98.7012 110.14 98.9629 110.435C99.2246 110.73 99.3555 111.098 99.3555 111.539C99.3555 112.098 99.1348 112.557 98.6934 112.916C98.252 113.276 97.6875 113.455 97 113.455ZM103.117 113.455C102.59 113.455 101.949 113.332 101.195 113.086V112.026C101.949 112.401 102.606 112.588 103.164 112.588C103.496 112.588 103.771 112.498 103.99 112.319C104.209 112.139 104.318 111.914 104.318 111.645C104.318 111.25 104.012 110.924 103.398 110.666L102.725 110.379C101.729 109.965 101.23 109.369 101.23 108.592C101.23 108.037 101.427 107.601 101.819 107.282C102.212 106.964 102.75 106.805 103.434 106.805C103.789 106.805 104.229 106.854 104.752 106.951L104.992 106.998V107.959C104.348 107.768 103.836 107.672 103.457 107.672C102.715 107.672 102.344 107.942 102.344 108.481C102.344 108.828 102.625 109.121 103.188 109.36L103.744 109.594C104.373 109.86 104.818 110.14 105.08 110.435C105.342 110.73 105.473 111.098 105.473 111.539C105.473 112.098 105.252 112.557 104.811 112.916C104.369 113.276 103.805 113.455 103.117 113.455Z" fill="black"/>
<path d="M144 139.455L151 136.455L144 133.455" stroke="black" stroke-miterlimit="10"/>
<path d="M21 136.455H92H151" fill="white"/>
<path d="M21 136.455H92H151" stroke="black" stroke-miterlimit="10"/>
<path d="M65.2325 152.561C64.6504 152.561 63.9063 152.434 63 152.18V150.961C63.9766 151.414 64.7793 151.641 65.4082 151.641C65.8926 151.641 66.2823 151.514 66.5772 151.26C66.8721 151.006 67.0196 150.672 67.0196 150.258C67.0196 149.918 66.9229 149.629 66.7295 149.391C66.5362 149.153 66.1797 148.887 65.6602 148.594L65.0625 148.248C64.3242 147.826 63.8037 147.429 63.501 147.056C63.1983 146.683 63.0469 146.248 63.0469 145.752C63.0469 145.084 63.2891 144.534 63.7735 144.103C64.2578 143.671 64.875 143.455 65.625 143.455C66.293 143.455 66.9981 143.567 67.7403 143.789V144.914C66.8262 144.555 66.1446 144.375 65.6953 144.375C65.2696 144.375 64.918 144.488 64.6407 144.715C64.3633 144.942 64.2246 145.227 64.2246 145.571C64.2246 145.86 64.3262 146.115 64.5293 146.338C64.7324 146.561 65.1035 146.826 65.6426 147.135L66.2637 147.487C67.0137 147.912 67.5371 148.315 67.834 148.694C68.1309 149.072 68.2793 149.528 68.2793 150.059C68.2793 150.813 68.001 151.418 67.4444 151.875C66.8877 152.332 66.1504 152.561 65.2325 152.561ZM74.6953 152.139C73.9219 152.373 73.2598 152.49 72.709 152.49C71.7715 152.49 71.0069 152.179 70.4151 151.556C69.8233 150.933 69.5274 150.125 69.5274 149.133C69.5274 148.168 69.7881 147.377 70.3096 146.76C70.8311 146.143 71.4981 145.834 72.3106 145.834C73.0801 145.834 73.6749 146.108 74.0948 146.654C74.5147 147.201 74.7246 147.979 74.7246 148.987L74.7188 149.344H70.7051C70.8731 150.856 71.6133 151.612 72.9258 151.612C73.4063 151.612 73.9961 151.483 74.6953 151.225V152.139ZM70.7579 148.477H73.5645C73.5645 147.293 73.1231 146.701 72.2403 146.701C71.3536 146.701 70.8594 147.293 70.7579 148.477ZM76.7168 152.344V145.981H77.8711V147.176C78.3282 146.285 78.9922 145.84 79.8633 145.84C79.9805 145.84 80.1036 145.85 80.2325 145.869V146.947C80.0332 146.881 79.8574 146.848 79.7051 146.848C78.9746 146.848 78.3633 147.281 77.8711 148.149V152.344H76.7168ZM82.9453 152.344L80.5782 145.981H81.7325L83.584 150.932L85.5352 145.981H86.6133L84.0996 152.344H82.9453ZM87.8379 152.344V145.981H88.9922V152.344H87.8379ZM87.8379 144.826V143.672H88.9922V144.826H87.8379ZM91.3067 152.344V145.981H92.461V147.176C93.0703 146.285 93.8164 145.84 94.6993 145.84C95.25 145.84 95.6895 146.015 96.0176 146.364C96.3457 146.714 96.5098 147.184 96.5098 147.774V152.344H95.3555V148.149C95.3555 147.676 95.2862 147.339 95.1475 147.138C95.0088 146.937 94.7793 146.836 94.459 146.836C93.752 146.836 93.086 147.299 92.461 148.225V152.344H91.3067ZM98.7774 154.459L98.9121 153.457C99.5801 153.774 100.238 153.932 100.887 153.932C102.188 153.932 102.838 153.242 102.838 151.863V150.862C102.412 151.752 101.713 152.197 100.74 152.197C99.9786 152.197 99.3731 151.92 98.9239 151.365C98.4746 150.811 98.25 150.063 98.25 149.121C98.25 148.152 98.5059 147.363 99.0176 146.754C99.5293 146.145 100.191 145.84 101.004 145.84C101.715 145.84 102.326 146.129 102.838 146.707V145.981H103.998V150.61C103.998 151.606 103.946 152.343 103.843 152.821C103.739 153.3 103.545 153.692 103.26 153.996C102.756 154.531 101.973 154.799 100.91 154.799C100.168 154.799 99.4571 154.686 98.7774 154.459ZM102.838 150.141V147.498C102.33 146.971 101.777 146.707 101.18 146.707C100.649 146.707 100.233 146.92 99.9317 147.346C99.6309 147.772 99.4805 148.356 99.4805 149.098C99.4805 150.492 99.9707 151.19 100.951 151.19C101.619 151.19 102.248 150.84 102.838 150.141Z" fill="black"/>
</svg>
